<?xml version="1.0" encoding="UTF-8" standalone="no"?>
<!DOCTYPE svg PUBLIC "-//W3C//DTD SVG 1.1//EN"
 "http://www.w3.org/Graphics/SVG/1.1/DTD/svg11.dtd">
<!-- Generated by graphviz version 2.44.0 (0)
 -->
<!-- Title: gr&#45;0005 Pages: 1 -->
<svg width="1174pt" height="806pt"
 viewBox="0.00 0.00 1174.12 806.00" xmlns="http://www.w3.org/2000/svg" xmlns:xlink="http://www.w3.org/1999/xlink">
<g id="graph0" class="graph" transform="scale(1 1) rotate(0) translate(4 802)">
<title>gr&#45;0005</title>
<polygon fill="white" stroke="transparent" points="-4,4 -4,-802 1170.12,-802 1170.12,4 -4,4"/>
<!-- control_input -->
<g id="node1" class="node">
<title>control_input</title>
<ellipse fill="none" stroke="blue" stroke-width="2" cx="40.16" cy="-205" rx="40.32" ry="18"/>
<text text-anchor="middle" x="40.16" y="-202.2" font-family="sans" font-size="11.00">control_input</text>
</g>
<!-- loopback_input -->
<g id="node2" class="node">
<title>loopback_input</title>
<ellipse fill="none" stroke="black" cx="161.91" cy="-377" rx="45.68" ry="18"/>
<text text-anchor="middle" x="161.91" y="-374.2" font-family="sans" font-size="11.00">loopback_input</text>
</g>
<!-- control_input&#45;&gt;loopback_input -->
<g id="edge1" class="edge">
<title>control_input&#45;&gt;loopback_input</title>
<path fill="none" stroke="blue" stroke-width="2" d="M53.08,-222.12C74.19,-252.44 118.24,-315.7 143.01,-351.28"/>
<polygon fill="blue" stroke="blue" stroke-width="2" points="140.28,-353.49 148.86,-359.69 146.02,-349.49 140.28,-353.49"/>
</g>
<!-- arp_output_request -->
<g id="node3" class="node">
<title>arp_output_request</title>
<ellipse fill="none" stroke="black" cx="302.66" cy="-72" rx="59.31" ry="18"/>
<text text-anchor="middle" x="302.66" y="-69.2" font-family="sans" font-size="11.00">arp_output_request</text>
</g>
<!-- control_input&#45;&gt;arp_output_request -->
<g id="edge2" class="edge">
<title>control_input&#45;&gt;arp_output_request</title>
<path fill="none" stroke="blue" stroke-width="2" d="M49.19,-187.08C60.58,-163.87 83.73,-124.03 116.32,-104 151.16,-82.59 196.26,-74.47 233.25,-71.76"/>
<polygon fill="blue" stroke="blue" stroke-width="2" points="233.69,-75.24 243.45,-71.13 233.26,-68.25 233.69,-75.24"/>
</g>
<!-- icmp_local_send -->
<g id="node4" class="node">
<title>icmp_local_send</title>
<ellipse fill="none" stroke="black" cx="302.66" cy="-576" rx="49.28" ry="18"/>
<text text-anchor="middle" x="302.66" y="-573.2" font-family="sans" font-size="11.00">icmp_local_send</text>
</g>
<!-- control_input&#45;&gt;icmp_local_send -->
<g id="edge3" class="edge">
<title>control_input&#45;&gt;icmp_local_send</title>
<path fill="none" stroke="blue" stroke-width="2" d="M42.57,-223.06C47.9,-286.67 68.99,-498.85 116.32,-544 150.19,-576.31 204.24,-582.47 245.25,-581.63"/>
<polygon fill="blue" stroke="blue" stroke-width="2" points="245.51,-585.12 255.38,-581.28 245.26,-578.13 245.51,-585.12"/>
</g>
<!-- icmp6_local_send -->
<g id="node5" class="node">
<title>icmp6_local_send</title>
<ellipse fill="none" stroke="black" cx="451" cy="-220" rx="53.37" ry="18"/>
<text text-anchor="middle" x="451" y="-217.2" font-family="sans" font-size="11.00">icmp6_local_send</text>
</g>
<!-- control_input&#45;&gt;icmp6_local_send -->
<g id="edge4" class="edge">
<title>control_input&#45;&gt;icmp6_local_send</title>
<path fill="none" stroke="blue" stroke-width="2" d="M80.16,-207.23C91.8,-207.85 104.57,-208.49 116.32,-209 210.87,-213.07 320.54,-216.43 387.58,-218.32"/>
<polygon fill="blue" stroke="blue" stroke-width="2" points="387.88,-221.83 397.97,-218.61 388.07,-214.83 387.88,-221.83"/>
</g>
<!-- ndp_ns_output -->
<g id="node6" class="node">
<title>ndp_ns_output</title>
<ellipse fill="none" stroke="black" cx="161.91" cy="-182" rx="44.51" ry="18"/>
<text text-anchor="middle" x="161.91" y="-179.2" font-family="sans" font-size="11.00">ndp_ns_output</text>
</g>
<!-- control_input&#45;&gt;ndp_ns_output -->
<g id="edge5" class="edge">
<title>control_input&#45;&gt;ndp_ns_output</title>
<path fill="none" stroke="blue" stroke-width="2" d="M77.42,-198.04C88.17,-195.97 100.14,-193.67 111.57,-191.48"/>
<polygon fill="blue" stroke="blue" stroke-width="2" points="112.28,-194.9 121.44,-189.58 110.96,-188.03 112.28,-194.9"/>
</g>
<!-- ip_output -->
<g id="node7" class="node">
<title>ip_output</title>
<ellipse fill="none" stroke="black" cx="836.87" cy="-576" rx="29.12" ry="18"/>
<text text-anchor="middle" x="836.87" y="-573.2" font-family="sans" font-size="11.00">ip_output</text>
</g>
<!-- control_input&#45;&gt;ip_output -->
<g id="edge6" class="edge">
<title>control_input&#45;&gt;ip_output</title>
<path fill="none" stroke="blue" stroke-width="2" d="M44.18,-223.02C51.16,-260.26 71.4,-347 116.32,-404 177.97,-482.23 202.05,-530 301.66,-530 301.66,-530 301.66,-530 582.43,-530 653.97,-530 672.14,-534.82 742.26,-549 761.94,-552.98 783.49,-559.07 800.96,-564.47"/>
<polygon fill="blue" stroke="blue" stroke-width="2" points="800.13,-567.88 810.72,-567.54 802.23,-561.2 800.13,-567.88"/>
</g>
<!-- arp_output_reply -->
<g id="node8" class="node">
<title>arp_output_reply</title>
<ellipse fill="none" stroke="black" cx="302.66" cy="-18" rx="51.62" ry="18"/>
<text text-anchor="middle" x="302.66" y="-15.2" font-family="sans" font-size="11.00">arp_output_reply</text>
</g>
<!-- control_input&#45;&gt;arp_output_reply -->
<g id="edge7" class="edge">
<title>control_input&#45;&gt;arp_output_reply</title>
<path fill="none" stroke="blue" stroke-width="2" d="M46.37,-186.86C55.6,-157.96 77.62,-101.61 116.32,-71 152.3,-42.55 202.89,-29.37 242.12,-23.27"/>
<polygon fill="blue" stroke="blue" stroke-width="2" points="242.69,-26.72 252.09,-21.83 241.69,-19.79 242.69,-26.72"/>
</g>
<!-- ip6_output -->
<g id="node9" class="node">
<title>ip6_output</title>
<ellipse fill="none" stroke="black" cx="836.87" cy="-207" rx="32.63" ry="18"/>
<text text-anchor="middle" x="836.87" y="-204.2" font-family="sans" font-size="11.00">ip6_output</text>
</g>
<!-- control_input&#45;&gt;ip6_output -->
<g id="edge8" class="edge">
<title>control_input&#45;&gt;ip6_output</title>
<path fill="none" stroke="blue" stroke-width="2" d="M53.5,-187.73C67.65,-173.61 92.05,-155.37 116.32,-146 194.04,-115.99 218.35,-118 301.66,-118 301.66,-118 301.66,-118 582.43,-118 654.88,-118 673.86,-126.14 742.26,-150 767.3,-158.74 794.06,-173.01 812.53,-185.37"/>
<polygon fill="blue" stroke="blue" stroke-width="2" points="810.69,-188.36 820.88,-191.25 814.72,-182.63 810.69,-188.36"/>
</g>
<!-- control_input&#45;&gt;ip6_output -->
<g id="edge10" class="edge">
<title>control_input&#45;&gt;ip6_output</title>
<path fill="none" stroke="blue" stroke-width="2" d="M67.41,-191.47C81.17,-182.18 98.78,-170.77 116.32,-164 194.04,-133.99 218.35,-136 301.66,-136 301.66,-136 301.66,-136 582.43,-136 654.88,-136 673.86,-144.14 742.26,-168 761.9,-174.85 782.6,-185.11 799.52,-193.59"/>
<polygon fill="blue" stroke="blue" stroke-width="2" points="798,-196.74 808.5,-198.09 801.13,-190.48 798,-196.74"/>
</g>
<!-- ndp_na_output -->
<g id="node10" class="node">
<title>ndp_na_output</title>
<ellipse fill="none" stroke="black" cx="161.91" cy="-274" rx="45.09" ry="18"/>
<text text-anchor="middle" x="161.91" y="-271.2" font-family="sans" font-size="11.00">ndp_na_output</text>
</g>
<!-- control_input&#45;&gt;ndp_na_output -->
<g id="edge9" class="edge">
<title>control_input&#45;&gt;ndp_na_output</title>
<path fill="none" stroke="blue" stroke-width="2" d="M65.68,-219.13C83.17,-229.2 106.92,-242.89 126.33,-254.07"/>
<polygon fill="blue" stroke="blue" stroke-width="2" points="124.77,-257.21 135.18,-259.17 128.26,-251.15 124.77,-257.21"/>
</g>
<!-- ip_input -->
<g id="node14" class="node">
<title>ip_input</title>
<ellipse fill="none" stroke="black" cx="302.66" cy="-660" rx="27" ry="18"/>
<text text-anchor="middle" x="302.66" y="-657.2" font-family="sans" font-size="11.00">ip_input</text>
</g>
<!-- loopback_input&#45;&gt;ip_input -->
<g id="edge15" class="edge">
<title>loopback_input&#45;&gt;ip_input</title>
<path fill="none" stroke="black" d="M166.41,-394.94C174.79,-434.85 198.73,-532.99 243.5,-603 252.33,-616.8 265.08,-629.79 276.39,-639.87"/>
<polygon fill="black" stroke="black" points="274.43,-642.8 284.3,-646.66 279,-637.49 274.43,-642.8"/>
</g>
<!-- ip6_input -->
<g id="node15" class="node">
<title>ip6_input</title>
<ellipse fill="none" stroke="black" cx="302.66" cy="-377" rx="28.44" ry="18"/>
<text text-anchor="middle" x="302.66" y="-374.2" font-family="sans" font-size="11.00">ip6_input</text>
</g>
<!-- loopback_input&#45;&gt;ip6_input -->
<g id="edge16" class="edge">
<title>loopback_input&#45;&gt;ip6_input</title>
<path fill="none" stroke="black" d="M207.57,-377C225.68,-377 246.37,-377 263.73,-377"/>
<polygon fill="black" stroke="black" points="264.05,-380.5 274.05,-377 264.05,-373.5 264.05,-380.5"/>
</g>
<!-- eth_output -->
<g id="node16" class="node">
<title>eth_output</title>
<ellipse fill="none" stroke="black" cx="986.3" cy="-123" rx="33.8" ry="18"/>
<text text-anchor="middle" x="986.3" y="-120.2" font-family="sans" font-size="11.00">eth_output</text>
</g>
<!-- arp_output_request&#45;&gt;eth_output -->
<g id="edge25" class="edge">
<title>arp_output_request&#45;&gt;eth_output</title>
<path fill="none" stroke="black" d="M361.7,-73.33C417.7,-74.49 504.86,-76 580.43,-76 580.43,-76 580.43,-76 701.47,-76 789.92,-76 891.82,-98.49 946.23,-112.36"/>
<polygon fill="black" stroke="black" points="945.59,-115.8 956.15,-114.92 947.34,-109.03 945.59,-115.8"/>
</g>
<!-- icmp_output -->
<g id="node23" class="node">
<title>icmp_output</title>
<ellipse fill="none" stroke="black" cx="700.47" cy="-576" rx="37.98" ry="18"/>
<text text-anchor="middle" x="700.47" y="-573.2" font-family="sans" font-size="11.00">icmp_output</text>
</g>
<!-- icmp_local_send&#45;&gt;icmp_output -->
<g id="edge28" class="edge">
<title>icmp_local_send&#45;&gt;icmp_output</title>
<path fill="none" stroke="black" d="M352.19,-576C428.69,-576 576.37,-576 652.12,-576"/>
<polygon fill="black" stroke="black" points="652.32,-579.5 662.32,-576 652.32,-572.5 652.32,-579.5"/>
</g>
<!-- icmp6_output -->
<g id="node31" class="node">
<title>icmp6_output</title>
<ellipse fill="none" stroke="black" cx="700.47" cy="-186" rx="41.58" ry="18"/>
<text text-anchor="middle" x="700.47" y="-183.2" font-family="sans" font-size="11.00">icmp6_output</text>
</g>
<!-- icmp6_local_send&#45;&gt;icmp6_output -->
<g id="edge48" class="edge">
<title>icmp6_local_send&#45;&gt;icmp6_output</title>
<path fill="none" stroke="black" d="M500.6,-213.32C543.86,-207.38 606.85,-198.73 650.29,-192.76"/>
<polygon fill="black" stroke="black" points="650.91,-196.2 660.34,-191.38 649.96,-189.27 650.91,-196.2"/>
</g>
<!-- ndp_ns_output&#45;&gt;icmp6_output -->
<g id="edge62" class="edge">
<title>ndp_ns_output&#45;&gt;icmp6_output</title>
<path fill="none" stroke="black" d="M206.82,-182.33C305.4,-183.06 543.87,-184.84 648.65,-185.62"/>
<polygon fill="black" stroke="black" points="648.64,-189.12 658.66,-185.7 648.69,-182.12 648.64,-189.12"/>
</g>
<!-- ip_output&#45;&gt;eth_output -->
<g id="edge38" class="edge">
<title>ip_output&#45;&gt;eth_output</title>
<path fill="none" stroke="black" d="M857.06,-562.63C870.23,-552.33 886.83,-536.85 895.49,-519 957.58,-391.03 881.6,-334.2 931.49,-201 938.91,-181.17 952.48,-161.56 964.13,-146.96"/>
<polygon fill="black" stroke="black" points="967.05,-148.92 970.71,-138.98 961.65,-144.47 967.05,-148.92"/>
</g>
<!-- loopback_output -->
<g id="node18" class="node">
<title>loopback_output</title>
<ellipse fill="none" stroke="black" cx="986.3" cy="-492" rx="50.45" ry="18"/>
<text text-anchor="middle" x="986.3" y="-489.2" font-family="sans" font-size="11.00">loopback_output</text>
</g>
<!-- ip_output&#45;&gt;loopback_output -->
<g id="edge40" class="edge">
<title>ip_output&#45;&gt;loopback_output</title>
<path fill="none" stroke="black" d="M857.68,-563.29C876.44,-551.41 905.52,-533.39 931.49,-519 936.29,-516.34 941.38,-513.64 946.45,-511.02"/>
<polygon fill="black" stroke="black" points="948.14,-514.08 955.47,-506.42 944.97,-507.84 948.14,-514.08"/>
</g>
<!-- ip_hold -->
<g id="node25" class="node">
<title>ip_hold</title>
<ellipse fill="none" stroke="black" cx="986.3" cy="-546" rx="27" ry="18"/>
<text text-anchor="middle" x="986.3" y="-543.2" font-family="sans" font-size="11.00">ip_hold</text>
</g>
<!-- ip_output&#45;&gt;ip_hold -->
<g id="edge39" class="edge">
<title>ip_output&#45;&gt;ip_hold</title>
<path fill="none" stroke="black" d="M864.91,-570.5C888.84,-565.63 923.9,-558.49 950.03,-553.18"/>
<polygon fill="black" stroke="black" points="950.81,-556.59 959.91,-551.17 949.41,-549.73 950.81,-556.59"/>
</g>
<!-- ipip_output -->
<g id="node29" class="node">
<title>ipip_output</title>
<ellipse fill="none" stroke="black" cx="986.3" cy="-600" rx="34.38" ry="18"/>
<text text-anchor="middle" x="986.3" y="-597.2" font-family="sans" font-size="11.00">ipip_output</text>
</g>
<!-- ip_output&#45;&gt;ipip_output -->
<g id="edge41" class="edge">
<title>ip_output&#45;&gt;ipip_output</title>
<path fill="none" stroke="black" d="M866.3,-575.17C889.39,-577.4 922.16,-582.56 947.47,-587.86"/>
<polygon fill="black" stroke="black" points="946.94,-591.33 957.46,-590.05 948.44,-584.49 946.94,-591.33"/>
</g>
<!-- arp_output_reply&#45;&gt;eth_output -->
<g id="edge24" class="edge">
<title>arp_output_reply&#45;&gt;eth_output</title>
<path fill="none" stroke="black" d="M353.64,-20.89C409.05,-23.85 501.1,-28 580.43,-28 580.43,-28 580.43,-28 701.47,-28 797.59,-28 903,-77.6 954.09,-105.13"/>
<polygon fill="black" stroke="black" points="952.53,-108.26 962.98,-109.99 955.88,-102.12 952.53,-108.26"/>
</g>
<!-- ip6_output&#45;&gt;eth_output -->
<g id="edge56" class="edge">
<title>ip6_output&#45;&gt;eth_output</title>
<path fill="none" stroke="black" d="M860.26,-194.24C885.16,-180.06 925.56,-157.04 953.68,-141.02"/>
<polygon fill="black" stroke="black" points="955.74,-143.87 962.7,-135.88 952.28,-137.79 955.74,-143.87"/>
</g>
<!-- ip6_output&#45;&gt;loopback_output -->
<g id="edge58" class="edge">
<title>ip6_output&#45;&gt;loopback_output</title>
<path fill="none" stroke="black" d="M846.87,-224.4C871.75,-272.48 941.55,-407.42 971.44,-465.2"/>
<polygon fill="black" stroke="black" points="968.34,-466.83 976.04,-474.1 974.56,-463.61 968.34,-466.83"/>
</g>
<!-- ip6_hold -->
<g id="node36" class="node">
<title>ip6_hold</title>
<ellipse fill="none" stroke="black" cx="986.3" cy="-228" rx="27" ry="18"/>
<text text-anchor="middle" x="986.3" y="-225.2" font-family="sans" font-size="11.00">ip6_hold</text>
</g>
<!-- ip6_output&#45;&gt;ip6_hold -->
<g id="edge57" class="edge">
<title>ip6_output&#45;&gt;ip6_hold</title>
<path fill="none" stroke="black" d="M868.78,-211.4C892.42,-214.77 925.05,-219.42 949.77,-222.94"/>
<polygon fill="black" stroke="black" points="949.44,-226.43 959.83,-224.37 950.42,-219.5 949.44,-226.43"/>
</g>
<!-- ndp_na_output&#45;&gt;icmp6_output -->
<g id="edge60" class="edge">
<title>ndp_na_output&#45;&gt;icmp6_output</title>
<path fill="none" stroke="black" d="M207.12,-273C272.48,-270.95 398.55,-264.85 504.19,-247 557.86,-237.93 570.91,-232.82 622.68,-216 635.14,-211.95 648.51,-206.96 660.54,-202.22"/>
<polygon fill="black" stroke="black" points="661.87,-205.46 669.86,-198.5 659.27,-198.96 661.87,-205.46"/>
</g>
<!-- control_output -->
<g id="node11" class="node">
<title>control_output</title>
<ellipse fill="none" stroke="black" cx="1121.62" cy="-469" rx="44.51" ry="18"/>
<text text-anchor="middle" x="1121.62" y="-466.2" font-family="sans" font-size="11.00">control_output</text>
</g>
<!-- eth_input -->
<g id="node12" class="node">
<title>eth_input</title>
<ellipse fill="none" stroke="black" cx="161.91" cy="-660" rx="29.12" ry="18"/>
<text text-anchor="middle" x="161.91" y="-657.2" font-family="sans" font-size="11.00">eth_input</text>
</g>
<!-- arp_input -->
<g id="node13" class="node">
<title>arp_input</title>
<ellipse fill="none" stroke="black" cx="836.87" cy="-760" rx="29.12" ry="18"/>
<text text-anchor="middle" x="836.87" y="-757.2" font-family="sans" font-size="11.00">arp_input</text>
</g>
<!-- eth_input&#45;&gt;arp_input -->
<g id="edge11" class="edge">
<title>eth_input&#45;&gt;arp_input</title>
<path fill="none" stroke="black" d="M179.36,-674.51C221.3,-709.94 336.91,-798 450,-798 450,-798 450,-798 582.43,-798 660.52,-798 750.67,-780.14 799.63,-768.91"/>
<polygon fill="black" stroke="black" points="800.49,-772.3 809.43,-766.62 798.9,-765.48 800.49,-772.3"/>
</g>
<!-- eth_input&#45;&gt;ip_input -->
<g id="edge12" class="edge">
<title>eth_input&#45;&gt;ip_input</title>
<path fill="none" stroke="black" d="M191.32,-660C212.77,-660 242.36,-660 265.5,-660"/>
<polygon fill="black" stroke="black" points="265.63,-663.5 275.63,-660 265.63,-656.5 265.63,-663.5"/>
</g>
<!-- eth_input&#45;&gt;ip6_input -->
<g id="edge13" class="edge">
<title>eth_input&#45;&gt;ip6_input</title>
<path fill="none" stroke="black" d="M171.38,-642.72C194.85,-594.85 260.83,-460.27 288.83,-403.15"/>
<polygon fill="black" stroke="black" points="292.04,-404.57 293.3,-394.05 285.75,-401.49 292.04,-404.57"/>
</g>
<!-- arp_input_request -->
<g id="node20" class="node">
<title>arp_input_request</title>
<ellipse fill="none" stroke="black" cx="986.3" cy="-760" rx="54.63" ry="18"/>
<text text-anchor="middle" x="986.3" y="-757.2" font-family="sans" font-size="11.00">arp_input_request</text>
</g>
<!-- arp_input&#45;&gt;arp_input_request -->
<g id="edge20" class="edge">
<title>arp_input&#45;&gt;arp_input_request</title>
<path fill="none" stroke="black" d="M866.3,-760C881.9,-760 901.93,-760 921.08,-760"/>
<polygon fill="black" stroke="black" points="921.29,-763.5 931.29,-760 921.29,-756.5 921.29,-763.5"/>
</g>
<!-- arp_input_reply -->
<g id="node21" class="node">
<title>arp_input_reply</title>
<ellipse fill="none" stroke="black" cx="986.3" cy="-706" rx="47.43" ry="18"/>
<text text-anchor="middle" x="986.3" y="-703.2" font-family="sans" font-size="11.00">arp_input_reply</text>
</g>
<!-- arp_input&#45;&gt;arp_input_reply -->
<g id="edge21" class="edge">
<title>arp_input&#45;&gt;arp_input_reply</title>
<path fill="none" stroke="black" d="M862.55,-750.96C884.21,-743.03 916.21,-731.31 942.1,-721.82"/>
<polygon fill="black" stroke="black" points="943.51,-725.03 951.7,-718.31 941.1,-718.46 943.51,-725.03"/>
</g>
<!-- ip_input&#45;&gt;ip_output -->
<g id="edge33" class="edge">
<title>ip_input&#45;&gt;ip_output</title>
<path fill="none" stroke="black" d="M326.96,-651.96C345.84,-645.78 373.23,-637.55 397.81,-633 548.91,-605.03 591.18,-631.09 742.26,-603 762,-599.33 783.56,-593.26 801.01,-587.8"/>
<polygon fill="black" stroke="black" points="802.3,-591.06 810.76,-584.68 800.17,-584.39 802.3,-591.06"/>
</g>
<!-- ip_forward -->
<g id="node24" class="node">
<title>ip_forward</title>
<ellipse fill="none" stroke="black" cx="451" cy="-752" rx="32.63" ry="18"/>
<text text-anchor="middle" x="451" y="-749.2" font-family="sans" font-size="11.00">ip_forward</text>
</g>
<!-- ip_input&#45;&gt;ip_forward -->
<g id="edge32" class="edge">
<title>ip_input&#45;&gt;ip_forward</title>
<path fill="none" stroke="black" d="M322.71,-672.28C341.69,-684.47 371.68,-703.66 397.81,-720 404.85,-724.4 412.44,-729.09 419.6,-733.48"/>
<polygon fill="black" stroke="black" points="418.01,-736.61 428.37,-738.85 421.67,-730.64 418.01,-736.61"/>
</g>
<!-- ip_input_local -->
<g id="node26" class="node">
<title>ip_input_local</title>
<ellipse fill="none" stroke="black" cx="451" cy="-660" rx="41.49" ry="18"/>
<text text-anchor="middle" x="451" y="-657.2" font-family="sans" font-size="11.00">ip_input_local</text>
</g>
<!-- ip_input&#45;&gt;ip_input_local -->
<g id="edge34" class="edge">
<title>ip_input&#45;&gt;ip_input_local</title>
<path fill="none" stroke="black" d="M329.82,-660C349.16,-660 376.09,-660 399.56,-660"/>
<polygon fill="black" stroke="black" points="399.71,-663.5 409.71,-660 399.71,-656.5 399.71,-663.5"/>
</g>
<!-- ip6_input&#45;&gt;ip6_output -->
<g id="edge52" class="edge">
<title>ip6_input&#45;&gt;ip6_output</title>
<path fill="none" stroke="black" d="M326.55,-367.3C382.45,-343.9 530.69,-283.51 658.68,-246 704.9,-232.46 759.12,-221.18 795.3,-214.29"/>
<polygon fill="black" stroke="black" points="796.27,-217.67 805.46,-212.38 794.98,-210.79 796.27,-217.67"/>
</g>
<!-- ip6_forward -->
<g id="node35" class="node">
<title>ip6_forward</title>
<ellipse fill="none" stroke="black" cx="581.43" cy="-348" rx="35.64" ry="18"/>
<text text-anchor="middle" x="581.43" y="-345.2" font-family="sans" font-size="11.00">ip6_forward</text>
</g>
<!-- ip6_input&#45;&gt;ip6_forward -->
<g id="edge51" class="edge">
<title>ip6_input&#45;&gt;ip6_forward</title>
<path fill="none" stroke="black" d="M330.7,-374.17C378.43,-369.17 478.05,-358.73 536.01,-352.65"/>
<polygon fill="black" stroke="black" points="536.4,-356.13 545.98,-351.61 535.67,-349.17 536.4,-356.13"/>
</g>
<!-- ip6_input_local -->
<g id="node37" class="node">
<title>ip6_input_local</title>
<ellipse fill="none" stroke="black" cx="451" cy="-402" rx="45.09" ry="18"/>
<text text-anchor="middle" x="451" y="-399.2" font-family="sans" font-size="11.00">ip6_input_local</text>
</g>
<!-- ip6_input&#45;&gt;ip6_input_local -->
<g id="edge53" class="edge">
<title>ip6_input&#45;&gt;ip6_input_local</title>
<path fill="none" stroke="black" d="M330.16,-381.53C349.39,-384.81 376,-389.36 399.26,-393.33"/>
<polygon fill="black" stroke="black" points="398.88,-396.82 409.33,-395.05 400.06,-389.92 398.88,-396.82"/>
</g>
<!-- port_tx -->
<g id="node17" class="node">
<title>port_tx</title>
<ellipse fill="none" stroke="black" cx="1121.62" cy="-123" rx="27" ry="18"/>
<text text-anchor="middle" x="1121.62" y="-120.2" font-family="sans" font-size="11.00">port_tx</text>
</g>
<!-- eth_output&#45;&gt;port_tx -->
<g id="edge14" class="edge">
<title>eth_output&#45;&gt;port_tx</title>
<path fill="none" stroke="black" d="M1020.26,-123C1039.6,-123 1064.09,-123 1084.03,-123"/>
<polygon fill="black" stroke="black" points="1084.29,-126.5 1094.29,-123 1084.29,-119.5 1084.29,-126.5"/>
</g>
<!-- loopback_output&#45;&gt;control_output -->
<g id="edge17" class="edge">
<title>loopback_output&#45;&gt;control_output</title>
<path fill="none" stroke="black" d="M1032.06,-484.28C1044.36,-482.16 1057.77,-479.84 1070.36,-477.67"/>
<polygon fill="black" stroke="black" points="1070.97,-481.12 1080.23,-475.97 1069.78,-474.22 1070.97,-481.12"/>
</g>
<!-- port_rx -->
<g id="node19" class="node">
<title>port_rx</title>
<ellipse fill="none" stroke="blue" stroke-width="2" cx="40.16" cy="-660" rx="27" ry="18"/>
<text text-anchor="middle" x="40.16" y="-657.2" font-family="sans" font-size="11.00">port_rx</text>
</g>
<!-- port_rx&#45;&gt;eth_input -->
<g id="edge18" class="edge">
<title>port_rx&#45;&gt;eth_input</title>
<path fill="none" stroke="blue" stroke-width="2" d="M65.97,-654.41C82.74,-653.15 105.16,-652.92 124.01,-653.71"/>
<polygon fill="blue" stroke="blue" stroke-width="2" points="123.87,-657.21 134.05,-654.26 124.25,-650.22 123.87,-657.21"/>
</g>
<!-- port_rx&#45;&gt;eth_input -->
<g id="edge19" class="edge">
<title>port_rx&#45;&gt;eth_input</title>
<path fill="none" stroke="blue" stroke-width="2" d="M65.97,-665.59C82.74,-666.85 105.16,-667.08 124.01,-666.29"/>
<polygon fill="blue" stroke="blue" stroke-width="2" points="124.25,-669.78 134.05,-665.74 123.87,-662.79 124.25,-669.78"/>
</g>
<!-- arp_input_request&#45;&gt;control_output -->
<g id="edge23" class="edge">
<title>arp_input_request&#45;&gt;control_output</title>
<path fill="none" stroke="black" d="M1023.79,-746.82C1030.25,-743.16 1036.41,-738.6 1041.12,-733 1100.07,-662.88 1115.31,-550.05 1119.25,-497.56"/>
<polygon fill="black" stroke="black" points="1122.76,-497.53 1119.93,-487.32 1115.77,-497.06 1122.76,-497.53"/>
</g>
<!-- arp_input_reply&#45;&gt;control_output -->
<g id="edge22" class="edge">
<title>arp_input_reply&#45;&gt;control_output</title>
<path fill="none" stroke="black" d="M1017.87,-692.51C1026.27,-687.64 1034.8,-681.47 1041.12,-674 1086,-620.94 1107.26,-539.66 1115.79,-497.14"/>
<polygon fill="black" stroke="black" points="1119.25,-497.69 1117.69,-487.21 1112.37,-496.37 1119.25,-497.69"/>
</g>
<!-- icmp_input -->
<g id="node22" class="node">
<title>icmp_input</title>
<ellipse fill="none" stroke="black" cx="581.43" cy="-660" rx="33.8" ry="18"/>
<text text-anchor="middle" x="581.43" y="-657.2" font-family="sans" font-size="11.00">icmp_input</text>
</g>
<!-- icmp_input&#45;&gt;control_output -->
<g id="edge27" class="edge">
<title>icmp_input&#45;&gt;control_output</title>
<path fill="none" stroke="black" d="M612.43,-667.16C690.66,-684.02 904.29,-718.26 1041.12,-627 1085.99,-597.07 1106.71,-533.82 1115.3,-497.07"/>
<polygon fill="black" stroke="black" points="1118.78,-497.54 1117.5,-487.02 1111.94,-496.04 1118.78,-497.54"/>
</g>
<!-- icmp_input&#45;&gt;icmp_output -->
<g id="edge26" class="edge">
<title>icmp_input&#45;&gt;icmp_output</title>
<path fill="none" stroke="black" d="M602.29,-645.75C620.97,-632.34 649.18,-612.09 670.4,-596.86"/>
<polygon fill="black" stroke="black" points="672.65,-599.56 678.73,-590.89 668.56,-593.87 672.65,-599.56"/>
</g>
<!-- icmp_output&#45;&gt;ip_output -->
<g id="edge29" class="edge">
<title>icmp_output&#45;&gt;ip_output</title>
<path fill="none" stroke="black" d="M738.55,-576C756.82,-576 778.84,-576 797.31,-576"/>
<polygon fill="black" stroke="black" points="797.44,-579.5 807.44,-576 797.44,-572.5 797.44,-579.5"/>
</g>
<!-- ip_forward&#45;&gt;ip_output -->
<g id="edge30" class="edge">
<title>ip_forward&#45;&gt;ip_output</title>
<path fill="none" stroke="black" d="M483.04,-755.32C518.15,-757.88 576.44,-758.49 622.68,-741 704.22,-710.17 779.96,-636.86 815.18,-599.2"/>
<polygon fill="black" stroke="black" points="817.86,-601.46 822.06,-591.74 812.71,-596.71 817.86,-601.46"/>
</g>
<!-- ip_hold&#45;&gt;control_output -->
<g id="edge31" class="edge">
<title>ip_hold&#45;&gt;control_output</title>
<path fill="none" stroke="black" d="M1008.76,-535.82C1018.72,-530.95 1030.64,-524.9 1041.12,-519 1057.23,-509.92 1074.68,-499.06 1089.11,-489.8"/>
<polygon fill="black" stroke="black" points="1091.17,-492.63 1097.67,-484.26 1087.37,-486.75 1091.17,-492.63"/>
</g>
<!-- ip_input_local&#45;&gt;icmp_input -->
<g id="edge35" class="edge">
<title>ip_input_local&#45;&gt;icmp_input</title>
<path fill="none" stroke="black" d="M492.28,-660C506.61,-660 522.79,-660 537.34,-660"/>
<polygon fill="black" stroke="black" points="537.6,-663.5 547.6,-660 537.6,-656.5 537.6,-663.5"/>
</g>
<!-- ipip_input -->
<g id="node27" class="node">
<title>ipip_input</title>
<ellipse fill="none" stroke="black" cx="581.43" cy="-714" rx="29.7" ry="18"/>
<text text-anchor="middle" x="581.43" y="-711.2" font-family="sans" font-size="11.00">ipip_input</text>
</g>
<!-- ip_input_local&#45;&gt;ipip_input -->
<g id="edge36" class="edge">
<title>ip_input_local&#45;&gt;ipip_input</title>
<path fill="none" stroke="black" d="M481.46,-672.39C500.94,-680.58 526.52,-691.33 546.79,-699.86"/>
<polygon fill="black" stroke="black" points="545.69,-703.19 556.27,-703.84 548.41,-696.74 545.69,-703.19"/>
</g>
<!-- l4_input_local -->
<g id="node28" class="node">
<title>l4_input_local</title>
<ellipse fill="none" stroke="black" cx="581.43" cy="-484" rx="41.49" ry="18"/>
<text text-anchor="middle" x="581.43" y="-481.2" font-family="sans" font-size="11.00">l4_input_local</text>
</g>
<!-- ip_input_local&#45;&gt;l4_input_local -->
<g id="edge37" class="edge">
<title>ip_input_local&#45;&gt;l4_input_local</title>
<path fill="none" stroke="black" d="M464.55,-642.8C487.28,-611.65 535.37,-545.76 561.89,-509.41"/>
<polygon fill="black" stroke="black" points="564.77,-511.41 567.83,-501.27 559.11,-507.28 564.77,-511.41"/>
</g>
<!-- ipip_input&#45;&gt;ip_input -->
<g id="edge64" class="edge">
<title>ipip_input&#45;&gt;ip_input</title>
<path fill="none" stroke="black" d="M551.75,-710.95C515.61,-706.84 451.69,-698.65 397.81,-687 377.43,-682.59 354.97,-676.21 337.1,-670.76"/>
<polygon fill="black" stroke="black" points="338.02,-667.38 327.43,-667.76 335.94,-674.07 338.02,-667.38"/>
</g>
<!-- l4_loopback_output -->
<g id="node38" class="node">
<title>l4_loopback_output</title>
<ellipse fill="none" stroke="black" cx="836.87" cy="-492" rx="58.73" ry="18"/>
<text text-anchor="middle" x="836.87" y="-489.2" font-family="sans" font-size="11.00">l4_loopback_output</text>
</g>
<!-- l4_input_local&#45;&gt;l4_loopback_output -->
<g id="edge66" class="edge">
<title>l4_input_local&#45;&gt;l4_loopback_output</title>
<path fill="none" stroke="black" d="M622.59,-485.27C661.73,-486.5 721.98,-488.4 768.47,-489.87"/>
<polygon fill="black" stroke="black" points="768.36,-493.37 778.47,-490.19 768.58,-486.37 768.36,-493.37"/>
</g>
<!-- ipip_output&#45;&gt;ip_output -->
<g id="edge65" class="edge">
<title>ipip_output&#45;&gt;ip_output</title>
<path fill="none" stroke="black" d="M952.09,-600.34C928.2,-597.77 896.09,-592.56 872,-587.35"/>
<polygon fill="black" stroke="black" points="872.74,-583.93 862.22,-585.13 871.19,-590.76 872.74,-583.93"/>
</g>
<!-- icmp6_input -->
<g id="node30" class="node">
<title>icmp6_input</title>
<ellipse fill="none" stroke="black" cx="581.43" cy="-402" rx="37.4" ry="18"/>
<text text-anchor="middle" x="581.43" y="-399.2" font-family="sans" font-size="11.00">icmp6_input</text>
</g>
<!-- icmp6_input&#45;&gt;control_output -->
<g id="edge46" class="edge">
<title>icmp6_input&#45;&gt;control_output</title>
<path fill="none" stroke="black" d="M618.54,-405.14C696.13,-412.08 884.45,-430.08 1041.12,-454 1051.01,-455.51 1061.55,-457.34 1071.62,-459.2"/>
<polygon fill="black" stroke="black" points="1071.01,-462.65 1081.49,-461.05 1072.31,-455.77 1071.01,-462.65"/>
</g>
<!-- icmp6_input&#45;&gt;icmp6_output -->
<g id="edge42" class="edge">
<title>icmp6_input&#45;&gt;icmp6_output</title>
<path fill="none" stroke="black" d="M607.32,-388.67C612.91,-384.82 618.43,-380.22 622.68,-375 625.39,-371.67 668.12,-264.78 688.64,-213.25"/>
<polygon fill="black" stroke="black" points="691.98,-214.32 692.42,-203.73 685.47,-211.73 691.98,-214.32"/>
</g>
<!-- ndp_ns_input -->
<g id="node32" class="node">
<title>ndp_ns_input</title>
<ellipse fill="none" stroke="black" cx="836.87" cy="-362" rx="40.32" ry="18"/>
<text text-anchor="middle" x="836.87" y="-359.2" font-family="sans" font-size="11.00">ndp_ns_input</text>
</g>
<!-- icmp6_input&#45;&gt;ndp_ns_input -->
<g id="edge43" class="edge">
<title>icmp6_input&#45;&gt;ndp_ns_input</title>
<path fill="none" stroke="black" d="M615.74,-394.47C629.05,-391.6 644.55,-388.44 658.68,-386 702.12,-378.51 751.88,-371.95 787.58,-367.58"/>
<polygon fill="black" stroke="black" points="788.22,-371.03 797.73,-366.36 787.38,-364.08 788.22,-371.03"/>
</g>
<!-- ndp_na_input -->
<g id="node33" class="node">
<title>ndp_na_input</title>
<ellipse fill="none" stroke="black" cx="700.47" cy="-316" rx="40.91" ry="18"/>
<text text-anchor="middle" x="700.47" y="-313.2" font-family="sans" font-size="11.00">ndp_na_input</text>
</g>
<!-- icmp6_input&#45;&gt;ndp_na_input -->
<g id="edge44" class="edge">
<title>icmp6_input&#45;&gt;ndp_na_input</title>
<path fill="none" stroke="black" d="M604.33,-387.68C610.33,-383.65 616.8,-379.22 622.68,-375 632.09,-368.24 653.64,-351.64 671.52,-337.77"/>
<polygon fill="black" stroke="black" points="673.67,-340.53 679.42,-331.63 669.38,-335 673.67,-340.53"/>
</g>
<!-- ndp_rs_input -->
<g id="node34" class="node">
<title>ndp_rs_input</title>
<ellipse fill="none" stroke="black" cx="700.47" cy="-446" rx="39.15" ry="18"/>
<text text-anchor="middle" x="700.47" y="-443.2" font-family="sans" font-size="11.00">ndp_rs_input</text>
</g>
<!-- icmp6_input&#45;&gt;ndp_rs_input -->
<g id="edge45" class="edge">
<title>icmp6_input&#45;&gt;ndp_rs_input</title>
<path fill="none" stroke="black" d="M611.36,-412.88C626.05,-418.4 644.11,-425.19 660.05,-431.18"/>
<polygon fill="black" stroke="black" points="659.06,-434.55 669.65,-434.79 661.52,-427.99 659.06,-434.55"/>
</g>
<!-- icmp6_output&#45;&gt;ip6_output -->
<g id="edge47" class="edge">
<title>icmp6_output&#45;&gt;ip6_output</title>
<path fill="none" stroke="black" d="M739.98,-192.02C757.36,-194.73 777.89,-197.94 795.49,-200.69"/>
<polygon fill="black" stroke="black" points="795.04,-204.16 805.46,-202.25 796.12,-197.25 795.04,-204.16"/>
</g>
<!-- ndp_ns_input&#45;&gt;control_output -->
<g id="edge61" class="edge">
<title>ndp_ns_input&#45;&gt;control_output</title>
<path fill="none" stroke="black" d="M877.38,-361.43C919.91,-362.32 988.53,-368.19 1041.12,-394 1064.98,-405.71 1086.53,-427.06 1101.15,-444"/>
<polygon fill="black" stroke="black" points="1098.66,-446.47 1107.76,-451.89 1104.03,-441.98 1098.66,-446.47"/>
</g>
<!-- ndp_na_input&#45;&gt;control_output -->
<g id="edge59" class="edge">
<title>ndp_na_input&#45;&gt;control_output</title>
<path fill="none" stroke="black" d="M740,-311.38C806.76,-305.37 945.91,-301.78 1041.12,-361 1072.32,-380.41 1095.27,-416.94 1108.28,-442.1"/>
<polygon fill="black" stroke="black" points="1105.18,-443.74 1112.77,-451.13 1111.45,-440.62 1105.18,-443.74"/>
</g>
<!-- ndp_rs_input&#45;&gt;control_output -->
<g id="edge63" class="edge">
<title>ndp_rs_input&#45;&gt;control_output</title>
<path fill="none" stroke="black" d="M739.4,-448.08C814.35,-452.19 981.54,-461.37 1067.43,-466.08"/>
<polygon fill="black" stroke="black" points="1067.32,-469.58 1077.49,-466.63 1067.7,-462.59 1067.32,-469.58"/>
</g>
<!-- ip6_forward&#45;&gt;ip6_output -->
<g id="edge49" class="edge">
<title>ip6_forward&#45;&gt;ip6_output</title>
<path fill="none" stroke="black" d="M601.51,-332.88C622.08,-316.63 652.71,-292.63 658.68,-289 684,-273.62 757.34,-241.02 801.33,-221.88"/>
<polygon fill="black" stroke="black" points="802.99,-224.97 810.77,-217.78 800.2,-218.55 802.99,-224.97"/>
</g>
<!-- ip6_hold&#45;&gt;control_output -->
<g id="edge50" class="edge">
<title>ip6_hold&#45;&gt;control_output</title>
<path fill="none" stroke="black" d="M999.94,-243.58C1011.46,-258.17 1028.53,-280.84 1041.12,-302 1069.08,-349.02 1095.04,-407.42 1109.27,-441.23"/>
<polygon fill="black" stroke="black" points="1106.22,-443.01 1113.3,-450.89 1112.68,-440.32 1106.22,-443.01"/>
</g>
<!-- ip6_input_local&#45;&gt;l4_input_local -->
<g id="edge55" class="edge">
<title>ip6_input_local&#45;&gt;l4_input_local</title>
<path fill="none" stroke="black" d="M475.86,-417.23C496.35,-430.32 526.06,-449.29 548.59,-463.67"/>
<polygon fill="black" stroke="black" points="546.83,-466.7 557.14,-469.13 550.59,-460.8 546.83,-466.7"/>
</g>
<!-- ip6_input_local&#45;&gt;icmp6_input -->
<g id="edge54" class="edge">
<title>ip6_input_local&#45;&gt;icmp6_input</title>
<path fill="none" stroke="black" d="M496.2,-402C508.33,-402 521.52,-402 533.78,-402"/>
<polygon fill="black" stroke="black" points="533.82,-405.5 543.82,-402 533.82,-398.5 533.82,-405.5"/>
</g>
<!-- l4_loopback_output&#45;&gt;loopback_output -->
<g id="edge67" class="edge">
<title>l4_loopback_output&#45;&gt;loopback_output</title>
<path fill="none" stroke="black" d="M895.72,-492C905.54,-492 915.75,-492 925.61,-492"/>
<polygon fill="black" stroke="black" points="925.74,-495.5 935.74,-492 925.74,-488.5 925.74,-495.5"/>
</g>
</g>
</svg>
