<?xml version="1.0" encoding="UTF-8" standalone="no"?>
<!DOCTYPE svg PUBLIC "-//W3C//DTD SVG 1.1//EN"
 "http://www.w3.org/Graphics/SVG/1.1/DTD/svg11.dtd">
<!-- Generated by graphviz version 2.44.0 (0)
 -->
<!-- Title: gr&#45;0002 Pages: 1 -->
<svg width="1795pt" height="879pt"
 viewBox="0.00 0.00 1794.81 879.00" xmlns="http://www.w3.org/2000/svg" xmlns:xlink="http://www.w3.org/1999/xlink">
<g id="graph0" class="graph" transform="scale(1 1) rotate(0) translate(4 875)">
<title>gr&#45;0002</title>
<polygon fill="white" stroke="transparent" points="-4,4 -4,-875 1790.81,-875 1790.81,4 -4,4"/>
<!-- control_input -->
<g id="node1" class="node">
<title>control_input</title>
<ellipse fill="none" stroke="blue" stroke-width="2" cx="40.16" cy="-276" rx="40.32" ry="18"/>
<text text-anchor="middle" x="40.16" y="-273.2" font-family="sans" font-size="11.00">control_input</text>
</g>
<!-- loopback_input -->
<g id="node2" class="node">
<title>loopback_input</title>
<ellipse fill="none" stroke="black" cx="161.91" cy="-437" rx="45.68" ry="18"/>
<text text-anchor="middle" x="161.91" y="-434.2" font-family="sans" font-size="11.00">loopback_input</text>
</g>
<!-- control_input&#45;&gt;loopback_input -->
<g id="edge1" class="edge">
<title>control_input&#45;&gt;loopback_input</title>
<path fill="none" stroke="blue" stroke-width="2" d="M53.98,-293.23C75.02,-321.53 117.03,-378 141.66,-411.12"/>
<polygon fill="blue" stroke="blue" stroke-width="2" points="139.05,-413.47 147.82,-419.41 144.67,-409.29 139.05,-413.47"/>
</g>
<!-- arp_output_request -->
<g id="node3" class="node">
<title>arp_output_request</title>
<ellipse fill="none" stroke="black" cx="697.21" cy="-811" rx="59.31" ry="18"/>
<text text-anchor="middle" x="697.21" y="-808.2" font-family="sans" font-size="11.00">arp_output_request</text>
</g>
<!-- control_input&#45;&gt;arp_output_request -->
<g id="edge2" class="edge">
<title>control_input&#45;&gt;arp_output_request</title>
<path fill="none" stroke="blue" stroke-width="2" d="M41.11,-294.07C41.25,-375.7 46.16,-709.15 116.32,-779 173.4,-835.83 215.14,-805 295.69,-805 295.69,-805 295.69,-805 431.92,-805 498.64,-805 574.82,-806.94 628.19,-808.61"/>
<polygon fill="blue" stroke="blue" stroke-width="2" points="628.11,-812.11 638.22,-808.93 628.33,-805.11 628.11,-812.11"/>
</g>
<!-- icmp_local_send -->
<g id="node4" class="node">
<title>icmp_local_send</title>
<ellipse fill="none" stroke="black" cx="697.21" cy="-345" rx="49.28" ry="18"/>
<text text-anchor="middle" x="697.21" y="-342.2" font-family="sans" font-size="11.00">icmp_local_send</text>
</g>
<!-- control_input&#45;&gt;icmp_local_send -->
<g id="edge3" class="edge">
<title>control_input&#45;&gt;icmp_local_send</title>
<path fill="none" stroke="blue" stroke-width="2" d="M65.43,-290.29C79.78,-298.14 98.57,-307.39 116.32,-313 193.25,-337.32 215,-341 295.69,-341 295.69,-341 295.69,-341 431.92,-341 502.62,-341 583.95,-342.45 637.51,-343.6"/>
<polygon fill="blue" stroke="blue" stroke-width="2" points="637.43,-347.1 647.5,-343.82 637.58,-340.1 637.43,-347.1"/>
</g>
<!-- icmp6_local_send -->
<g id="node5" class="node">
<title>icmp6_local_send</title>
<ellipse fill="none" stroke="black" cx="296.69" cy="-197" rx="53.37" ry="18"/>
<text text-anchor="middle" x="296.69" y="-194.2" font-family="sans" font-size="11.00">icmp6_local_send</text>
</g>
<!-- control_input&#45;&gt;icmp6_local_send -->
<g id="edge4" class="edge">
<title>control_input&#45;&gt;icmp6_local_send</title>
<path fill="none" stroke="blue" stroke-width="2" d="M61.09,-260.57C75.62,-250.08 96.22,-236.74 116.32,-229 154.07,-214.46 198.86,-206.46 234.24,-202.1"/>
<polygon fill="blue" stroke="blue" stroke-width="2" points="234.9,-205.54 244.42,-200.91 234.09,-198.59 234.9,-205.54"/>
</g>
<!-- ndp_ns_output -->
<g id="node6" class="node">
<title>ndp_ns_output</title>
<ellipse fill="none" stroke="black" cx="430.92" cy="-105" rx="44.51" ry="18"/>
<text text-anchor="middle" x="430.92" y="-102.2" font-family="sans" font-size="11.00">ndp_ns_output</text>
</g>
<!-- control_input&#45;&gt;ndp_ns_output -->
<g id="edge5" class="edge">
<title>control_input&#45;&gt;ndp_ns_output</title>
<path fill="none" stroke="blue" stroke-width="2" d="M45.17,-257.85C53,-227.17 73.42,-165.63 116.32,-137 196.05,-83.8 313.46,-88.42 379.68,-96.64"/>
<polygon fill="blue" stroke="blue" stroke-width="2" points="379.48,-100.14 389.85,-97.98 380.39,-93.2 379.48,-100.14"/>
</g>
<!-- ip_output -->
<g id="node7" class="node">
<title>ip_output</title>
<ellipse fill="none" stroke="black" cx="1220.57" cy="-498" rx="29.12" ry="18"/>
<text text-anchor="middle" x="1220.57" y="-495.2" font-family="sans" font-size="11.00">ip_output</text>
</g>
<!-- control_input&#45;&gt;ip_output -->
<g id="edge6" class="edge">
<title>control_input&#45;&gt;ip_output</title>
<path fill="none" stroke="blue" stroke-width="2" d="M78.59,-281.51C128.13,-288.31 218.26,-299 295.69,-299 295.69,-299 295.69,-299 973.73,-299 1045.98,-299 1069.47,-310.96 1125.96,-356 1165.13,-387.23 1193.49,-439.42 1208.17,-471.09"/>
<polygon fill="blue" stroke="blue" stroke-width="2" points="1205.16,-472.91 1212.46,-480.59 1211.54,-470.04 1205.16,-472.91"/>
</g>
<!-- arp_output_reply -->
<g id="node8" class="node">
<title>arp_output_reply</title>
<ellipse fill="none" stroke="black" cx="843.93" cy="-773" rx="51.62" ry="18"/>
<text text-anchor="middle" x="843.93" y="-770.2" font-family="sans" font-size="11.00">arp_output_reply</text>
</g>
<!-- control_input&#45;&gt;arp_output_reply -->
<g id="edge7" class="edge">
<title>control_input&#45;&gt;arp_output_reply</title>
<path fill="none" stroke="blue" stroke-width="2" d="M41.81,-294.16C44.81,-368.47 59.78,-648.44 116.32,-712 171.58,-774.1 212.56,-765 295.69,-765 295.69,-765 295.69,-765 558.01,-765 635.62,-765 725.07,-768 782.73,-770.33"/>
<polygon fill="blue" stroke="blue" stroke-width="2" points="782.62,-773.83 792.76,-770.74 782.91,-766.83 782.62,-773.83"/>
</g>
<!-- ip6_output -->
<g id="node9" class="node">
<title>ip6_output</title>
<ellipse fill="none" stroke="black" cx="1475.47" cy="-343" rx="32.63" ry="18"/>
<text text-anchor="middle" x="1475.47" y="-340.2" font-family="sans" font-size="11.00">ip6_output</text>
</g>
<!-- control_input&#45;&gt;ip6_output -->
<g id="edge8" class="edge">
<title>control_input&#45;&gt;ip6_output</title>
<path fill="none" stroke="blue" stroke-width="2" d="M72.82,-265.29C120.86,-255.06 215.13,-243 295.69,-243 295.69,-243 295.69,-243 1221.57,-243 1309.54,-243 1405.09,-292.34 1449.35,-321.96"/>
<polygon fill="blue" stroke="blue" stroke-width="2" points="1447.54,-324.96 1457.75,-327.77 1451.52,-319.2 1447.54,-324.96"/>
</g>
<!-- control_input&#45;&gt;ip6_output -->
<g id="edge10" class="edge">
<title>control_input&#45;&gt;ip6_output</title>
<path fill="none" stroke="blue" stroke-width="2" d="M80.73,-276.21C130.69,-271.83 219.35,-261 295.69,-261 295.69,-261 295.69,-261 1221.57,-261 1303.6,-261 1392.21,-303.9 1439.7,-327.88"/>
<polygon fill="blue" stroke="blue" stroke-width="2" points="1438.13,-331.01 1448.63,-332.4 1441.29,-324.76 1438.13,-331.01"/>
</g>
<!-- ndp_na_output -->
<g id="node10" class="node">
<title>ndp_na_output</title>
<ellipse fill="none" stroke="black" cx="557.01" cy="-159" rx="45.09" ry="18"/>
<text text-anchor="middle" x="557.01" y="-156.2" font-family="sans" font-size="11.00">ndp_na_output</text>
</g>
<!-- control_input&#45;&gt;ndp_na_output -->
<g id="edge9" class="edge">
<title>control_input&#45;&gt;ndp_na_output</title>
<path fill="none" stroke="blue" stroke-width="2" d="M53.59,-259C67.1,-241.77 90.28,-215.62 116.32,-201 241.45,-130.73 418.6,-140.75 504.85,-151.23"/>
<polygon fill="blue" stroke="blue" stroke-width="2" points="504.55,-154.72 514.91,-152.5 505.43,-147.77 504.55,-154.72"/>
</g>
<!-- ip_input -->
<g id="node14" class="node">
<title>ip_input</title>
<ellipse fill="none" stroke="black" cx="697.21" cy="-574" rx="27" ry="18"/>
<text text-anchor="middle" x="697.21" y="-571.2" font-family="sans" font-size="11.00">ip_input</text>
</g>
<!-- loopback_input&#45;&gt;ip_input -->
<g id="edge16" class="edge">
<title>loopback_input&#45;&gt;ip_input</title>
<path fill="none" stroke="black" d="M206.42,-441.35C286.58,-450.3 462.2,-474.23 602.06,-524 625.37,-532.3 650.01,-545.56 668.24,-556.35"/>
<polygon fill="black" stroke="black" points="666.77,-559.55 677.14,-561.72 670.39,-553.56 666.77,-559.55"/>
</g>
<!-- ip6_input -->
<g id="node15" class="node">
<title>ip6_input</title>
<ellipse fill="none" stroke="black" cx="296.69" cy="-513" rx="28.44" ry="18"/>
<text text-anchor="middle" x="296.69" y="-510.2" font-family="sans" font-size="11.00">ip6_input</text>
</g>
<!-- loopback_input&#45;&gt;ip6_input -->
<g id="edge17" class="edge">
<title>loopback_input&#45;&gt;ip6_input</title>
<path fill="none" stroke="black" d="M188.51,-451.65C210.73,-464.37 242.9,-482.79 266.2,-496.12"/>
<polygon fill="black" stroke="black" points="264.54,-499.21 274.96,-501.14 268.02,-493.13 264.54,-499.21"/>
</g>
<!-- eth_output -->
<g id="node16" class="node">
<title>eth_output</title>
<ellipse fill="none" stroke="black" cx="1606.99" cy="-793" rx="33.8" ry="18"/>
<text text-anchor="middle" x="1606.99" y="-790.2" font-family="sans" font-size="11.00">eth_output</text>
</g>
<!-- arp_output_request&#45;&gt;eth_output -->
<g id="edge26" class="edge">
<title>arp_output_request&#45;&gt;eth_output</title>
<path fill="none" stroke="black" d="M755.83,-813.66C811.17,-815.99 897.15,-819 971.73,-819 971.73,-819 971.73,-819 1357.98,-819 1431.14,-819 1515.77,-807.67 1564.86,-799.97"/>
<polygon fill="black" stroke="black" points="1565.46,-803.42 1574.78,-798.39 1564.35,-796.51 1565.46,-803.42"/>
</g>
<!-- icmp_output -->
<g id="node24" class="node">
<title>icmp_output</title>
<ellipse fill="none" stroke="black" cx="1087.97" cy="-589" rx="37.98" ry="18"/>
<text text-anchor="middle" x="1087.97" y="-586.2" font-family="sans" font-size="11.00">icmp_output</text>
</g>
<!-- icmp_local_send&#45;&gt;icmp_output -->
<g id="edge29" class="edge">
<title>icmp_local_send&#45;&gt;icmp_output</title>
<path fill="none" stroke="black" d="M722.83,-360.45C790.67,-403.03 980.3,-522.05 1055.59,-569.3"/>
<polygon fill="black" stroke="black" points="1053.86,-572.35 1064.19,-574.7 1057.58,-566.42 1053.86,-572.35"/>
</g>
<!-- icmp6_output -->
<g id="node33" class="node">
<title>icmp6_output</title>
<ellipse fill="none" stroke="black" cx="1356.98" cy="-197" rx="41.58" ry="18"/>
<text text-anchor="middle" x="1356.98" y="-194.2" font-family="sans" font-size="11.00">icmp6_output</text>
</g>
<!-- icmp6_local_send&#45;&gt;icmp6_output -->
<g id="edge50" class="edge">
<title>icmp6_local_send&#45;&gt;icmp6_output</title>
<path fill="none" stroke="black" d="M349.62,-199.55C401.78,-201.89 484.44,-205 556.01,-205 556.01,-205 556.01,-205 1088.97,-205 1164.19,-205 1251.27,-201.79 1304.99,-199.44"/>
<polygon fill="black" stroke="black" points="1305.44,-202.92 1315.28,-198.98 1305.13,-195.93 1305.44,-202.92"/>
</g>
<!-- ndp_ns_output&#45;&gt;icmp6_output -->
<g id="edge67" class="edge">
<title>ndp_ns_output&#45;&gt;icmp6_output</title>
<path fill="none" stroke="black" d="M475.1,-107.26C549.97,-110.99 708.71,-118 842.93,-118 842.93,-118 842.93,-118 1088.97,-118 1175.55,-118 1197.37,-131.69 1279.19,-160 1293.48,-164.95 1308.6,-171.84 1321.61,-178.34"/>
<polygon fill="black" stroke="black" points="1320.16,-181.53 1330.66,-182.97 1323.35,-175.3 1320.16,-181.53"/>
</g>
<!-- ip_output&#45;&gt;eth_output -->
<g id="edge39" class="edge">
<title>ip_output&#45;&gt;eth_output</title>
<path fill="none" stroke="black" d="M1233.14,-514.51C1262.46,-555.29 1343.88,-661.98 1434.77,-724 1475.9,-752.07 1530.19,-771.49 1566.5,-782.41"/>
<polygon fill="black" stroke="black" points="1565.66,-785.81 1576.24,-785.27 1567.63,-779.1 1565.66,-785.81"/>
</g>
<!-- loopback_output -->
<g id="node19" class="node">
<title>loopback_output</title>
<ellipse fill="none" stroke="black" cx="1606.99" cy="-504" rx="50.45" ry="18"/>
<text text-anchor="middle" x="1606.99" y="-501.2" font-family="sans" font-size="11.00">loopback_output</text>
</g>
<!-- ip_output&#45;&gt;loopback_output -->
<g id="edge41" class="edge">
<title>ip_output&#45;&gt;loopback_output</title>
<path fill="none" stroke="black" d="M1247.57,-505.09C1266.22,-509.8 1292.05,-515.56 1315.19,-518 1396.39,-526.58 1490.91,-518.75 1549.61,-511.81"/>
<polygon fill="black" stroke="black" points="1550.28,-515.26 1559.78,-510.58 1549.43,-508.31 1550.28,-515.26"/>
</g>
<!-- ip_hold -->
<g id="node26" class="node">
<title>ip_hold</title>
<ellipse fill="none" stroke="black" cx="1356.98" cy="-437" rx="27" ry="18"/>
<text text-anchor="middle" x="1356.98" y="-434.2" font-family="sans" font-size="11.00">ip_hold</text>
</g>
<!-- ip_output&#45;&gt;ip_hold -->
<g id="edge40" class="edge">
<title>ip_output&#45;&gt;ip_hold</title>
<path fill="none" stroke="black" d="M1244.68,-487.51C1266.81,-477.47 1300.36,-462.24 1324.84,-451.13"/>
<polygon fill="black" stroke="black" points="1326.4,-454.27 1334.06,-446.95 1323.51,-447.89 1326.4,-454.27"/>
</g>
<!-- ipip_output -->
<g id="node30" class="node">
<title>ipip_output</title>
<ellipse fill="none" stroke="black" cx="1356.98" cy="-491" rx="34.38" ry="18"/>
<text text-anchor="middle" x="1356.98" y="-488.2" font-family="sans" font-size="11.00">ipip_output</text>
</g>
<!-- ip_output&#45;&gt;ipip_output -->
<g id="edge42" class="edge">
<title>ip_output&#45;&gt;ipip_output</title>
<path fill="none" stroke="black" d="M1247.81,-491.15C1266.45,-488.85 1291.9,-487.24 1313.43,-486.89"/>
<polygon fill="black" stroke="black" points="1313.66,-490.39 1323.64,-486.82 1313.61,-483.39 1313.66,-490.39"/>
</g>
<!-- sr6_headend -->
<g id="node31" class="node">
<title>sr6_headend</title>
<ellipse fill="none" stroke="black" cx="1356.98" cy="-383" rx="39.15" ry="18"/>
<text text-anchor="middle" x="1356.98" y="-380.2" font-family="sans" font-size="11.00">sr6_headend</text>
</g>
<!-- ip_output&#45;&gt;sr6_headend -->
<g id="edge43" class="edge">
<title>ip_output&#45;&gt;sr6_headend</title>
<path fill="none" stroke="black" d="M1236.42,-482.52C1254.3,-464.25 1285.63,-433.4 1315.19,-410 1318.09,-407.7 1321.18,-405.41 1324.32,-403.18"/>
<polygon fill="black" stroke="black" points="1326.37,-406.02 1332.63,-397.47 1322.4,-400.25 1326.37,-406.02"/>
</g>
<!-- arp_output_reply&#45;&gt;eth_output -->
<g id="edge25" class="edge">
<title>arp_output_reply&#45;&gt;eth_output</title>
<path fill="none" stroke="black" d="M894.98,-775.62C943.91,-777.95 1020.54,-781 1086.97,-781 1086.97,-781 1086.97,-781 1357.98,-781 1430.22,-781 1514.16,-786.14 1563.52,-789.69"/>
<polygon fill="black" stroke="black" points="1563.29,-793.19 1573.51,-790.43 1563.8,-786.2 1563.29,-793.19"/>
</g>
<!-- ip6_output&#45;&gt;eth_output -->
<g id="edge60" class="edge">
<title>ip6_output&#45;&gt;eth_output</title>
<path fill="none" stroke="black" d="M1477.6,-361.34C1482.36,-433.9 1502.96,-700.1 1552.17,-766 1556.34,-771.57 1561.97,-776.07 1568.02,-779.68"/>
<polygon fill="black" stroke="black" points="1566.59,-782.88 1577.08,-784.35 1569.8,-776.65 1566.59,-782.88"/>
</g>
<!-- ip6_output&#45;&gt;loopback_output -->
<g id="edge62" class="edge">
<title>ip6_output&#45;&gt;loopback_output</title>
<path fill="none" stroke="black" d="M1489.6,-359.32C1512.25,-387.48 1558.8,-445.34 1585.66,-478.73"/>
<polygon fill="black" stroke="black" points="1583.05,-481.06 1592.04,-486.66 1588.5,-476.68 1583.05,-481.06"/>
</g>
<!-- ip6_output&#45;&gt;sr6_headend -->
<g id="edge63" class="edge">
<title>ip6_output&#45;&gt;sr6_headend</title>
<path fill="none" stroke="black" d="M1452.4,-356C1438.61,-361.91 1420.34,-368.58 1403.55,-373.96"/>
<polygon fill="black" stroke="black" points="1402.39,-370.65 1393.88,-376.96 1404.47,-377.34 1402.39,-370.65"/>
</g>
<!-- ip6_hold -->
<g id="node38" class="node">
<title>ip6_hold</title>
<ellipse fill="none" stroke="black" cx="1606.99" cy="-368" rx="27" ry="18"/>
<text text-anchor="middle" x="1606.99" y="-365.2" font-family="sans" font-size="11.00">ip6_hold</text>
</g>
<!-- ip6_output&#45;&gt;ip6_hold -->
<g id="edge61" class="edge">
<title>ip6_output&#45;&gt;ip6_hold</title>
<path fill="none" stroke="black" d="M1506.51,-348.8C1525.73,-352.51 1550.74,-357.34 1570.87,-361.22"/>
<polygon fill="black" stroke="black" points="1570.42,-364.7 1580.9,-363.16 1571.75,-357.83 1570.42,-364.7"/>
</g>
<!-- ndp_na_output&#45;&gt;icmp6_output -->
<g id="edge65" class="edge">
<title>ndp_na_output&#45;&gt;icmp6_output</title>
<path fill="none" stroke="black" d="M602.43,-159.25C658.48,-159.55 757.85,-160 842.93,-160 842.93,-160 842.93,-160 1088.97,-160 1166.85,-160 1256.3,-175.63 1309.37,-186.58"/>
<polygon fill="black" stroke="black" points="1308.98,-190.07 1319.49,-188.7 1310.42,-183.22 1308.98,-190.07"/>
</g>
<!-- control_output -->
<g id="node11" class="node">
<title>control_output</title>
<ellipse fill="none" stroke="black" cx="1742.31" cy="-375" rx="44.51" ry="18"/>
<text text-anchor="middle" x="1742.31" y="-372.2" font-family="sans" font-size="11.00">control_output</text>
</g>
<!-- eth_input -->
<g id="node12" class="node">
<title>eth_input</title>
<ellipse fill="none" stroke="black" cx="161.91" cy="-685" rx="29.12" ry="18"/>
<text text-anchor="middle" x="161.91" y="-682.2" font-family="sans" font-size="11.00">eth_input</text>
</g>
<!-- arp_input -->
<g id="node13" class="node">
<title>arp_input</title>
<ellipse fill="none" stroke="black" cx="1475.47" cy="-697" rx="29.12" ry="18"/>
<text text-anchor="middle" x="1475.47" y="-694.2" font-family="sans" font-size="11.00">arp_input</text>
</g>
<!-- eth_input&#45;&gt;arp_input -->
<g id="edge11" class="edge">
<title>eth_input&#45;&gt;arp_input</title>
<path fill="none" stroke="black" d="M189.22,-691.94C236.87,-703.86 340.76,-727 429.92,-727 429.92,-727 429.92,-727 698.21,-727 871.14,-727 914.04,-743 1086.97,-743 1086.97,-743 1086.97,-743 1221.57,-743 1300.32,-743 1390.66,-721.15 1439.2,-707.57"/>
<polygon fill="black" stroke="black" points="1440.24,-710.91 1448.9,-704.8 1438.33,-704.17 1440.24,-710.91"/>
</g>
<!-- eth_input&#45;&gt;ip_input -->
<g id="edge12" class="edge">
<title>eth_input&#45;&gt;ip_input</title>
<path fill="none" stroke="black" d="M191.34,-685.72C262.64,-686.65 453.98,-683.73 602.06,-632 627.29,-623.18 652.92,-606.8 671.06,-593.69"/>
<polygon fill="black" stroke="black" points="673.38,-596.33 679.33,-587.57 669.21,-590.71 673.38,-596.33"/>
</g>
<!-- eth_input&#45;&gt;ip6_input -->
<g id="edge13" class="edge">
<title>eth_input&#45;&gt;ip6_input</title>
<path fill="none" stroke="black" d="M175.4,-668.82C198.83,-638.47 249.48,-572.86 276.99,-537.22"/>
<polygon fill="black" stroke="black" points="279.79,-539.32 283.13,-529.26 274.25,-535.04 279.79,-539.32"/>
</g>
<!-- arp_input_request -->
<g id="node21" class="node">
<title>arp_input_request</title>
<ellipse fill="none" stroke="black" cx="1606.99" cy="-685" rx="54.63" ry="18"/>
<text text-anchor="middle" x="1606.99" y="-682.2" font-family="sans" font-size="11.00">arp_input_request</text>
</g>
<!-- arp_input&#45;&gt;arp_input_request -->
<g id="edge21" class="edge">
<title>arp_input&#45;&gt;arp_input_request</title>
<path fill="none" stroke="black" d="M1504.57,-694.4C1516.19,-693.32 1530.15,-692.03 1543.94,-690.75"/>
<polygon fill="black" stroke="black" points="1544.29,-694.23 1553.92,-689.82 1543.64,-687.26 1544.29,-694.23"/>
</g>
<!-- arp_input_reply -->
<g id="node22" class="node">
<title>arp_input_reply</title>
<ellipse fill="none" stroke="black" cx="1606.99" cy="-739" rx="47.43" ry="18"/>
<text text-anchor="middle" x="1606.99" y="-736.2" font-family="sans" font-size="11.00">arp_input_reply</text>
</g>
<!-- arp_input&#45;&gt;arp_input_reply -->
<g id="edge22" class="edge">
<title>arp_input&#45;&gt;arp_input_reply</title>
<path fill="none" stroke="black" d="M1501.75,-705.2C1518.5,-710.63 1540.95,-717.91 1560.73,-724.32"/>
<polygon fill="black" stroke="black" points="1559.89,-727.73 1570.48,-727.49 1562.05,-721.07 1559.89,-727.73"/>
</g>
<!-- ip_input&#45;&gt;ip_output -->
<g id="edge34" class="edge">
<title>ip_input&#45;&gt;ip_output</title>
<path fill="none" stroke="black" d="M716.67,-561.11C734.95,-549.11 764.22,-531.93 792.37,-524 931.38,-484.86 1105.56,-490.16 1181.37,-494.99"/>
<polygon fill="black" stroke="black" points="1181.19,-498.48 1191.41,-495.66 1181.66,-491.5 1181.19,-498.48"/>
</g>
<!-- ip_forward -->
<g id="node25" class="node">
<title>ip_forward</title>
<ellipse fill="none" stroke="black" cx="843.93" cy="-551" rx="32.63" ry="18"/>
<text text-anchor="middle" x="843.93" y="-548.2" font-family="sans" font-size="11.00">ip_forward</text>
</g>
<!-- ip_input&#45;&gt;ip_forward -->
<g id="edge33" class="edge">
<title>ip_input&#45;&gt;ip_forward</title>
<path fill="none" stroke="black" d="M723.75,-569.94C745.5,-566.48 777.15,-561.45 802.36,-557.45"/>
<polygon fill="black" stroke="black" points="803.05,-560.88 812.37,-555.86 801.95,-553.97 803.05,-560.88"/>
</g>
<!-- ip_input_local -->
<g id="node27" class="node">
<title>ip_input_local</title>
<ellipse fill="none" stroke="black" cx="843.93" cy="-643" rx="41.49" ry="18"/>
<text text-anchor="middle" x="843.93" y="-640.2" font-family="sans" font-size="11.00">ip_input_local</text>
</g>
<!-- ip_input&#45;&gt;ip_input_local -->
<g id="edge35" class="edge">
<title>ip_input&#45;&gt;ip_input_local</title>
<path fill="none" stroke="black" d="M719.57,-584.18C742.28,-595.01 778.65,-612.35 806.02,-625.4"/>
<polygon fill="black" stroke="black" points="804.76,-628.68 815.29,-629.82 807.77,-622.36 804.76,-628.68"/>
</g>
<!-- ip6_input&#45;&gt;ip6_output -->
<g id="edge54" class="edge">
<title>ip6_input&#45;&gt;ip6_output</title>
<path fill="none" stroke="black" d="M323.63,-507.44C363.81,-499 443.61,-482.87 511.96,-473 783.47,-433.8 856.58,-461.84 1125.96,-410 1211.84,-393.47 1229.14,-371.63 1315.19,-356 1354.55,-348.85 1400.11,-345.63 1432.39,-344.18"/>
<polygon fill="black" stroke="black" points="1432.95,-347.66 1442.8,-343.75 1432.67,-340.67 1432.95,-347.66"/>
</g>
<!-- ip6_forward -->
<g id="node37" class="node">
<title>ip6_forward</title>
<ellipse fill="none" stroke="black" cx="1087.97" cy="-383" rx="35.64" ry="18"/>
<text text-anchor="middle" x="1087.97" y="-380.2" font-family="sans" font-size="11.00">ip6_forward</text>
</g>
<!-- ip6_input&#45;&gt;ip6_forward -->
<g id="edge53" class="edge">
<title>ip6_input&#45;&gt;ip6_forward</title>
<path fill="none" stroke="black" d="M317.08,-500.16C334.59,-488.92 361.28,-472.61 385.87,-461 439.81,-435.52 454.05,-429.31 511.96,-415 678.25,-373.91 724.22,-374.32 895.49,-377 945.49,-377.78 1002.81,-379.72 1041.61,-381.18"/>
<polygon fill="black" stroke="black" points="1041.91,-384.69 1052.04,-381.58 1042.18,-377.7 1041.91,-384.69"/>
</g>
<!-- ip6_input_local -->
<g id="node39" class="node">
<title>ip6_input_local</title>
<ellipse fill="none" stroke="black" cx="430.92" cy="-559" rx="45.09" ry="18"/>
<text text-anchor="middle" x="430.92" y="-556.2" font-family="sans" font-size="11.00">ip6_input_local</text>
</g>
<!-- ip6_input&#45;&gt;ip6_input_local -->
<g id="edge55" class="edge">
<title>ip6_input&#45;&gt;ip6_input_local</title>
<path fill="none" stroke="black" d="M321.94,-521.44C340.04,-527.73 365.26,-536.51 386.77,-543.99"/>
<polygon fill="black" stroke="black" points="385.76,-547.35 396.36,-547.33 388.06,-540.73 385.76,-547.35"/>
</g>
<!-- port_tx -->
<g id="node17" class="node">
<title>port_tx</title>
<ellipse fill="none" stroke="black" cx="1742.31" cy="-831" rx="27" ry="18"/>
<text text-anchor="middle" x="1742.31" y="-828.2" font-family="sans" font-size="11.00">port_tx</text>
</g>
<!-- eth_output&#45;&gt;port_tx -->
<g id="edge14" class="edge">
<title>eth_output&#45;&gt;port_tx</title>
<path fill="none" stroke="black" d="M1636.92,-801.25C1657.54,-807.12 1685.36,-815.05 1707.09,-821.25"/>
<polygon fill="black" stroke="black" points="1706.33,-824.67 1716.9,-824.04 1708.25,-817.94 1706.33,-824.67"/>
</g>
<!-- l1_xconnect -->
<g id="node18" class="node">
<title>l1_xconnect</title>
<ellipse fill="none" stroke="black" cx="296.69" cy="-853" rx="36.23" ry="18"/>
<text text-anchor="middle" x="296.69" y="-850.2" font-family="sans" font-size="11.00">l1_xconnect</text>
</g>
<!-- l1_xconnect&#45;&gt;port_tx -->
<g id="edge15" class="edge">
<title>l1_xconnect&#45;&gt;port_tx</title>
<path fill="none" stroke="black" d="M333.2,-853.9C383,-855.08 476.4,-857 556.01,-857 556.01,-857 556.01,-857 1476.47,-857 1558.85,-857 1654.96,-844.39 1705.71,-836.73"/>
<polygon fill="black" stroke="black" points="1706.47,-840.15 1715.82,-835.18 1705.41,-833.23 1706.47,-840.15"/>
</g>
<!-- loopback_output&#45;&gt;control_output -->
<g id="edge18" class="edge">
<title>loopback_output&#45;&gt;control_output</title>
<path fill="none" stroke="black" d="M1625.42,-487.14C1648.8,-464.51 1690.45,-424.21 1716.93,-398.59"/>
<polygon fill="black" stroke="black" points="1719.54,-400.93 1724.3,-391.46 1714.68,-395.9 1719.54,-400.93"/>
</g>
<!-- port_rx -->
<g id="node20" class="node">
<title>port_rx</title>
<ellipse fill="none" stroke="blue" stroke-width="2" cx="40.16" cy="-784" rx="27" ry="18"/>
<text text-anchor="middle" x="40.16" y="-781.2" font-family="sans" font-size="11.00">port_rx</text>
</g>
<!-- port_rx&#45;&gt;eth_input -->
<g id="edge19" class="edge">
<title>port_rx&#45;&gt;eth_input</title>
<path fill="none" stroke="blue" stroke-width="2" d="M57.81,-770.23C78.05,-753.51 112.39,-725.12 135.83,-705.74"/>
<polygon fill="blue" stroke="blue" stroke-width="2" points="138.15,-708.36 143.63,-699.29 133.69,-702.96 138.15,-708.36"/>
</g>
<!-- port_rx&#45;&gt;l1_xconnect -->
<g id="edge20" class="edge">
<title>port_rx&#45;&gt;l1_xconnect</title>
<path fill="none" stroke="blue" stroke-width="2" d="M61.66,-795.24C76.46,-802.93 97.14,-812.82 116.32,-819 161.13,-833.43 214.33,-842.56 251.09,-847.69"/>
<polygon fill="blue" stroke="blue" stroke-width="2" points="250.62,-851.15 261,-849.02 251.56,-844.22 250.62,-851.15"/>
</g>
<!-- arp_input_request&#45;&gt;control_output -->
<g id="edge24" class="edge">
<title>arp_input_request&#45;&gt;control_output</title>
<path fill="none" stroke="black" d="M1640.96,-670.7C1648.71,-666.02 1656.3,-660.15 1661.8,-653 1720.85,-576.36 1736.05,-457.56 1739.96,-403.51"/>
<polygon fill="black" stroke="black" points="1743.47,-403.5 1740.62,-393.3 1736.48,-403.05 1743.47,-403.5"/>
</g>
<!-- arp_input_reply&#45;&gt;control_output -->
<g id="edge23" class="edge">
<title>arp_input_reply&#45;&gt;control_output</title>
<path fill="none" stroke="black" d="M1642.81,-727.12C1649.96,-723.27 1656.81,-718.32 1661.8,-712 1735.99,-618.12 1742.88,-466.49 1742.27,-403.68"/>
<polygon fill="black" stroke="black" points="1745.76,-403.29 1742.09,-393.35 1738.76,-403.41 1745.76,-403.29"/>
</g>
<!-- icmp_input -->
<g id="node23" class="node">
<title>icmp_input</title>
<ellipse fill="none" stroke="black" cx="972.73" cy="-643" rx="33.8" ry="18"/>
<text text-anchor="middle" x="972.73" y="-640.2" font-family="sans" font-size="11.00">icmp_input</text>
</g>
<!-- icmp_input&#45;&gt;control_output -->
<g id="edge28" class="edge">
<title>icmp_input&#45;&gt;control_output</title>
<path fill="none" stroke="black" d="M1006.33,-644.74C1053.4,-647.09 1143.14,-651 1219.57,-651 1219.57,-651 1219.57,-651 1357.98,-651 1503.16,-651 1554.38,-628.66 1661.8,-531 1700.53,-495.79 1723.13,-437.37 1733.78,-402.89"/>
<polygon fill="black" stroke="black" points="1737.22,-403.6 1736.7,-393.01 1730.51,-401.61 1737.22,-403.6"/>
</g>
<!-- icmp_input&#45;&gt;icmp_output -->
<g id="edge27" class="edge">
<title>icmp_input&#45;&gt;icmp_output</title>
<path fill="none" stroke="black" d="M998.3,-631.28C1013.78,-623.9 1034.02,-614.25 1051.26,-606.03"/>
<polygon fill="black" stroke="black" points="1052.95,-609.1 1060.47,-601.64 1049.94,-602.78 1052.95,-609.1"/>
</g>
<!-- icmp_output&#45;&gt;ip_output -->
<g id="edge30" class="edge">
<title>icmp_output&#45;&gt;ip_output</title>
<path fill="none" stroke="black" d="M1110.24,-574.18C1132.52,-558.66 1167.58,-534.22 1191.98,-517.23"/>
<polygon fill="black" stroke="black" points="1194.23,-519.92 1200.44,-511.33 1190.23,-514.18 1194.23,-519.92"/>
</g>
<!-- ip_forward&#45;&gt;ip_output -->
<g id="edge31" class="edge">
<title>ip_forward&#45;&gt;ip_output</title>
<path fill="none" stroke="black" d="M876.27,-548.54C928.35,-544.2 1035.89,-534.18 1125.96,-519 1144.87,-515.81 1165.7,-511.25 1182.9,-507.18"/>
<polygon fill="black" stroke="black" points="1184.19,-510.48 1193.09,-504.74 1182.55,-503.67 1184.19,-510.48"/>
</g>
<!-- ip_hold&#45;&gt;control_output -->
<g id="edge32" class="edge">
<title>ip_hold&#45;&gt;control_output</title>
<path fill="none" stroke="black" d="M1383.74,-434.4C1436.31,-428.88 1559.61,-414.86 1661.8,-395 1672.72,-392.88 1684.37,-390.19 1695.29,-387.48"/>
<polygon fill="black" stroke="black" points="1696.25,-390.85 1705.08,-385 1694.53,-384.06 1696.25,-390.85"/>
</g>
<!-- ip_input_local&#45;&gt;icmp_input -->
<g id="edge36" class="edge">
<title>ip_input_local&#45;&gt;icmp_input</title>
<path fill="none" stroke="black" d="M885.4,-643C899.14,-643 914.55,-643 928.51,-643"/>
<polygon fill="black" stroke="black" points="928.84,-646.5 938.84,-643 928.84,-639.5 928.84,-646.5"/>
</g>
<!-- ipip_input -->
<g id="node28" class="node">
<title>ipip_input</title>
<ellipse fill="none" stroke="black" cx="972.73" cy="-589" rx="29.7" ry="18"/>
<text text-anchor="middle" x="972.73" y="-586.2" font-family="sans" font-size="11.00">ipip_input</text>
</g>
<!-- ip_input_local&#45;&gt;ipip_input -->
<g id="edge37" class="edge">
<title>ip_input_local&#45;&gt;ipip_input</title>
<path fill="none" stroke="black" d="M874.02,-630.61C893.25,-622.42 918.5,-611.67 938.52,-603.14"/>
<polygon fill="black" stroke="black" points="940.04,-606.3 947.87,-599.16 937.3,-599.86 940.04,-606.3"/>
</g>
<!-- l4_input_local -->
<g id="node29" class="node">
<title>l4_input_local</title>
<ellipse fill="none" stroke="black" cx="972.73" cy="-697" rx="41.49" ry="18"/>
<text text-anchor="middle" x="972.73" y="-694.2" font-family="sans" font-size="11.00">l4_input_local</text>
</g>
<!-- ip_input_local&#45;&gt;l4_input_local -->
<g id="edge38" class="edge">
<title>ip_input_local&#45;&gt;l4_input_local</title>
<path fill="none" stroke="black" d="M874.02,-655.39C891.53,-662.85 914.05,-672.43 933.05,-680.53"/>
<polygon fill="black" stroke="black" points="931.77,-683.78 942.34,-684.48 934.51,-677.34 931.77,-683.78"/>
</g>
<!-- ipip_input&#45;&gt;ip_input -->
<g id="edge69" class="edge">
<title>ipip_input&#45;&gt;ip_input</title>
<path fill="none" stroke="black" d="M942.72,-587.41C892.56,-584.66 789.73,-579.02 734.76,-576"/>
<polygon fill="black" stroke="black" points="734.62,-572.49 724.44,-575.44 734.23,-579.48 734.62,-572.49"/>
</g>
<!-- l4_loopback_output -->
<g id="node42" class="node">
<title>l4_loopback_output</title>
<ellipse fill="none" stroke="black" cx="1220.57" cy="-697" rx="58.73" ry="18"/>
<text text-anchor="middle" x="1220.57" y="-694.2" font-family="sans" font-size="11.00">l4_loopback_output</text>
</g>
<!-- l4_input_local&#45;&gt;l4_loopback_output -->
<g id="edge71" class="edge">
<title>l4_input_local&#45;&gt;l4_loopback_output</title>
<path fill="none" stroke="black" d="M1014.05,-697C1051.33,-697 1107.48,-697 1151.67,-697"/>
<polygon fill="black" stroke="black" points="1151.77,-700.5 1161.77,-697 1151.77,-693.5 1151.77,-700.5"/>
</g>
<!-- ipip_output&#45;&gt;ip_output -->
<g id="edge70" class="edge">
<title>ipip_output&#45;&gt;ip_output</title>
<path fill="none" stroke="black" d="M1325.68,-498.33C1306.02,-500.54 1280.25,-502.01 1259.27,-502.17"/>
<polygon fill="black" stroke="black" points="1259.11,-498.67 1249.1,-502.14 1259.09,-505.67 1259.11,-498.67"/>
</g>
<!-- sr6_headend&#45;&gt;ip6_output -->
<g id="edge79" class="edge">
<title>sr6_headend&#45;&gt;ip6_output</title>
<path fill="none" stroke="black" d="M1382.11,-369.12C1397.05,-362.84 1416.59,-355.84 1433.86,-350.48"/>
<polygon fill="black" stroke="black" points="1435.13,-353.75 1443.71,-347.53 1433.12,-347.04 1435.13,-353.75"/>
</g>
<!-- icmp6_input -->
<g id="node32" class="node">
<title>icmp6_input</title>
<ellipse fill="none" stroke="black" cx="1220.57" cy="-72" rx="37.4" ry="18"/>
<text text-anchor="middle" x="1220.57" y="-69.2" font-family="sans" font-size="11.00">icmp6_input</text>
</g>
<!-- icmp6_input&#45;&gt;control_output -->
<g id="edge48" class="edge">
<title>icmp6_input&#45;&gt;control_output</title>
<path fill="none" stroke="black" d="M1246.08,-85.21C1280.42,-103.8 1344.69,-138.87 1398.77,-170 1513.32,-235.93 1647.3,-317.4 1708.18,-354.66"/>
<polygon fill="black" stroke="black" points="1706.61,-357.81 1716.97,-360.05 1710.27,-351.84 1706.61,-357.81"/>
</g>
<!-- icmp6_input&#45;&gt;icmp6_output -->
<g id="edge44" class="edge">
<title>icmp6_input&#45;&gt;icmp6_output</title>
<path fill="none" stroke="black" d="M1249.37,-83.67C1259.56,-88.86 1270.66,-95.7 1279.19,-104 1301.74,-125.97 1294.45,-141.32 1315.19,-165 1318.36,-168.62 1321.98,-172.12 1325.73,-175.4"/>
<polygon fill="black" stroke="black" points="1323.55,-178.13 1333.5,-181.77 1327.99,-172.72 1323.55,-178.13"/>
</g>
<!-- ndp_ns_input -->
<g id="node34" class="node">
<title>ndp_ns_input</title>
<ellipse fill="none" stroke="black" cx="1475.47" cy="-126" rx="40.32" ry="18"/>
<text text-anchor="middle" x="1475.47" y="-123.2" font-family="sans" font-size="11.00">ndp_ns_input</text>
</g>
<!-- icmp6_input&#45;&gt;ndp_ns_input -->
<g id="edge45" class="edge">
<title>icmp6_input&#45;&gt;ndp_ns_input</title>
<path fill="none" stroke="black" d="M1255.16,-79.17C1299.78,-88.7 1378.79,-105.57 1428.8,-116.25"/>
<polygon fill="black" stroke="black" points="1428.2,-119.7 1438.71,-118.36 1429.66,-112.85 1428.2,-119.7"/>
</g>
<!-- ndp_na_input -->
<g id="node35" class="node">
<title>ndp_na_input</title>
<ellipse fill="none" stroke="black" cx="1475.47" cy="-72" rx="40.91" ry="18"/>
<text text-anchor="middle" x="1475.47" y="-69.2" font-family="sans" font-size="11.00">ndp_na_input</text>
</g>
<!-- icmp6_input&#45;&gt;ndp_na_input -->
<g id="edge46" class="edge">
<title>icmp6_input&#45;&gt;ndp_na_input</title>
<path fill="none" stroke="black" d="M1258.08,-72C1301.88,-72 1375.54,-72 1424.57,-72"/>
<polygon fill="black" stroke="black" points="1424.64,-75.5 1434.64,-72 1424.64,-68.5 1424.64,-75.5"/>
</g>
<!-- ndp_rs_input -->
<g id="node36" class="node">
<title>ndp_rs_input</title>
<ellipse fill="none" stroke="black" cx="1475.47" cy="-18" rx="39.15" ry="18"/>
<text text-anchor="middle" x="1475.47" y="-15.2" font-family="sans" font-size="11.00">ndp_rs_input</text>
</g>
<!-- icmp6_input&#45;&gt;ndp_rs_input -->
<g id="edge47" class="edge">
<title>icmp6_input&#45;&gt;ndp_rs_input</title>
<path fill="none" stroke="black" d="M1255.16,-64.83C1300.03,-55.25 1379.69,-38.24 1429.65,-27.57"/>
<polygon fill="black" stroke="black" points="1430.48,-30.97 1439.53,-25.46 1429.02,-24.13 1430.48,-30.97"/>
</g>
<!-- icmp6_output&#45;&gt;ip6_output -->
<g id="edge49" class="edge">
<title>icmp6_output&#45;&gt;ip6_output</title>
<path fill="none" stroke="black" d="M1379.83,-212.08C1386.3,-217.07 1393.15,-222.92 1398.77,-229 1423.82,-256.11 1446.35,-292.31 1460.19,-316.57"/>
<polygon fill="black" stroke="black" points="1457.28,-318.55 1465.23,-325.56 1463.39,-315.12 1457.28,-318.55"/>
</g>
<!-- ndp_ns_input&#45;&gt;control_output -->
<g id="edge66" class="edge">
<title>ndp_ns_input&#45;&gt;control_output</title>
<path fill="none" stroke="black" d="M1514.77,-122.15C1555.8,-120.19 1620.56,-123.59 1661.8,-158 1719.4,-206.05 1735.27,-299.64 1739.65,-346.63"/>
<polygon fill="black" stroke="black" points="1736.17,-347.04 1740.47,-356.72 1743.14,-346.47 1736.17,-347.04"/>
</g>
<!-- ndp_na_input&#45;&gt;control_output -->
<g id="edge64" class="edge">
<title>ndp_na_input&#45;&gt;control_output</title>
<path fill="none" stroke="black" d="M1516.15,-71.34C1557.75,-72.84 1622.43,-81.65 1661.8,-119 1726.58,-180.45 1738.92,-293.57 1741.04,-346.41"/>
<polygon fill="black" stroke="black" points="1737.55,-346.84 1741.35,-356.73 1744.54,-346.63 1737.55,-346.84"/>
</g>
<!-- ndp_rs_input&#45;&gt;control_output -->
<g id="edge68" class="edge">
<title>ndp_rs_input&#45;&gt;control_output</title>
<path fill="none" stroke="black" d="M1514.69,-18.32C1556.57,-20.78 1622.97,-31.27 1661.8,-71 1700.63,-110.71 1727.99,-279.56 1737.56,-347"/>
<polygon fill="black" stroke="black" points="1734.09,-347.5 1738.94,-356.92 1741.03,-346.53 1734.09,-347.5"/>
</g>
<!-- ip6_forward&#45;&gt;ip6_output -->
<g id="edge51" class="edge">
<title>ip6_forward&#45;&gt;ip6_output</title>
<path fill="none" stroke="black" d="M1116.14,-371.74C1169.81,-350.83 1293.37,-309.31 1398.77,-323 1411.51,-324.65 1425.17,-327.81 1437.32,-331.14"/>
<polygon fill="black" stroke="black" points="1436.55,-334.56 1447.13,-333.95 1438.47,-327.83 1436.55,-334.56"/>
</g>
<!-- ip6_hold&#45;&gt;control_output -->
<g id="edge52" class="edge">
<title>ip6_hold&#45;&gt;control_output</title>
<path fill="none" stroke="black" d="M1634.01,-369.37C1649.36,-370.17 1669.35,-371.22 1687.91,-372.2"/>
<polygon fill="black" stroke="black" points="1687.86,-375.7 1698.03,-372.73 1688.23,-368.71 1687.86,-375.7"/>
</g>
<!-- ip6_input_local&#45;&gt;l4_input_local -->
<g id="edge57" class="edge">
<title>ip6_input_local&#45;&gt;l4_input_local</title>
<path fill="none" stroke="black" d="M445.49,-576.37C459.97,-593.56 484.57,-619.1 511.96,-632 649.52,-696.74 833.91,-701.37 921.49,-699.32"/>
<polygon fill="black" stroke="black" points="921.78,-702.81 931.68,-699.04 921.59,-695.82 921.78,-702.81"/>
</g>
<!-- ip6_input_local&#45;&gt;icmp6_input -->
<g id="edge56" class="edge">
<title>ip6_input_local&#45;&gt;icmp6_input</title>
<path fill="none" stroke="black" d="M460.93,-545.3C518.11,-518.1 649.15,-454.82 756.37,-396 819.49,-361.37 835.61,-352.98 895.49,-313 1009.19,-237.08 1137.71,-137 1192.5,-93.6"/>
<polygon fill="black" stroke="black" points="1194.69,-96.34 1200.35,-87.38 1190.34,-90.85 1194.69,-96.34"/>
</g>
<!-- sr6_local -->
<g id="node40" class="node">
<title>sr6_local</title>
<ellipse fill="none" stroke="black" cx="557.01" cy="-605" rx="27.86" ry="18"/>
<text text-anchor="middle" x="557.01" y="-602.2" font-family="sans" font-size="11.00">sr6_local</text>
</g>
<!-- ip6_input_local&#45;&gt;sr6_local -->
<g id="edge58" class="edge">
<title>ip6_input_local&#45;&gt;sr6_local</title>
<path fill="none" stroke="black" d="M471.18,-567.23C489.35,-573.26 510.53,-581.29 527.19,-588.51"/>
<polygon fill="black" stroke="black" points="525.86,-591.75 536.42,-592.65 528.73,-585.37 525.86,-591.75"/>
</g>
<!-- sr6_local_srh -->
<g id="node41" class="node">
<title>sr6_local_srh</title>
<ellipse fill="none" stroke="black" cx="557.01" cy="-551" rx="39.74" ry="18"/>
<text text-anchor="middle" x="557.01" y="-548.2" font-family="sans" font-size="11.00">sr6_local_srh</text>
</g>
<!-- ip6_input_local&#45;&gt;sr6_local_srh -->
<g id="edge59" class="edge">
<title>ip6_input_local&#45;&gt;sr6_local_srh</title>
<path fill="none" stroke="black" d="M470.5,-550.21C482.29,-548.98 495.39,-548.03 507.74,-547.51"/>
<polygon fill="black" stroke="black" points="508,-551.01 517.88,-547.18 507.77,-544.01 508,-551.01"/>
</g>
<!-- sr6_local&#45;&gt;ip_input -->
<g id="edge73" class="edge">
<title>sr6_local&#45;&gt;ip_input</title>
<path fill="none" stroke="black" d="M583.36,-599.31C605.31,-594.39 637.28,-587.22 661.59,-581.77"/>
<polygon fill="black" stroke="black" points="662.5,-585.15 671.49,-579.55 660.97,-578.32 662.5,-585.15"/>
</g>
<!-- sr6_local&#45;&gt;ip6_input -->
<g id="edge74" class="edge">
<title>sr6_local&#45;&gt;ip6_input</title>
<path fill="none" stroke="black" d="M529.18,-606.63C494.62,-607.71 433.34,-606.14 385.87,-586 359.38,-574.76 334.64,-552.87 318.15,-535.98"/>
<polygon fill="black" stroke="black" points="320.59,-533.48 311.17,-528.63 315.52,-538.3 320.59,-533.48"/>
</g>
<!-- sr6_local&#45;&gt;ip6_input_local -->
<g id="edge75" class="edge">
<title>sr6_local&#45;&gt;ip6_input_local</title>
<path fill="none" stroke="black" d="M529.65,-600.87C511.22,-595.33 486.42,-586.3 466.42,-577.91"/>
<polygon fill="black" stroke="black" points="467.6,-574.61 457.03,-573.86 464.83,-581.03 467.6,-574.61"/>
</g>
<!-- sr6_local_srh&#45;&gt;ip_input -->
<g id="edge76" class="edge">
<title>sr6_local_srh&#45;&gt;ip_input</title>
<path fill="none" stroke="black" d="M594.68,-557.1C615.11,-560.5 640.43,-564.72 660.68,-568.09"/>
<polygon fill="black" stroke="black" points="660.31,-571.57 670.75,-569.76 661.46,-564.67 660.31,-571.57"/>
</g>
<!-- sr6_local_srh&#45;&gt;ip6_input -->
<g id="edge77" class="edge">
<title>sr6_local_srh&#45;&gt;ip6_input</title>
<path fill="none" stroke="black" d="M522.32,-542C508.1,-538.46 491.31,-534.63 475.96,-532 427.66,-523.73 371.33,-518.44 335.12,-515.6"/>
<polygon fill="black" stroke="black" points="335.25,-512.1 325.02,-514.83 334.72,-519.08 335.25,-512.1"/>
</g>
<!-- sr6_local_srh&#45;&gt;ip6_input_local -->
<g id="edge78" class="edge">
<title>sr6_local_srh&#45;&gt;ip6_input_local</title>
<path fill="none" stroke="black" d="M521.82,-559.31C510.59,-560.59 497.83,-561.61 485.51,-562.24"/>
<polygon fill="black" stroke="black" points="485.16,-558.75 475.32,-562.67 485.46,-565.74 485.16,-558.75"/>
</g>
<!-- l4_loopback_output&#45;&gt;loopback_output -->
<g id="edge72" class="edge">
<title>l4_loopback_output&#45;&gt;loopback_output</title>
<path fill="none" stroke="black" d="M1252.06,-681.69C1321.54,-646.81 1491.52,-561.47 1567.82,-523.16"/>
<polygon fill="black" stroke="black" points="1569.71,-526.13 1577.08,-518.51 1566.57,-519.87 1569.71,-526.13"/>
</g>
</g>
</svg>
