<?xml version="1.0" encoding="UTF-8" standalone="no"?>
<!DOCTYPE svg PUBLIC "-//W3C//DTD SVG 1.1//EN"
 "http://www.w3.org/Graphics/SVG/1.1/DTD/svg11.dtd">
<!-- Generated by graphviz version 2.44.0 (0)
 -->
<!-- Title: gr&#45;0&#45;0002&#45;dplane Pages: 1 -->
<svg width="1799pt" height="804pt"
 viewBox="0.00 0.00 1799.15 804.00" xmlns="http://www.w3.org/2000/svg" xmlns:xlink="http://www.w3.org/1999/xlink">
<g id="graph0" class="graph" transform="scale(1 1) rotate(0) translate(4 800)">
<title>gr&#45;0&#45;0002&#45;dplane</title>
<polygon fill="white" stroke="transparent" points="-4,4 -4,-800 1795.15,-800 1795.15,4 -4,4"/>
<!-- control_input -->
<g id="node1" class="node">
<title>control_input</title>
<ellipse fill="none" stroke="blue" stroke-width="2" cx="40.16" cy="-555" rx="40.32" ry="18"/>
<text text-anchor="middle" x="40.16" y="-552.2" font-family="sans" font-size="11.00">control_input</text>
</g>
<!-- loopback_input -->
<g id="node2" class="node">
<title>loopback_input</title>
<ellipse fill="none" stroke="black" cx="161.91" cy="-454" rx="45.68" ry="18"/>
<text text-anchor="middle" x="161.91" y="-451.2" font-family="sans" font-size="11.00">loopback_input</text>
</g>
<!-- control_input&#45;&gt;loopback_input -->
<g id="edge1" class="edge">
<title>control_input&#45;&gt;loopback_input</title>
<path fill="none" stroke="blue" stroke-width="2" d="M59.87,-539.22C79.67,-522.52 111.12,-496 133.67,-476.98"/>
<polygon fill="blue" stroke="blue" stroke-width="2" points="136.15,-479.46 141.54,-470.34 131.64,-474.11 136.15,-479.46"/>
</g>
<!-- arp_output_request -->
<g id="node3" class="node">
<title>arp_output_request</title>
<ellipse fill="none" stroke="black" cx="1190.72" cy="-133" rx="59.31" ry="18"/>
<text text-anchor="middle" x="1190.72" y="-130.2" font-family="sans" font-size="11.00">arp_output_request</text>
</g>
<!-- control_input&#45;&gt;arp_output_request -->
<g id="edge2" class="edge">
<title>control_input&#45;&gt;arp_output_request</title>
<path fill="none" stroke="blue" stroke-width="2" d="M49.34,-537.35C61.73,-511.6 86.96,-462.91 116.32,-427 263.91,-246.52 326.13,-146 559.27,-146 559.27,-146 559.27,-146 797.71,-146 911.59,-146 1043.99,-140.45 1122.1,-136.6"/>
<polygon fill="blue" stroke="blue" stroke-width="2" points="1122.47,-140.09 1132.29,-136.1 1122.12,-133.1 1122.47,-140.09"/>
</g>
<!-- icmp_local_send -->
<g id="node4" class="node">
<title>icmp_local_send</title>
<ellipse fill="none" stroke="black" cx="435.26" cy="-508" rx="49.28" ry="18"/>
<text text-anchor="middle" x="435.26" y="-505.2" font-family="sans" font-size="11.00">icmp_local_send</text>
</g>
<!-- control_input&#45;&gt;icmp_local_send -->
<g id="edge3" class="edge">
<title>control_input&#45;&gt;icmp_local_send</title>
<path fill="none" stroke="blue" stroke-width="2" d="M71.86,-543.92C85.33,-539.5 101.44,-534.8 116.32,-532 205.6,-515.19 311.07,-510.07 375.29,-508.56"/>
<polygon fill="blue" stroke="blue" stroke-width="2" points="375.7,-512.05 385.62,-508.34 375.55,-505.05 375.7,-512.05"/>
</g>
<!-- icmp6_local_send -->
<g id="node5" class="node">
<title>icmp6_local_send</title>
<ellipse fill="none" stroke="black" cx="296.69" cy="-610" rx="53.37" ry="18"/>
<text text-anchor="middle" x="296.69" y="-607.2" font-family="sans" font-size="11.00">icmp6_local_send</text>
</g>
<!-- control_input&#45;&gt;icmp6_local_send -->
<g id="edge4" class="edge">
<title>control_input&#45;&gt;icmp6_local_send</title>
<path fill="none" stroke="blue" stroke-width="2" d="M72.75,-565.59C86.09,-569.82 101.86,-574.51 116.32,-578 156.34,-587.66 202.03,-595.77 237.28,-601.4"/>
<polygon fill="blue" stroke="blue" stroke-width="2" points="236.98,-604.9 247.4,-603 238.07,-597.98 236.98,-604.9"/>
</g>
<!-- ndp_ns_output -->
<g id="node6" class="node">
<title>ndp_ns_output</title>
<ellipse fill="none" stroke="black" cx="435.26" cy="-702" rx="44.51" ry="18"/>
<text text-anchor="middle" x="435.26" y="-699.2" font-family="sans" font-size="11.00">ndp_ns_output</text>
</g>
<!-- control_input&#45;&gt;ndp_ns_output -->
<g id="edge5" class="edge">
<title>control_input&#45;&gt;ndp_ns_output</title>
<path fill="none" stroke="blue" stroke-width="2" d="M54.72,-571.81C68.79,-588.45 92.09,-613.85 116.32,-631 167.34,-667.1 182.93,-675.59 243.5,-691 288.8,-702.53 342.02,-704.7 380.73,-704.32"/>
<polygon fill="blue" stroke="blue" stroke-width="2" points="380.79,-707.82 390.74,-704.16 380.68,-700.82 380.79,-707.82"/>
</g>
<!-- ip6_output -->
<g id="node7" class="node">
<title>ip6_output</title>
<ellipse fill="none" stroke="black" cx="1477.1" cy="-501" rx="32.63" ry="18"/>
<text text-anchor="middle" x="1477.1" y="-498.2" font-family="sans" font-size="11.00">ip6_output</text>
</g>
<!-- control_input&#45;&gt;ip6_output -->
<g id="edge6" class="edge">
<title>control_input&#45;&gt;ip6_output</title>
<path fill="none" stroke="blue" stroke-width="2" d="M79.51,-551.26C165.4,-549.14 379.8,-554 559.27,-554 559.27,-554 559.27,-554 929.77,-554 1119.35,-554 1343.58,-516.69 1434.61,-504.16"/>
<polygon fill="blue" stroke="blue" stroke-width="2" points="1435.08,-507.62 1444.53,-502.82 1434.15,-500.69 1435.08,-507.62"/>
</g>
<!-- control_input&#45;&gt;ip6_output -->
<g id="edge8" class="edge">
<title>control_input&#45;&gt;ip6_output</title>
<path fill="none" stroke="blue" stroke-width="2" d="M78.54,-560.67C163.79,-567.1 379.12,-572 559.27,-572 559.27,-572 559.27,-572 929.77,-572 1122.6,-572 1351.28,-533.4 1439.17,-512.69"/>
<polygon fill="blue" stroke="blue" stroke-width="2" points="1440.05,-516.08 1448.94,-510.32 1438.39,-509.28 1440.05,-516.08"/>
</g>
<!-- ndp_na_output -->
<g id="node8" class="node">
<title>ndp_na_output</title>
<ellipse fill="none" stroke="black" cx="296.69" cy="-664" rx="45.09" ry="18"/>
<text text-anchor="middle" x="296.69" y="-661.2" font-family="sans" font-size="11.00">ndp_na_output</text>
</g>
<!-- control_input&#45;&gt;ndp_na_output -->
<g id="edge7" class="edge">
<title>control_input&#45;&gt;ndp_na_output</title>
<path fill="none" stroke="blue" stroke-width="2" d="M63.22,-569.78C77.87,-579.2 97.76,-591.23 116.32,-600 160.32,-620.77 213.01,-638.81 249.85,-650.4"/>
<polygon fill="blue" stroke="blue" stroke-width="2" points="249.22,-653.86 259.8,-653.49 251.29,-647.18 249.22,-653.86"/>
</g>
<!-- ip_input -->
<g id="node12" class="node">
<title>ip_input</title>
<ellipse fill="none" stroke="black" cx="677.67" cy="-255" rx="27" ry="18"/>
<text text-anchor="middle" x="677.67" y="-252.2" font-family="sans" font-size="11.00">ip_input</text>
</g>
<!-- loopback_input&#45;&gt;ip_input -->
<g id="edge14" class="edge">
<title>loopback_input&#45;&gt;ip_input</title>
<path fill="none" stroke="black" d="M201.6,-463.03C283.38,-479.78 476.42,-506.64 599.89,-421 646.27,-388.82 665.26,-321.28 672.54,-283.01"/>
<polygon fill="black" stroke="black" points="676.01,-283.5 674.3,-273.04 669.11,-282.28 676.01,-283.5"/>
</g>
<!-- ip6_input -->
<g id="node13" class="node">
<title>ip6_input</title>
<ellipse fill="none" stroke="black" cx="296.69" cy="-340" rx="28.44" ry="18"/>
<text text-anchor="middle" x="296.69" y="-337.2" font-family="sans" font-size="11.00">ip6_input</text>
</g>
<!-- loopback_input&#45;&gt;ip6_input -->
<g id="edge15" class="edge">
<title>loopback_input&#45;&gt;ip6_input</title>
<path fill="none" stroke="black" d="M181.93,-437.67C205.49,-417.44 245.63,-382.97 271.39,-360.86"/>
<polygon fill="black" stroke="black" points="273.9,-363.32 279.21,-354.15 269.34,-358.01 273.9,-363.32"/>
</g>
<!-- eth_output -->
<g id="node14" class="node">
<title>eth_output</title>
<ellipse fill="none" stroke="black" cx="1615.67" cy="-111" rx="33.8" ry="18"/>
<text text-anchor="middle" x="1615.67" y="-108.2" font-family="sans" font-size="11.00">eth_output</text>
</g>
<!-- arp_output_request&#45;&gt;eth_output -->
<g id="edge27" class="edge">
<title>arp_output_request&#45;&gt;eth_output</title>
<path fill="none" stroke="black" d="M1249.21,-130.01C1335.17,-125.54 1495.28,-117.21 1571.8,-113.23"/>
<polygon fill="black" stroke="black" points="1572.22,-116.71 1582.03,-112.7 1571.86,-109.72 1572.22,-116.71"/>
</g>
<!-- icmp_output -->
<g id="node26" class="node">
<title>icmp_output</title>
<ellipse fill="none" stroke="black" cx="1057.58" cy="-324" rx="37.98" ry="18"/>
<text text-anchor="middle" x="1057.58" y="-321.2" font-family="sans" font-size="11.00">icmp_output</text>
</g>
<!-- icmp_local_send&#45;&gt;icmp_output -->
<g id="edge29" class="edge">
<title>icmp_local_send&#45;&gt;icmp_output</title>
<path fill="none" stroke="black" d="M484.65,-509.46C584.92,-510.35 819.67,-501.08 983.59,-405 1006.74,-391.43 1026.64,-368.04 1039.79,-349.87"/>
<polygon fill="black" stroke="black" points="1042.82,-351.64 1045.68,-341.44 1037.08,-347.63 1042.82,-351.64"/>
</g>
<!-- icmp6_output -->
<g id="node35" class="node">
<title>icmp6_output</title>
<ellipse fill="none" stroke="black" cx="677.67" cy="-648" rx="41.58" ry="18"/>
<text text-anchor="middle" x="677.67" y="-645.2" font-family="sans" font-size="11.00">icmp6_output</text>
</g>
<!-- icmp6_local_send&#45;&gt;icmp6_output -->
<g id="edge49" class="edge">
<title>icmp6_local_send&#45;&gt;icmp6_output</title>
<path fill="none" stroke="black" d="M348.01,-615.05C420.65,-622.33 554.1,-635.71 626.6,-642.98"/>
<polygon fill="black" stroke="black" points="626.54,-646.49 636.84,-644.01 627.24,-639.53 626.54,-646.49"/>
</g>
<!-- ndp_ns_output&#45;&gt;icmp6_output -->
<g id="edge66" class="edge">
<title>ndp_ns_output&#45;&gt;icmp6_output</title>
<path fill="none" stroke="black" d="M474.62,-693.38C516.89,-683.89 584.89,-668.62 630.17,-658.45"/>
<polygon fill="black" stroke="black" points="631.04,-661.84 640.03,-656.23 629.5,-655.01 631.04,-661.84"/>
</g>
<!-- ip6_output&#45;&gt;eth_output -->
<g id="edge59" class="edge">
<title>ip6_output&#45;&gt;eth_output</title>
<path fill="none" stroke="black" d="M1484.32,-483.23C1506.05,-421.18 1578.66,-213.84 1605.01,-138.59"/>
<polygon fill="black" stroke="black" points="1608.41,-139.47 1608.41,-128.88 1601.81,-137.16 1608.41,-139.47"/>
</g>
<!-- loopback_output -->
<g id="node17" class="node">
<title>loopback_output</title>
<ellipse fill="none" stroke="black" cx="1615.67" cy="-363" rx="50.45" ry="18"/>
<text text-anchor="middle" x="1615.67" y="-360.2" font-family="sans" font-size="11.00">loopback_output</text>
</g>
<!-- ip6_output&#45;&gt;loopback_output -->
<g id="edge61" class="edge">
<title>ip6_output&#45;&gt;loopback_output</title>
<path fill="none" stroke="black" d="M1493.5,-485.44C1517.19,-461.5 1562.78,-415.44 1590.78,-387.14"/>
<polygon fill="black" stroke="black" points="1593.29,-389.58 1597.84,-380.01 1588.32,-384.66 1593.29,-389.58"/>
</g>
<!-- sr6_headend -->
<g id="node33" class="node">
<title>sr6_headend</title>
<ellipse fill="none" stroke="black" cx="1337.44" cy="-455" rx="39.15" ry="18"/>
<text text-anchor="middle" x="1337.44" y="-452.2" font-family="sans" font-size="11.00">sr6_headend</text>
</g>
<!-- ip6_output&#45;&gt;sr6_headend -->
<g id="edge62" class="edge">
<title>ip6_output&#45;&gt;sr6_headend</title>
<path fill="none" stroke="black" d="M1445.08,-496.38C1423.58,-490.47 1394.94,-480.96 1372.75,-472.4"/>
<polygon fill="black" stroke="black" points="1373.95,-469.11 1363.37,-468.67 1371.37,-475.61 1373.95,-469.11"/>
</g>
<!-- ip6_hold -->
<g id="node40" class="node">
<title>ip6_hold</title>
<ellipse fill="none" stroke="black" cx="1615.67" cy="-501" rx="27" ry="18"/>
<text text-anchor="middle" x="1615.67" y="-498.2" font-family="sans" font-size="11.00">ip6_hold</text>
</g>
<!-- ip6_output&#45;&gt;ip6_hold -->
<g id="edge60" class="edge">
<title>ip6_output&#45;&gt;ip6_hold</title>
<path fill="none" stroke="black" d="M1509.78,-501C1530.36,-501 1557.25,-501 1578.65,-501"/>
<polygon fill="black" stroke="black" points="1578.66,-504.5 1588.66,-501 1578.66,-497.5 1578.66,-504.5"/>
</g>
<!-- ndp_na_output&#45;&gt;icmp6_output -->
<g id="edge64" class="edge">
<title>ndp_na_output&#45;&gt;icmp6_output</title>
<path fill="none" stroke="black" d="M341.53,-662.15C412.15,-659.17 550.74,-653.32 625.68,-650.15"/>
<polygon fill="black" stroke="black" points="625.97,-653.64 635.81,-649.73 625.67,-646.65 625.97,-653.64"/>
</g>
<!-- control_output -->
<g id="node9" class="node">
<title>control_output</title>
<ellipse fill="none" stroke="black" cx="1746.65" cy="-501" rx="44.51" ry="18"/>
<text text-anchor="middle" x="1746.65" y="-498.2" font-family="sans" font-size="11.00">control_output</text>
</g>
<!-- eth_input -->
<g id="node10" class="node">
<title>eth_input</title>
<ellipse fill="none" stroke="black" cx="161.91" cy="-127" rx="29.12" ry="18"/>
<text text-anchor="middle" x="161.91" y="-124.2" font-family="sans" font-size="11.00">eth_input</text>
</g>
<!-- arp_input -->
<g id="node11" class="node">
<title>arp_input</title>
<ellipse fill="none" stroke="black" cx="796.71" cy="-100" rx="29.12" ry="18"/>
<text text-anchor="middle" x="796.71" y="-97.2" font-family="sans" font-size="11.00">arp_input</text>
</g>
<!-- eth_input&#45;&gt;arp_input -->
<g id="edge9" class="edge">
<title>eth_input&#45;&gt;arp_input</title>
<path fill="none" stroke="black" d="M190.58,-123.1C239.59,-116.54 344.9,-104 434.26,-104 434.26,-104 434.26,-104 561.27,-104 630.19,-104 710.49,-102.25 756.98,-101.07"/>
<polygon fill="black" stroke="black" points="757.3,-104.56 767.2,-100.8 757.12,-97.56 757.3,-104.56"/>
</g>
<!-- eth_input&#45;&gt;ip_input -->
<g id="edge10" class="edge">
<title>eth_input&#45;&gt;ip_input</title>
<path fill="none" stroke="black" d="M190.53,-130.92C260.32,-141.27 448.97,-171.93 599.89,-221 615.66,-226.13 632.57,-233.41 646.5,-239.92"/>
<polygon fill="black" stroke="black" points="645.09,-243.12 655.62,-244.27 648.1,-236.81 645.09,-243.12"/>
</g>
<!-- eth_input&#45;&gt;ip6_input -->
<g id="edge11" class="edge">
<title>eth_input&#45;&gt;ip6_input</title>
<path fill="none" stroke="black" d="M173.33,-143.71C196.5,-180.89 252.42,-270.6 279.91,-314.68"/>
<polygon fill="black" stroke="black" points="277.06,-316.73 285.32,-323.36 283,-313.03 277.06,-316.73"/>
</g>
<!-- arp_input_request -->
<g id="node23" class="node">
<title>arp_input_request</title>
<ellipse fill="none" stroke="black" cx="928.77" cy="-46" rx="54.63" ry="18"/>
<text text-anchor="middle" x="928.77" y="-43.2" font-family="sans" font-size="11.00">arp_input_request</text>
</g>
<!-- arp_input&#45;&gt;arp_input_request -->
<g id="edge22" class="edge">
<title>arp_input&#45;&gt;arp_input_request</title>
<path fill="none" stroke="black" d="M821.57,-90.1C839.12,-82.81 863.47,-72.7 884.43,-64"/>
<polygon fill="black" stroke="black" points="885.89,-67.18 893.78,-60.11 883.2,-60.72 885.89,-67.18"/>
</g>
<!-- arp_input_reply -->
<g id="node24" class="node">
<title>arp_input_reply</title>
<ellipse fill="none" stroke="black" cx="928.77" cy="-100" rx="47.43" ry="18"/>
<text text-anchor="middle" x="928.77" y="-97.2" font-family="sans" font-size="11.00">arp_input_reply</text>
</g>
<!-- arp_input&#45;&gt;arp_input_reply -->
<g id="edge23" class="edge">
<title>arp_input&#45;&gt;arp_input_reply</title>
<path fill="none" stroke="black" d="M826.25,-100C839.5,-100 855.74,-100 871.31,-100"/>
<polygon fill="black" stroke="black" points="871.41,-103.5 881.41,-100 871.41,-96.5 871.41,-103.5"/>
</g>
<!-- ip_output -->
<g id="node20" class="node">
<title>ip_output</title>
<ellipse fill="none" stroke="black" cx="1190.72" cy="-241" rx="29.12" ry="18"/>
<text text-anchor="middle" x="1190.72" y="-238.2" font-family="sans" font-size="11.00">ip_output</text>
</g>
<!-- ip_input&#45;&gt;ip_output -->
<g id="edge34" class="edge">
<title>ip_input&#45;&gt;ip_output</title>
<path fill="none" stroke="black" d="M704.56,-252.95C741.93,-250.1 813.19,-245.06 873.96,-243 973.97,-239.61 1091.9,-240.04 1151.35,-240.56"/>
<polygon fill="black" stroke="black" points="1151.38,-244.06 1161.41,-240.66 1151.44,-237.06 1151.38,-244.06"/>
</g>
<!-- ip_forward -->
<g id="node27" class="node">
<title>ip_forward</title>
<ellipse fill="none" stroke="black" cx="1057.58" cy="-188" rx="32.63" ry="18"/>
<text text-anchor="middle" x="1057.58" y="-185.2" font-family="sans" font-size="11.00">ip_forward</text>
</g>
<!-- ip_input&#45;&gt;ip_forward -->
<g id="edge33" class="edge">
<title>ip_input&#45;&gt;ip_forward</title>
<path fill="none" stroke="black" d="M696.18,-241.57C711.07,-230.96 733.48,-216.84 755.46,-210 844.7,-182.25 955.7,-182.48 1014.86,-185.18"/>
<polygon fill="black" stroke="black" points="1014.77,-188.68 1024.94,-185.69 1015.13,-181.69 1014.77,-188.68"/>
</g>
<!-- ip_input_local -->
<g id="node29" class="node">
<title>ip_input_local</title>
<ellipse fill="none" stroke="black" cx="796.71" cy="-308" rx="41.49" ry="18"/>
<text text-anchor="middle" x="796.71" y="-305.2" font-family="sans" font-size="11.00">ip_input_local</text>
</g>
<!-- ip_input&#45;&gt;ip_input_local -->
<g id="edge35" class="edge">
<title>ip_input&#45;&gt;ip_input_local</title>
<path fill="none" stroke="black" d="M700.41,-264.84C716.59,-272.17 739.06,-282.35 758.13,-290.98"/>
<polygon fill="black" stroke="black" points="756.9,-294.27 767.45,-295.2 759.79,-287.89 756.9,-294.27"/>
</g>
<!-- ip6_input&#45;&gt;ip6_output -->
<g id="edge53" class="edge">
<title>ip6_input&#45;&gt;ip6_output</title>
<path fill="none" stroke="black" d="M319,-351.36C336.6,-360.44 362.41,-373.09 385.87,-382 444.17,-404.15 459.45,-409.04 520.65,-421 856.25,-486.6 944.38,-483.34 1285.88,-501 1336.83,-503.63 1395.55,-503.09 1434.12,-502.24"/>
<polygon fill="black" stroke="black" points="1434.52,-505.73 1444.44,-502 1434.36,-498.74 1434.52,-505.73"/>
</g>
<!-- ip6_forward -->
<g id="node39" class="node">
<title>ip6_forward</title>
<ellipse fill="none" stroke="black" cx="560.27" cy="-394" rx="35.64" ry="18"/>
<text text-anchor="middle" x="560.27" y="-391.2" font-family="sans" font-size="11.00">ip6_forward</text>
</g>
<!-- ip6_input&#45;&gt;ip6_forward -->
<g id="edge52" class="edge">
<title>ip6_input&#45;&gt;ip6_forward</title>
<path fill="none" stroke="black" d="M323.72,-345.38C368.89,-354.7 462.14,-373.95 516.78,-385.23"/>
<polygon fill="black" stroke="black" points="516.35,-388.71 526.85,-387.31 517.76,-381.86 516.35,-388.71"/>
</g>
<!-- ip6_input_local -->
<g id="node41" class="node">
<title>ip6_input_local</title>
<ellipse fill="none" stroke="black" cx="435.26" cy="-294" rx="45.09" ry="18"/>
<text text-anchor="middle" x="435.26" y="-291.2" font-family="sans" font-size="11.00">ip6_input_local</text>
</g>
<!-- ip6_input&#45;&gt;ip6_input_local -->
<g id="edge54" class="edge">
<title>ip6_input&#45;&gt;ip6_input_local</title>
<path fill="none" stroke="black" d="M322.1,-331.78C341.08,-325.38 367.91,-316.35 390.56,-308.72"/>
<polygon fill="black" stroke="black" points="391.95,-311.94 400.31,-305.44 389.71,-305.31 391.95,-311.94"/>
</g>
<!-- port_tx -->
<g id="node15" class="node">
<title>port_tx</title>
<ellipse fill="none" stroke="black" cx="1746.65" cy="-54" rx="27" ry="18"/>
<text text-anchor="middle" x="1746.65" y="-51.2" font-family="sans" font-size="11.00">port_tx</text>
</g>
<!-- eth_output&#45;&gt;port_tx -->
<g id="edge12" class="edge">
<title>eth_output&#45;&gt;port_tx</title>
<path fill="none" stroke="black" d="M1642.15,-99.74C1662.87,-90.58 1692.2,-77.62 1714.35,-67.83"/>
<polygon fill="black" stroke="black" points="1715.92,-70.96 1723.66,-63.72 1713.09,-64.56 1715.92,-70.96"/>
</g>
<!-- l1_xconnect -->
<g id="node16" class="node">
<title>l1_xconnect</title>
<ellipse fill="none" stroke="black" cx="296.69" cy="-35" rx="36.23" ry="18"/>
<text text-anchor="middle" x="296.69" y="-32.2" font-family="sans" font-size="11.00">l1_xconnect</text>
</g>
<!-- l1_xconnect&#45;&gt;port_tx -->
<g id="edge13" class="edge">
<title>l1_xconnect&#45;&gt;port_tx</title>
<path fill="none" stroke="black" d="M330.12,-27.83C379.38,-17.59 476.11,0 559.27,0 559.27,0 559.27,0 1478.1,0 1564.1,0 1662.64,-27.14 1712.71,-42.94"/>
<polygon fill="black" stroke="black" points="1711.76,-46.31 1722.35,-46.03 1713.89,-39.65 1711.76,-46.31"/>
</g>
<!-- loopback_output&#45;&gt;control_output -->
<g id="edge16" class="edge">
<title>loopback_output&#45;&gt;control_output</title>
<path fill="none" stroke="black" d="M1643.61,-377.99C1651.3,-382.9 1659.41,-388.72 1666.15,-395 1691.84,-418.97 1715.17,-452.06 1729.82,-474.87"/>
<polygon fill="black" stroke="black" points="1726.88,-476.77 1735.17,-483.36 1732.8,-473.03 1726.88,-476.77"/>
</g>
<!-- port_rx -->
<g id="node18" class="node">
<title>port_rx</title>
<ellipse fill="none" stroke="blue" stroke-width="2" cx="40.16" cy="-104" rx="27" ry="18"/>
<text text-anchor="middle" x="40.16" y="-101.2" font-family="sans" font-size="11.00">port_rx</text>
</g>
<!-- port_rx&#45;&gt;eth_input -->
<g id="edge17" class="edge">
<title>port_rx&#45;&gt;eth_input</title>
<path fill="none" stroke="blue" stroke-width="2" d="M66.26,-108.82C82.93,-112.02 105.1,-116.28 123.79,-119.87"/>
<polygon fill="blue" stroke="blue" stroke-width="2" points="123.28,-123.34 133.76,-121.78 124.6,-116.46 123.28,-123.34"/>
</g>
<!-- port_rx&#45;&gt;l1_xconnect -->
<g id="edge18" class="edge">
<title>port_rx&#45;&gt;l1_xconnect</title>
<path fill="none" stroke="blue" stroke-width="2" d="M65.57,-97.38C109.17,-85.56 200.88,-60.7 254.42,-46.19"/>
<polygon fill="blue" stroke="blue" stroke-width="2" points="255.54,-49.51 264.28,-43.52 253.71,-42.75 255.54,-49.51"/>
</g>
<!-- nh4_unreachable -->
<g id="node19" class="node">
<title>nh4_unreachable</title>
<ellipse fill="none" stroke="black" cx="1477.1" cy="-218" rx="52.2" ry="18"/>
<text text-anchor="middle" x="1477.1" y="-215.2" font-family="sans" font-size="11.00">nh4_unreachable</text>
</g>
<!-- nh4_unreachable&#45;&gt;ip_output -->
<g id="edge19" class="edge">
<title>nh4_unreachable&#45;&gt;ip_output</title>
<path fill="none" stroke="black" d="M1426.31,-222.03C1370.45,-226.54 1281.04,-233.78 1230.26,-237.88"/>
<polygon fill="black" stroke="black" points="1229.72,-234.42 1220.03,-238.71 1230.28,-241.39 1229.72,-234.42"/>
</g>
<!-- ip_output&#45;&gt;eth_output -->
<g id="edge39" class="edge">
<title>ip_output&#45;&gt;eth_output</title>
<path fill="none" stroke="black" d="M1206.43,-225.58C1223.72,-208.49 1254.11,-181.55 1285.88,-168 1386.43,-125.11 1421.93,-153.06 1529.2,-132 1544.28,-129.04 1560.71,-125.16 1575.09,-121.55"/>
<polygon fill="black" stroke="black" points="1576.33,-124.84 1585.16,-118.98 1574.6,-118.06 1576.33,-124.84"/>
</g>
<!-- ip_output&#45;&gt;loopback_output -->
<g id="edge41" class="edge">
<title>ip_output&#45;&gt;loopback_output</title>
<path fill="none" stroke="black" d="M1206.43,-256.41C1223.73,-273.5 1254.12,-300.43 1285.88,-314 1333.41,-334.3 1475.35,-350.18 1556.34,-357.89"/>
<polygon fill="black" stroke="black" points="1556.11,-361.38 1566.39,-358.83 1556.76,-354.41 1556.11,-361.38"/>
</g>
<!-- ip_hold -->
<g id="node28" class="node">
<title>ip_hold</title>
<ellipse fill="none" stroke="black" cx="1337.44" cy="-195" rx="27" ry="18"/>
<text text-anchor="middle" x="1337.44" y="-192.2" font-family="sans" font-size="11.00">ip_hold</text>
</g>
<!-- ip_output&#45;&gt;ip_hold -->
<g id="edge40" class="edge">
<title>ip_output&#45;&gt;ip_hold</title>
<path fill="none" stroke="black" d="M1217.26,-232.88C1241.05,-225.32 1276.65,-214 1302.75,-205.71"/>
<polygon fill="black" stroke="black" points="1304.13,-208.94 1312.6,-202.58 1302.01,-202.27 1304.13,-208.94"/>
</g>
<!-- ipip_output -->
<g id="node32" class="node">
<title>ipip_output</title>
<ellipse fill="none" stroke="black" cx="1337.44" cy="-287" rx="34.38" ry="18"/>
<text text-anchor="middle" x="1337.44" y="-284.2" font-family="sans" font-size="11.00">ipip_output</text>
</g>
<!-- ip_output&#45;&gt;ipip_output -->
<g id="edge42" class="edge">
<title>ip_output&#45;&gt;ipip_output</title>
<path fill="none" stroke="black" d="M1219.63,-244.41C1243.55,-250.41 1278.07,-261.27 1303.38,-270.72"/>
<polygon fill="black" stroke="black" points="1302.34,-274.07 1312.93,-274.39 1304.85,-267.53 1302.34,-274.07"/>
</g>
<!-- ip_output&#45;&gt;sr6_headend -->
<g id="edge43" class="edge">
<title>ip_output&#45;&gt;sr6_headend</title>
<path fill="none" stroke="black" d="M1202.84,-257.44C1227.92,-294.52 1289.04,-384.91 1319.13,-429.4"/>
<polygon fill="black" stroke="black" points="1316.38,-431.59 1324.89,-437.91 1322.18,-427.67 1316.38,-431.59"/>
</g>
<!-- arp_probe -->
<g id="node21" class="node">
<title>arp_probe</title>
<ellipse fill="none" stroke="black" cx="1057.58" cy="-93" rx="30.87" ry="18"/>
<text text-anchor="middle" x="1057.58" y="-90.2" font-family="sans" font-size="11.00">arp_probe</text>
</g>
<!-- arp_probe&#45;&gt;ip_output -->
<g id="edge20" class="edge">
<title>arp_probe&#45;&gt;ip_output</title>
<path fill="none" stroke="black" d="M1072.61,-108.84C1095.78,-134.99 1142.15,-187.31 1169.07,-217.69"/>
<polygon fill="black" stroke="black" points="1166.54,-220.11 1175.79,-225.28 1171.78,-215.47 1166.54,-220.11"/>
</g>
<!-- arp_output_reply -->
<g id="node22" class="node">
<title>arp_output_reply</title>
<ellipse fill="none" stroke="black" cx="1337.44" cy="-65" rx="51.62" ry="18"/>
<text text-anchor="middle" x="1337.44" y="-62.2" font-family="sans" font-size="11.00">arp_output_reply</text>
</g>
<!-- arp_probe&#45;&gt;arp_output_reply -->
<g id="edge21" class="edge">
<title>arp_probe&#45;&gt;arp_output_reply</title>
<path fill="none" stroke="black" d="M1088.31,-90C1133.28,-85.47 1219.49,-76.79 1277.49,-70.94"/>
<polygon fill="black" stroke="black" points="1278.02,-74.4 1287.62,-69.92 1277.32,-67.44 1278.02,-74.4"/>
</g>
<!-- arp_output_reply&#45;&gt;eth_output -->
<g id="edge26" class="edge">
<title>arp_output_reply&#45;&gt;eth_output</title>
<path fill="none" stroke="black" d="M1384.36,-72.65C1437.04,-81.42 1522.64,-95.67 1573.31,-104.11"/>
<polygon fill="black" stroke="black" points="1572.83,-107.58 1583.27,-105.77 1573.98,-100.68 1572.83,-107.58"/>
</g>
<!-- arp_input_request&#45;&gt;arp_probe -->
<g id="edge25" class="edge">
<title>arp_input_request&#45;&gt;arp_probe</title>
<path fill="none" stroke="black" d="M965.77,-59.34C983.15,-65.79 1003.94,-73.49 1021.24,-79.9"/>
<polygon fill="black" stroke="black" points="1020.37,-83.31 1030.96,-83.51 1022.8,-76.75 1020.37,-83.31"/>
</g>
<!-- arp_input_reply&#45;&gt;arp_probe -->
<g id="edge24" class="edge">
<title>arp_input_reply&#45;&gt;arp_probe</title>
<path fill="none" stroke="black" d="M975.55,-97.47C988.99,-96.73 1003.57,-95.93 1016.61,-95.21"/>
<polygon fill="black" stroke="black" points="1016.9,-98.7 1026.69,-94.65 1016.51,-91.71 1016.9,-98.7"/>
</g>
<!-- icmp_input -->
<g id="node25" class="node">
<title>icmp_input</title>
<ellipse fill="none" stroke="black" cx="928.77" cy="-324" rx="33.8" ry="18"/>
<text text-anchor="middle" x="928.77" y="-321.2" font-family="sans" font-size="11.00">icmp_input</text>
</g>
<!-- icmp_input&#45;&gt;icmp_output -->
<g id="edge28" class="edge">
<title>icmp_input&#45;&gt;icmp_output</title>
<path fill="none" stroke="black" d="M962.43,-324C976.75,-324 993.84,-324 1009.51,-324"/>
<polygon fill="black" stroke="black" points="1009.55,-327.5 1019.55,-324 1009.55,-320.5 1009.55,-327.5"/>
</g>
<!-- icmp_output&#45;&gt;ip_output -->
<g id="edge30" class="edge">
<title>icmp_output&#45;&gt;ip_output</title>
<path fill="none" stroke="black" d="M1081.12,-309.73C1103.2,-295.76 1136.93,-274.41 1160.94,-259.22"/>
<polygon fill="black" stroke="black" points="1163.04,-262.03 1169.62,-253.72 1159.3,-256.11 1163.04,-262.03"/>
</g>
<!-- ip_forward&#45;&gt;ip_output -->
<g id="edge31" class="edge">
<title>ip_forward&#45;&gt;ip_output</title>
<path fill="none" stroke="black" d="M1084.49,-198.47C1105.04,-206.78 1133.91,-218.44 1156.21,-227.46"/>
<polygon fill="black" stroke="black" points="1155.05,-230.76 1165.64,-231.27 1157.68,-224.27 1155.05,-230.76"/>
</g>
<!-- ip_hold&#45;&gt;nh4_unreachable -->
<g id="edge32" class="edge">
<title>ip_hold&#45;&gt;nh4_unreachable</title>
<path fill="none" stroke="black" d="M1363.69,-199.22C1379.42,-201.85 1400.31,-205.34 1419.81,-208.6"/>
<polygon fill="black" stroke="black" points="1419.41,-212.08 1429.85,-210.27 1420.56,-205.17 1419.41,-212.08"/>
</g>
<!-- ip_input_local&#45;&gt;icmp_input -->
<g id="edge36" class="edge">
<title>ip_input_local&#45;&gt;icmp_input</title>
<path fill="none" stroke="black" d="M836.73,-312.8C852.2,-314.7 870.02,-316.9 885.77,-318.83"/>
<polygon fill="black" stroke="black" points="885.42,-322.32 895.77,-320.06 886.28,-315.37 885.42,-322.32"/>
</g>
<!-- ipip_input -->
<g id="node30" class="node">
<title>ipip_input</title>
<ellipse fill="none" stroke="black" cx="928.77" cy="-270" rx="29.7" ry="18"/>
<text text-anchor="middle" x="928.77" y="-267.2" font-family="sans" font-size="11.00">ipip_input</text>
</g>
<!-- ip_input_local&#45;&gt;ipip_input -->
<g id="edge37" class="edge">
<title>ip_input_local&#45;&gt;ipip_input</title>
<path fill="none" stroke="black" d="M831.54,-298.12C850.05,-292.71 872.96,-286.01 891.79,-280.51"/>
<polygon fill="black" stroke="black" points="892.88,-283.84 901.5,-277.68 890.92,-277.12 892.88,-283.84"/>
</g>
<!-- l4_input_local -->
<g id="node31" class="node">
<title>l4_input_local</title>
<ellipse fill="none" stroke="black" cx="928.77" cy="-378" rx="41.49" ry="18"/>
<text text-anchor="middle" x="928.77" y="-375.2" font-family="sans" font-size="11.00">l4_input_local</text>
</g>
<!-- ip_input_local&#45;&gt;l4_input_local -->
<g id="edge38" class="edge">
<title>ip_input_local&#45;&gt;l4_input_local</title>
<path fill="none" stroke="black" d="M822.27,-322.25C837.13,-330.77 856.52,-341.72 873.96,-351 879.59,-354 885.59,-357.1 891.47,-360.09"/>
<polygon fill="black" stroke="black" points="890.03,-363.28 900.54,-364.66 893.18,-357.03 890.03,-363.28"/>
</g>
<!-- ipip_input&#45;&gt;ip_input -->
<g id="edge68" class="edge">
<title>ipip_input&#45;&gt;ip_input</title>
<path fill="none" stroke="black" d="M898.89,-268.26C853.27,-265.51 764.65,-260.18 714.87,-257.18"/>
<polygon fill="black" stroke="black" points="715.05,-253.68 704.86,-256.58 714.63,-260.67 715.05,-253.68"/>
</g>
<!-- l4_loopback_output -->
<g id="node44" class="node">
<title>l4_loopback_output</title>
<ellipse fill="none" stroke="black" cx="1190.72" cy="-372" rx="58.73" ry="18"/>
<text text-anchor="middle" x="1190.72" y="-369.2" font-family="sans" font-size="11.00">l4_loopback_output</text>
</g>
<!-- l4_input_local&#45;&gt;l4_loopback_output -->
<g id="edge70" class="edge">
<title>l4_input_local&#45;&gt;l4_loopback_output</title>
<path fill="none" stroke="black" d="M970.1,-377.07C1010.58,-376.13 1073.66,-374.68 1121.86,-373.57"/>
<polygon fill="black" stroke="black" points="1121.99,-377.06 1131.9,-373.33 1121.82,-370.07 1121.99,-377.06"/>
</g>
<!-- ipip_output&#45;&gt;ip_output -->
<g id="edge69" class="edge">
<title>ipip_output&#45;&gt;ip_output</title>
<path fill="none" stroke="black" d="M1304.28,-282.5C1279.87,-276.14 1246.5,-265.5 1222.44,-256.4"/>
<polygon fill="black" stroke="black" points="1223.67,-253.12 1213.08,-252.74 1221.12,-259.64 1223.67,-253.12"/>
</g>
<!-- sr6_headend&#45;&gt;ip6_output -->
<g id="edge78" class="edge">
<title>sr6_headend&#45;&gt;ip6_output</title>
<path fill="none" stroke="black" d="M1374.61,-461.06C1396.2,-467.24 1423.38,-476.4 1444.17,-484.53"/>
<polygon fill="black" stroke="black" points="1442.94,-487.81 1453.53,-488.3 1445.56,-481.32 1442.94,-487.81"/>
</g>
<!-- icmp6_input -->
<g id="node34" class="node">
<title>icmp6_input</title>
<ellipse fill="none" stroke="black" cx="560.27" cy="-732" rx="37.4" ry="18"/>
<text text-anchor="middle" x="560.27" y="-729.2" font-family="sans" font-size="11.00">icmp6_input</text>
</g>
<!-- icmp6_input&#45;&gt;icmp6_output -->
<g id="edge44" class="edge">
<title>icmp6_input&#45;&gt;icmp6_output</title>
<path fill="none" stroke="black" d="M581.63,-717.18C599.83,-703.93 626.72,-684.36 647.25,-669.42"/>
<polygon fill="black" stroke="black" points="649.31,-672.24 655.34,-663.53 645.19,-666.58 649.31,-672.24"/>
</g>
<!-- ndp_ns_input -->
<g id="node36" class="node">
<title>ndp_ns_input</title>
<ellipse fill="none" stroke="black" cx="1477.1" cy="-688" rx="40.32" ry="18"/>
<text text-anchor="middle" x="1477.1" y="-685.2" font-family="sans" font-size="11.00">ndp_ns_input</text>
</g>
<!-- icmp6_input&#45;&gt;ndp_ns_input -->
<g id="edge45" class="edge">
<title>icmp6_input&#45;&gt;ndp_ns_input</title>
<path fill="none" stroke="black" d="M597.81,-732C643.94,-732 725.7,-732 795.71,-732 795.71,-732 795.71,-732 1191.72,-732 1277.56,-732 1376.26,-712.18 1431.91,-699.15"/>
<polygon fill="black" stroke="black" points="1432.86,-702.52 1441.78,-696.8 1431.24,-695.71 1432.86,-702.52"/>
</g>
<!-- ndp_na_input -->
<g id="node37" class="node">
<title>ndp_na_input</title>
<ellipse fill="none" stroke="black" cx="796.71" cy="-686" rx="40.91" ry="18"/>
<text text-anchor="middle" x="796.71" y="-683.2" font-family="sans" font-size="11.00">ndp_na_input</text>
</g>
<!-- icmp6_input&#45;&gt;ndp_na_input -->
<g id="edge46" class="edge">
<title>icmp6_input&#45;&gt;ndp_na_input</title>
<path fill="none" stroke="black" d="M595.11,-725.36C635.66,-717.4 703.82,-704.03 749.28,-695.11"/>
<polygon fill="black" stroke="black" points="750.04,-698.53 759.18,-693.17 748.69,-691.66 750.04,-698.53"/>
</g>
<!-- ndp_rs_input -->
<g id="node38" class="node">
<title>ndp_rs_input</title>
<ellipse fill="none" stroke="black" cx="677.67" cy="-778" rx="39.15" ry="18"/>
<text text-anchor="middle" x="677.67" y="-775.2" font-family="sans" font-size="11.00">ndp_rs_input</text>
</g>
<!-- icmp6_input&#45;&gt;ndp_rs_input -->
<g id="edge47" class="edge">
<title>icmp6_input&#45;&gt;ndp_rs_input</title>
<path fill="none" stroke="black" d="M589.5,-743.25C604.09,-749.07 622.11,-756.25 637.98,-762.58"/>
<polygon fill="black" stroke="black" points="636.94,-765.93 647.53,-766.38 639.54,-759.43 636.94,-765.93"/>
</g>
<!-- icmp6_output&#45;&gt;ip6_output -->
<g id="edge48" class="edge">
<title>icmp6_output&#45;&gt;ip6_output</title>
<path fill="none" stroke="black" d="M719.33,-650.02C852.09,-655.96 1271.11,-669.4 1389,-609 1423.37,-591.39 1448.85,-553.48 1463.09,-527.61"/>
<polygon fill="black" stroke="black" points="1466.24,-529.15 1467.83,-518.68 1460.05,-525.87 1466.24,-529.15"/>
</g>
<!-- ndp_ns_input&#45;&gt;control_output -->
<g id="edge65" class="edge">
<title>ndp_ns_input&#45;&gt;control_output</title>
<path fill="none" stroke="black" d="M1499.54,-673.01C1546.86,-639.94 1660.35,-560.62 1715.09,-522.36"/>
<polygon fill="black" stroke="black" points="1717.16,-525.18 1723.35,-516.58 1713.15,-519.44 1717.16,-525.18"/>
</g>
<!-- ndp_na_input&#45;&gt;control_output -->
<g id="edge63" class="edge">
<title>ndp_na_input&#45;&gt;control_output</title>
<path fill="none" stroke="black" d="M818.08,-670.43C882.33,-622.43 1088.17,-477.03 1285.88,-428 1438.97,-390.03 1625.84,-452.37 1706.02,-484.15"/>
<polygon fill="black" stroke="black" points="1705.13,-487.57 1715.71,-488.05 1707.74,-481.07 1705.13,-487.57"/>
</g>
<!-- ndp_rs_input&#45;&gt;control_output -->
<g id="edge67" class="edge">
<title>ndp_rs_input&#45;&gt;control_output</title>
<path fill="none" stroke="black" d="M717.08,-777C766,-775.82 853.16,-774 927.77,-774 927.77,-774 927.77,-774 1478.1,-774 1614.72,-774 1704.64,-597.44 1734.61,-528.3"/>
<polygon fill="black" stroke="black" points="1737.91,-529.48 1738.59,-518.91 1731.46,-526.75 1737.91,-529.48"/>
</g>
<!-- ip6_forward&#45;&gt;ip6_output -->
<g id="edge50" class="edge">
<title>ip6_forward&#45;&gt;ip6_output</title>
<path fill="none" stroke="black" d="M595.19,-398.38C698.67,-411.69 1019.48,-452.52 1285.88,-482 1336.99,-487.66 1395.91,-493.42 1434.46,-497.1"/>
<polygon fill="black" stroke="black" points="1434.49,-500.62 1444.77,-498.08 1435.15,-493.65 1434.49,-500.62"/>
</g>
<!-- ip6_hold&#45;&gt;control_output -->
<g id="edge51" class="edge">
<title>ip6_hold&#45;&gt;control_output</title>
<path fill="none" stroke="black" d="M1642.77,-501C1656.85,-501 1674.77,-501 1691.7,-501"/>
<polygon fill="black" stroke="black" points="1692.07,-504.5 1702.07,-501 1692.07,-497.5 1692.07,-504.5"/>
</g>
<!-- ip6_input_local&#45;&gt;l4_input_local -->
<g id="edge56" class="edge">
<title>ip6_input_local&#45;&gt;l4_input_local</title>
<path fill="none" stroke="black" d="M479.45,-298.06C512.52,-301.4 559.2,-306.62 599.89,-313 700.9,-328.85 818.18,-353.67 881.49,-367.61"/>
<polygon fill="black" stroke="black" points="881.03,-371.09 891.55,-369.83 882.54,-364.26 881.03,-371.09"/>
</g>
<!-- ip6_input_local&#45;&gt;icmp6_input -->
<g id="edge55" class="edge">
<title>ip6_input_local&#45;&gt;icmp6_input</title>
<path fill="none" stroke="black" d="M441.31,-311.99C460.43,-380.07 528.44,-622.24 551.53,-704.46"/>
<polygon fill="black" stroke="black" points="548.17,-705.42 554.24,-714.11 554.91,-703.53 548.17,-705.42"/>
</g>
<!-- sr6_local -->
<g id="node42" class="node">
<title>sr6_local</title>
<ellipse fill="none" stroke="black" cx="560.27" cy="-340" rx="27.86" ry="18"/>
<text text-anchor="middle" x="560.27" y="-337.2" font-family="sans" font-size="11.00">sr6_local</text>
</g>
<!-- ip6_input_local&#45;&gt;sr6_local -->
<g id="edge57" class="edge">
<title>ip6_input_local&#45;&gt;sr6_local</title>
<path fill="none" stroke="black" d="M475.52,-302.34C493.34,-308.32 514.03,-316.23 530.39,-323.38"/>
<polygon fill="black" stroke="black" points="529.4,-326.77 539.95,-327.71 532.29,-320.39 529.4,-326.77"/>
</g>
<!-- sr6_local_srh -->
<g id="node43" class="node">
<title>sr6_local_srh</title>
<ellipse fill="none" stroke="black" cx="560.27" cy="-248" rx="39.74" ry="18"/>
<text text-anchor="middle" x="560.27" y="-245.2" font-family="sans" font-size="11.00">sr6_local_srh</text>
</g>
<!-- ip6_input_local&#45;&gt;sr6_local_srh -->
<g id="edge58" class="edge">
<title>ip6_input_local&#45;&gt;sr6_local_srh</title>
<path fill="none" stroke="black" d="M461.15,-279.14C476.32,-272.33 496.15,-264.59 514.01,-258.39"/>
<polygon fill="black" stroke="black" points="515.33,-261.64 523.69,-255.12 513.09,-255 515.33,-261.64"/>
</g>
<!-- sr6_local&#45;&gt;ip_input -->
<g id="edge72" class="edge">
<title>sr6_local&#45;&gt;ip_input</title>
<path fill="none" stroke="black" d="M579.3,-326.72C598.44,-312.62 628.87,-290.21 650.61,-274.19"/>
<polygon fill="black" stroke="black" points="652.79,-276.94 658.77,-268.19 648.64,-271.3 652.79,-276.94"/>
</g>
<!-- sr6_local&#45;&gt;ip6_input -->
<g id="edge73" class="edge">
<title>sr6_local&#45;&gt;ip6_input</title>
<path fill="none" stroke="black" d="M532.53,-340C485.72,-340 388.83,-340 335.29,-340"/>
<polygon fill="black" stroke="black" points="335.19,-336.5 325.19,-340 335.19,-343.5 335.19,-336.5"/>
</g>
<!-- sr6_local&#45;&gt;ip6_input_local -->
<g id="edge74" class="edge">
<title>sr6_local&#45;&gt;ip6_input_local</title>
<path fill="none" stroke="black" d="M533.14,-335.87C514.87,-330.33 490.29,-321.3 470.46,-312.91"/>
<polygon fill="black" stroke="black" points="471.72,-309.64 461.15,-308.86 468.92,-316.06 471.72,-309.64"/>
</g>
<!-- sr6_local_srh&#45;&gt;ip_input -->
<g id="edge75" class="edge">
<title>sr6_local_srh&#45;&gt;ip_input</title>
<path fill="none" stroke="black" d="M599.7,-250.33C612.94,-251.13 627.72,-252.03 640.75,-252.82"/>
<polygon fill="black" stroke="black" points="640.58,-256.32 650.77,-253.43 641.01,-249.33 640.58,-256.32"/>
</g>
<!-- sr6_local_srh&#45;&gt;ip6_input -->
<g id="edge76" class="edge">
<title>sr6_local_srh&#45;&gt;ip6_input</title>
<path fill="none" stroke="black" d="M520.83,-246.01C484.6,-245.54 429.52,-248.53 385.87,-267 359.37,-278.22 334.63,-300.1 318.14,-317"/>
<polygon fill="black" stroke="black" points="315.51,-314.69 311.17,-324.36 320.59,-319.51 315.51,-314.69"/>
</g>
<!-- sr6_local_srh&#45;&gt;ip6_input_local -->
<g id="edge77" class="edge">
<title>sr6_local_srh&#45;&gt;ip6_input_local</title>
<path fill="none" stroke="black" d="M535.75,-262.24C521.4,-268.75 502.5,-276.21 485.04,-282.38"/>
<polygon fill="black" stroke="black" points="483.83,-279.09 475.52,-285.66 486.11,-285.71 483.83,-279.09"/>
</g>
<!-- l4_loopback_output&#45;&gt;loopback_output -->
<g id="edge71" class="edge">
<title>l4_loopback_output&#45;&gt;loopback_output</title>
<path fill="none" stroke="black" d="M1249.21,-370.78C1329.35,-369.07 1473.93,-365.99 1555.15,-364.27"/>
<polygon fill="black" stroke="black" points="1555.29,-367.76 1565.22,-364.05 1555.14,-360.77 1555.29,-367.76"/>
</g>
</g>
</svg>
