<?xml version="1.0" encoding="UTF-8" standalone="no"?>
<!DOCTYPE svg PUBLIC "-//W3C//DTD SVG 1.1//EN"
 "http://www.w3.org/Graphics/SVG/1.1/DTD/svg11.dtd">
<!-- Generated by graphviz version 2.44.0 (0)
 -->
<!-- Title: gr&#45;0&#45;0002&#45;dplane Pages: 1 -->
<svg width="1806pt" height="871pt"
 viewBox="0.00 0.00 1805.67 871.36" xmlns="http://www.w3.org/2000/svg" xmlns:xlink="http://www.w3.org/1999/xlink">
<g id="graph0" class="graph" transform="scale(1 1) rotate(0) translate(4 867.36)">
<title>gr&#45;0&#45;0002&#45;dplane</title>
<polygon fill="white" stroke="transparent" points="-4,4 -4,-867.36 1801.67,-867.36 1801.67,4 -4,4"/>
<!-- control_input -->
<g id="node1" class="node">
<title>control_input</title>
<ellipse fill="none" stroke="blue" stroke-width="2" cx="40.16" cy="-601" rx="40.32" ry="18"/>
<text text-anchor="middle" x="40.16" y="-598.2" font-family="sans" font-size="11.00">control_input</text>
</g>
<!-- loopback_input -->
<g id="node2" class="node">
<title>loopback_input</title>
<ellipse fill="none" stroke="black" cx="161.91" cy="-349" rx="45.68" ry="18"/>
<text text-anchor="middle" x="161.91" y="-346.2" font-family="sans" font-size="11.00">loopback_input</text>
</g>
<!-- control_input&#45;&gt;loopback_input -->
<g id="edge1" class="edge">
<title>control_input&#45;&gt;loopback_input</title>
<path fill="none" stroke="blue" stroke-width="2" d="M49.58,-583.28C70.24,-539.81 123.52,-427.69 148.12,-375.92"/>
<polygon fill="blue" stroke="blue" stroke-width="2" points="151.37,-377.23 152.5,-366.7 145.05,-374.23 151.37,-377.23"/>
</g>
<!-- arp_output_request -->
<g id="node3" class="node">
<title>arp_output_request</title>
<ellipse fill="none" stroke="black" cx="688.53" cy="-97" rx="59.31" ry="18"/>
<text text-anchor="middle" x="688.53" y="-94.2" font-family="sans" font-size="11.00">arp_output_request</text>
</g>
<!-- control_input&#45;&gt;arp_output_request -->
<g id="edge2" class="edge">
<title>control_input&#45;&gt;arp_output_request</title>
<path fill="none" stroke="blue" stroke-width="2" d="M41.43,-582.78C42.96,-504.88 52.98,-200.71 116.32,-135 170,-79.31 209.65,-101 287,-101 287,-101 287,-101 414.55,-101 484.38,-101 564.25,-99.68 619.47,-98.55"/>
<polygon fill="blue" stroke="blue" stroke-width="2" points="619.56,-102.05 629.49,-98.34 619.42,-95.05 619.56,-102.05"/>
</g>
<!-- icmp_local_send -->
<g id="node4" class="node">
<title>icmp_local_send</title>
<ellipse fill="none" stroke="black" cx="543.98" cy="-460" rx="49.28" ry="18"/>
<text text-anchor="middle" x="543.98" y="-457.2" font-family="sans" font-size="11.00">icmp_local_send</text>
</g>
<!-- control_input&#45;&gt;icmp_local_send -->
<g id="edge3" class="edge">
<title>control_input&#45;&gt;icmp_local_send</title>
<path fill="none" stroke="blue" stroke-width="2" d="M68.22,-587.82C82.33,-581.28 100.01,-573.6 116.32,-568 248.17,-522.72 408.8,-487.12 490.21,-470.41"/>
<polygon fill="blue" stroke="blue" stroke-width="2" points="491.12,-473.8 500.22,-468.37 489.72,-466.94 491.12,-473.8"/>
</g>
<!-- icmp6_local_send -->
<g id="node5" class="node">
<title>icmp6_local_send</title>
<ellipse fill="none" stroke="black" cx="688.53" cy="-590" rx="53.37" ry="18"/>
<text text-anchor="middle" x="688.53" y="-587.2" font-family="sans" font-size="11.00">icmp6_local_send</text>
</g>
<!-- control_input&#45;&gt;icmp6_local_send -->
<g id="edge4" class="edge">
<title>control_input&#45;&gt;icmp6_local_send</title>
<path fill="none" stroke="blue" stroke-width="2" d="M78.99,-596.25C127.21,-590.63 213.16,-582 287,-582 287,-582 287,-582 414.55,-582 487.08,-582 570.41,-584.86 625.72,-587.16"/>
<polygon fill="blue" stroke="blue" stroke-width="2" points="625.58,-590.65 635.72,-587.58 625.88,-583.66 625.58,-590.65"/>
</g>
<!-- ndp_ns_output -->
<g id="node6" class="node">
<title>ndp_ns_output</title>
<ellipse fill="none" stroke="black" cx="288" cy="-666" rx="44.51" ry="18"/>
<text text-anchor="middle" x="288" y="-663.2" font-family="sans" font-size="11.00">ndp_ns_output</text>
</g>
<!-- control_input&#45;&gt;ndp_ns_output -->
<g id="edge5" class="edge">
<title>control_input&#45;&gt;ndp_ns_output</title>
<path fill="none" stroke="blue" stroke-width="2" d="M67.38,-614.28C81.57,-621.01 99.57,-628.83 116.32,-634 155.35,-646.05 200.87,-654.31 235.09,-659.41"/>
<polygon fill="blue" stroke="blue" stroke-width="2" points="234.92,-662.93 245.32,-660.9 235.93,-656 234.92,-662.93"/>
</g>
<!-- ip6_output -->
<g id="node7" class="node">
<title>ip6_output</title>
<ellipse fill="none" stroke="black" cx="1477.1" cy="-525" rx="32.63" ry="18"/>
<text text-anchor="middle" x="1477.1" y="-522.2" font-family="sans" font-size="11.00">ip6_output</text>
</g>
<!-- control_input&#45;&gt;ip6_output -->
<g id="edge6" class="edge">
<title>control_input&#45;&gt;ip6_output</title>
<path fill="none" stroke="blue" stroke-width="2" d="M64.09,-615.74C105.54,-646.25 197,-712 287,-712 287,-712 287,-712 1086.8,-712 1220.72,-712 1270.78,-727.86 1382.49,-654 1421.05,-628.5 1447.94,-581.1 1462.7,-551.24"/>
<polygon fill="blue" stroke="blue" stroke-width="2" points="1465.86,-552.74 1467.07,-542.21 1459.56,-549.69 1465.86,-552.74"/>
</g>
<!-- control_input&#45;&gt;ip6_output -->
<g id="edge8" class="edge">
<title>control_input&#45;&gt;ip6_output</title>
<path fill="none" stroke="blue" stroke-width="2" d="M54.95,-617.77C90.56,-653.05 189.64,-730 287,-730 287,-730 287,-730 1086.8,-730 1220.72,-730 1270.78,-745.86 1382.49,-672 1426,-643.22 1454.64,-586.58 1467.79,-552.42"/>
<polygon fill="blue" stroke="blue" stroke-width="2" points="1471.08,-553.6 1471.22,-543.01 1464.5,-551.2 1471.08,-553.6"/>
</g>
<!-- ndp_na_output -->
<g id="node8" class="node">
<title>ndp_na_output</title>
<ellipse fill="none" stroke="black" cx="413.55" cy="-628" rx="45.09" ry="18"/>
<text text-anchor="middle" x="413.55" y="-625.2" font-family="sans" font-size="11.00">ndp_na_output</text>
</g>
<!-- control_input&#45;&gt;ndp_na_output -->
<g id="edge7" class="edge">
<title>control_input&#45;&gt;ndp_na_output</title>
<path fill="none" stroke="blue" stroke-width="2" d="M79.86,-603.81C146.48,-608.66 283,-618.58 358.81,-624.09"/>
<polygon fill="blue" stroke="blue" stroke-width="2" points="358.87,-627.61 369.1,-624.84 359.38,-620.62 358.87,-627.61"/>
</g>
<!-- ip_input -->
<g id="node12" class="node">
<title>ip_input</title>
<ellipse fill="none" stroke="black" cx="688.53" cy="-257" rx="27" ry="18"/>
<text text-anchor="middle" x="688.53" y="-254.2" font-family="sans" font-size="11.00">ip_input</text>
</g>
<!-- loopback_input&#45;&gt;ip_input -->
<g id="edge14" class="edge">
<title>loopback_input&#45;&gt;ip_input</title>
<path fill="none" stroke="black" d="M206.53,-353.24C285.96,-359.41 458.45,-365.5 593.37,-319 619.45,-310.01 645.35,-292.13 663.37,-277.87"/>
<polygon fill="black" stroke="black" points="666,-280.24 671.55,-271.21 661.58,-274.81 666,-280.24"/>
</g>
<!-- ip6_input -->
<g id="node13" class="node">
<title>ip6_input</title>
<ellipse fill="none" stroke="black" cx="288" cy="-303" rx="28.44" ry="18"/>
<text text-anchor="middle" x="288" y="-300.2" font-family="sans" font-size="11.00">ip6_input</text>
</g>
<!-- loopback_input&#45;&gt;ip6_input -->
<g id="edge15" class="edge">
<title>loopback_input&#45;&gt;ip6_input</title>
<path fill="none" stroke="black" d="M195.84,-336.79C213.65,-330.19 235.6,-322.05 253.5,-315.42"/>
<polygon fill="black" stroke="black" points="254.82,-318.66 262.98,-311.91 252.38,-312.1 254.82,-318.66"/>
</g>
<!-- eth_output -->
<g id="node14" class="node">
<title>eth_output</title>
<ellipse fill="none" stroke="black" cx="1622.19" cy="-146" rx="33.8" ry="18"/>
<text text-anchor="middle" x="1622.19" y="-143.2" font-family="sans" font-size="11.00">eth_output</text>
</g>
<!-- arp_output_request&#45;&gt;eth_output -->
<g id="edge27" class="edge">
<title>arp_output_request&#45;&gt;eth_output</title>
<path fill="none" stroke="black" d="M727.09,-110.86C744.15,-116.66 764.72,-122.98 783.69,-127 859.05,-143 878.95,-146 955.99,-146 955.99,-146 955.99,-146 1341.7,-146 1425.57,-146 1523.61,-146 1578.44,-146"/>
<polygon fill="black" stroke="black" points="1578.48,-149.5 1588.48,-146 1578.48,-142.5 1578.48,-149.5"/>
</g>
<!-- icmp_output -->
<g id="node26" class="node">
<title>icmp_output</title>
<ellipse fill="none" stroke="black" cx="1085.8" cy="-330" rx="37.98" ry="18"/>
<text text-anchor="middle" x="1085.8" y="-327.2" font-family="sans" font-size="11.00">icmp_output</text>
</g>
<!-- icmp_local_send&#45;&gt;icmp_output -->
<g id="edge29" class="edge">
<title>icmp_local_send&#45;&gt;icmp_output</title>
<path fill="none" stroke="black" d="M591.1,-465.59C678.5,-474.02 872.02,-482.18 1011.81,-411 1036.13,-398.62 1056.2,-374.49 1069.1,-355.78"/>
<polygon fill="black" stroke="black" points="1072.08,-357.63 1074.68,-347.36 1066.24,-353.76 1072.08,-357.63"/>
</g>
<!-- icmp6_output -->
<g id="node35" class="node">
<title>icmp6_output</title>
<ellipse fill="none" stroke="black" cx="1340.7" cy="-636" rx="41.58" ry="18"/>
<text text-anchor="middle" x="1340.7" y="-633.2" font-family="sans" font-size="11.00">icmp6_output</text>
</g>
<!-- icmp6_local_send&#45;&gt;icmp6_output -->
<g id="edge50" class="edge">
<title>icmp6_local_send&#45;&gt;icmp6_output</title>
<path fill="none" stroke="black" d="M741.61,-591.24C795.32,-592.42 881.5,-594 955.99,-594 955.99,-594 955.99,-594 1086.8,-594 1160.5,-594 1244.67,-611.57 1294.93,-623.99"/>
<polygon fill="black" stroke="black" points="1294.26,-627.43 1304.82,-626.47 1295.97,-620.64 1294.26,-627.43"/>
</g>
<!-- ndp_ns_output&#45;&gt;icmp6_output -->
<g id="edge67" class="edge">
<title>ndp_ns_output&#45;&gt;icmp6_output</title>
<path fill="none" stroke="black" d="M332.58,-668.21C383.16,-670.58 469.09,-674 542.98,-674 542.98,-674 542.98,-674 1086.8,-674 1159.9,-674 1243.59,-658.28 1294,-647.06"/>
<polygon fill="black" stroke="black" points="1294.95,-650.43 1303.93,-644.81 1293.41,-643.61 1294.95,-650.43"/>
</g>
<!-- ip6_output&#45;&gt;eth_output -->
<g id="edge60" class="edge">
<title>ip6_output&#45;&gt;eth_output</title>
<path fill="none" stroke="black" d="M1500.23,-512.32C1512.41,-504.26 1526.81,-492.76 1535.71,-479 1599.8,-379.92 1615.88,-235.28 1619.88,-174.53"/>
<polygon fill="black" stroke="black" points="1623.39,-174.39 1620.49,-164.2 1616.4,-173.97 1623.39,-174.39"/>
</g>
<!-- loopback_output -->
<g id="node17" class="node">
<title>loopback_output</title>
<ellipse fill="none" stroke="black" cx="1622.19" cy="-479" rx="50.45" ry="18"/>
<text text-anchor="middle" x="1622.19" y="-476.2" font-family="sans" font-size="11.00">loopback_output</text>
</g>
<!-- ip6_output&#45;&gt;loopback_output -->
<g id="edge62" class="edge">
<title>ip6_output&#45;&gt;loopback_output</title>
<path fill="none" stroke="black" d="M1505.69,-516.13C1525.14,-509.88 1551.67,-501.35 1574.4,-494.04"/>
<polygon fill="black" stroke="black" points="1575.76,-497.28 1584.21,-490.89 1573.62,-490.62 1575.76,-497.28"/>
</g>
<!-- sr6_headend -->
<g id="node33" class="node">
<title>sr6_headend</title>
<ellipse fill="none" stroke="black" cx="1340.7" cy="-452" rx="39.15" ry="18"/>
<text text-anchor="middle" x="1340.7" y="-449.2" font-family="sans" font-size="11.00">sr6_headend</text>
</g>
<!-- ip6_output&#45;&gt;sr6_headend -->
<g id="edge63" class="edge">
<title>ip6_output&#45;&gt;sr6_headend</title>
<path fill="none" stroke="black" d="M1448.6,-515.64C1425.65,-504.73 1393.07,-487.05 1369.92,-472.94"/>
<polygon fill="black" stroke="black" points="1371.58,-469.86 1361.24,-467.54 1367.88,-475.8 1371.58,-469.86"/>
</g>
<!-- ip6_hold -->
<g id="node40" class="node">
<title>ip6_hold</title>
<ellipse fill="none" stroke="black" cx="1622.19" cy="-641" rx="27" ry="18"/>
<text text-anchor="middle" x="1622.19" y="-638.2" font-family="sans" font-size="11.00">ip6_hold</text>
</g>
<!-- ip6_output&#45;&gt;ip6_hold -->
<g id="edge61" class="edge">
<title>ip6_output&#45;&gt;ip6_hold</title>
<path fill="none" stroke="black" d="M1496.22,-539.69C1521.55,-560.22 1567.62,-597.57 1596.19,-620.74"/>
<polygon fill="black" stroke="black" points="1594.13,-623.57 1604.1,-627.15 1598.54,-618.13 1594.13,-623.57"/>
</g>
<!-- ndp_na_output&#45;&gt;icmp6_output -->
<g id="edge65" class="edge">
<title>ndp_na_output&#45;&gt;icmp6_output</title>
<path fill="none" stroke="black" d="M458.51,-630.08C512.45,-632.45 606.69,-636 687.53,-636 687.53,-636 687.53,-636 1086.8,-636 1156.63,-636 1237.3,-636 1288.39,-636"/>
<polygon fill="black" stroke="black" points="1288.52,-639.5 1298.52,-636 1288.52,-632.5 1288.52,-639.5"/>
</g>
<!-- control_output -->
<g id="node9" class="node">
<title>control_output</title>
<ellipse fill="none" stroke="black" cx="1753.16" cy="-753" rx="44.51" ry="18"/>
<text text-anchor="middle" x="1753.16" y="-750.2" font-family="sans" font-size="11.00">control_output</text>
</g>
<!-- eth_input -->
<g id="node10" class="node">
<title>eth_input</title>
<ellipse fill="none" stroke="black" cx="161.91" cy="-162" rx="29.12" ry="18"/>
<text text-anchor="middle" x="161.91" y="-159.2" font-family="sans" font-size="11.00">eth_input</text>
</g>
<!-- arp_input -->
<g id="node11" class="node">
<title>arp_input</title>
<ellipse fill="none" stroke="black" cx="824.93" cy="-100" rx="29.12" ry="18"/>
<text text-anchor="middle" x="824.93" y="-97.2" font-family="sans" font-size="11.00">arp_input</text>
</g>
<!-- eth_input&#45;&gt;arp_input -->
<g id="edge9" class="edge">
<title>eth_input&#45;&gt;arp_input</title>
<path fill="none" stroke="black" d="M190.94,-158.47C237.07,-152.98 331.92,-143 412.55,-143 412.55,-143 412.55,-143 544.98,-143 635.47,-143 658.99,-141.91 747.69,-124 761.78,-121.16 776.95,-116.68 790.02,-112.37"/>
<polygon fill="black" stroke="black" points="791.21,-115.66 799.55,-109.12 788.96,-109.03 791.21,-115.66"/>
</g>
<!-- eth_input&#45;&gt;ip_input -->
<g id="edge10" class="edge">
<title>eth_input&#45;&gt;ip_input</title>
<path fill="none" stroke="black" d="M191.26,-161.93C261.1,-162.45 446.44,-168.13 593.37,-211 616.57,-217.77 641.05,-229.9 659.23,-240.01"/>
<polygon fill="black" stroke="black" points="657.7,-243.16 668.12,-245.07 661.16,-237.08 657.7,-243.16"/>
</g>
<!-- eth_input&#45;&gt;ip6_input -->
<g id="edge11" class="edge">
<title>eth_input&#45;&gt;ip6_input</title>
<path fill="none" stroke="black" d="M176.67,-177.63C198.47,-202.4 241.09,-250.83 266.51,-279.71"/>
<polygon fill="black" stroke="black" points="263.95,-282.11 273.19,-287.3 269.21,-277.48 263.95,-282.11"/>
</g>
<!-- arp_input_request -->
<g id="node23" class="node">
<title>arp_input_request</title>
<ellipse fill="none" stroke="black" cx="956.99" cy="-46" rx="54.63" ry="18"/>
<text text-anchor="middle" x="956.99" y="-43.2" font-family="sans" font-size="11.00">arp_input_request</text>
</g>
<!-- arp_input&#45;&gt;arp_input_request -->
<g id="edge22" class="edge">
<title>arp_input&#45;&gt;arp_input_request</title>
<path fill="none" stroke="black" d="M849.79,-90.1C867.34,-82.81 891.69,-72.7 912.65,-64"/>
<polygon fill="black" stroke="black" points="914.11,-67.18 922,-60.11 911.42,-60.72 914.11,-67.18"/>
</g>
<!-- arp_input_reply -->
<g id="node24" class="node">
<title>arp_input_reply</title>
<ellipse fill="none" stroke="black" cx="956.99" cy="-100" rx="47.43" ry="18"/>
<text text-anchor="middle" x="956.99" y="-97.2" font-family="sans" font-size="11.00">arp_input_reply</text>
</g>
<!-- arp_input&#45;&gt;arp_input_reply -->
<g id="edge23" class="edge">
<title>arp_input&#45;&gt;arp_input_reply</title>
<path fill="none" stroke="black" d="M854.47,-100C867.72,-100 883.96,-100 899.53,-100"/>
<polygon fill="black" stroke="black" points="899.63,-103.5 909.63,-100 899.63,-96.5 899.63,-103.5"/>
</g>
<!-- ip_output -->
<g id="node20" class="node">
<title>ip_output</title>
<ellipse fill="none" stroke="black" cx="1211.35" cy="-268" rx="29.12" ry="18"/>
<text text-anchor="middle" x="1211.35" y="-265.2" font-family="sans" font-size="11.00">ip_output</text>
</g>
<!-- ip_input&#45;&gt;ip_output -->
<g id="edge34" class="edge">
<title>ip_input&#45;&gt;ip_output</title>
<path fill="none" stroke="black" d="M715.44,-255.08C770.2,-251.31 901.68,-243.74 1011.81,-249 1067.85,-251.68 1132.48,-258.57 1172.38,-263.28"/>
<polygon fill="black" stroke="black" points="1172.12,-266.77 1182.46,-264.48 1172.95,-259.82 1172.12,-266.77"/>
</g>
<!-- ip_forward -->
<g id="node27" class="node">
<title>ip_forward</title>
<ellipse fill="none" stroke="black" cx="824.93" cy="-192" rx="32.63" ry="18"/>
<text text-anchor="middle" x="824.93" y="-189.2" font-family="sans" font-size="11.00">ip_forward</text>
</g>
<!-- ip_input&#45;&gt;ip_forward -->
<g id="edge33" class="edge">
<title>ip_input&#45;&gt;ip_forward</title>
<path fill="none" stroke="black" d="M710.83,-246.7C732.22,-236.35 765.51,-220.25 790.45,-208.19"/>
<polygon fill="black" stroke="black" points="792.07,-211.3 799.55,-203.79 789.02,-204.99 792.07,-211.3"/>
</g>
<!-- ip_input_local -->
<g id="node29" class="node">
<title>ip_input_local</title>
<ellipse fill="none" stroke="black" cx="824.93" cy="-326" rx="41.49" ry="18"/>
<text text-anchor="middle" x="824.93" y="-323.2" font-family="sans" font-size="11.00">ip_input_local</text>
</g>
<!-- ip_input&#45;&gt;ip_input_local -->
<g id="edge35" class="edge">
<title>ip_input&#45;&gt;ip_input_local</title>
<path fill="none" stroke="black" d="M710.53,-267.78C731.35,-278.47 763.63,-295.04 788.44,-307.78"/>
<polygon fill="black" stroke="black" points="787.04,-311 797.54,-312.45 790.24,-304.77 787.04,-311"/>
</g>
<!-- ip6_input&#45;&gt;ip6_output -->
<g id="edge54" class="edge">
<title>ip6_input&#45;&gt;ip6_output</title>
<path fill="none" stroke="black" d="M296.76,-320.47C309.1,-346.88 335.25,-397.55 368.51,-432 472.87,-540.12 537.26,-544 687.53,-544 687.53,-544 687.53,-544 1212.35,-544 1291.16,-544 1382.88,-535.46 1434.75,-529.83"/>
<polygon fill="black" stroke="black" points="1435.33,-533.28 1444.89,-528.71 1434.57,-526.33 1435.33,-533.28"/>
</g>
<!-- ip6_forward -->
<g id="node39" class="node">
<title>ip6_forward</title>
<ellipse fill="none" stroke="black" cx="413.55" cy="-405" rx="35.64" ry="18"/>
<text text-anchor="middle" x="413.55" y="-402.2" font-family="sans" font-size="11.00">ip6_forward</text>
</g>
<!-- ip6_input&#45;&gt;ip6_forward -->
<g id="edge53" class="edge">
<title>ip6_input&#45;&gt;ip6_forward</title>
<path fill="none" stroke="black" d="M305.92,-316.97C326.59,-334.03 361.77,-363.08 386.04,-383.12"/>
<polygon fill="black" stroke="black" points="383.88,-385.87 393.82,-389.53 388.34,-380.47 383.88,-385.87"/>
</g>
<!-- ip6_input_local -->
<g id="node41" class="node">
<title>ip6_input_local</title>
<ellipse fill="none" stroke="black" cx="413.55" cy="-303" rx="45.09" ry="18"/>
<text text-anchor="middle" x="413.55" y="-300.2" font-family="sans" font-size="11.00">ip6_input_local</text>
</g>
<!-- ip6_input&#45;&gt;ip6_input_local -->
<g id="edge55" class="edge">
<title>ip6_input&#45;&gt;ip6_input_local</title>
<path fill="none" stroke="black" d="M316.42,-303C328.66,-303 343.55,-303 357.91,-303"/>
<polygon fill="black" stroke="black" points="358.23,-306.5 368.23,-303 358.23,-299.5 358.23,-306.5"/>
</g>
<!-- port_tx -->
<g id="node15" class="node">
<title>port_tx</title>
<ellipse fill="none" stroke="black" cx="1753.16" cy="-73" rx="27" ry="18"/>
<text text-anchor="middle" x="1753.16" y="-70.2" font-family="sans" font-size="11.00">port_tx</text>
</g>
<!-- eth_output&#45;&gt;port_tx -->
<g id="edge12" class="edge">
<title>eth_output&#45;&gt;port_tx</title>
<path fill="none" stroke="black" d="M1645.95,-133.12C1667.4,-120.98 1699.64,-102.72 1722.98,-89.52"/>
<polygon fill="black" stroke="black" points="1724.77,-92.52 1731.75,-84.55 1721.33,-86.43 1724.77,-92.52"/>
</g>
<!-- l1_xconnect -->
<g id="node16" class="node">
<title>l1_xconnect</title>
<ellipse fill="none" stroke="black" cx="288" cy="-20" rx="36.23" ry="18"/>
<text text-anchor="middle" x="288" y="-17.2" font-family="sans" font-size="11.00">l1_xconnect</text>
</g>
<!-- l1_xconnect&#45;&gt;port_tx -->
<g id="edge13" class="edge">
<title>l1_xconnect&#45;&gt;port_tx</title>
<path fill="none" stroke="black" d="M323.44,-15.56C372.22,-9.67 464.25,0 542.98,0 542.98,0 542.98,0 1478.1,0 1568.81,0 1670.89,-37.8 1721,-59"/>
<polygon fill="black" stroke="black" points="1719.74,-62.27 1730.31,-63 1722.5,-55.84 1719.74,-62.27"/>
</g>
<!-- loopback_output&#45;&gt;control_output -->
<g id="edge16" class="edge">
<title>loopback_output&#45;&gt;control_output</title>
<path fill="none" stroke="black" d="M1631.65,-496.98C1653.75,-543.93 1713.29,-670.42 1739.49,-726.08"/>
<polygon fill="black" stroke="black" points="1736.41,-727.75 1743.84,-735.31 1742.74,-724.77 1736.41,-727.75"/>
</g>
<!-- port_rx -->
<g id="node18" class="node">
<title>port_rx</title>
<ellipse fill="none" stroke="blue" stroke-width="2" cx="40.16" cy="-120" rx="27" ry="18"/>
<text text-anchor="middle" x="40.16" y="-117.2" font-family="sans" font-size="11.00">port_rx</text>
</g>
<!-- port_rx&#45;&gt;eth_input -->
<g id="edge17" class="edge">
<title>port_rx&#45;&gt;eth_input</title>
<path fill="none" stroke="blue" stroke-width="2" d="M64.53,-128.2C82.12,-134.37 106.5,-142.92 126.33,-149.87"/>
<polygon fill="blue" stroke="blue" stroke-width="2" points="125.35,-153.24 135.95,-153.24 127.67,-146.63 125.35,-153.24"/>
</g>
<!-- port_rx&#45;&gt;l1_xconnect -->
<g id="edge18" class="edge">
<title>port_rx&#45;&gt;l1_xconnect</title>
<path fill="none" stroke="blue" stroke-width="2" d="M63.1,-110.09C78.04,-103.42 98.29,-94.49 116.32,-87 161.54,-68.21 214.04,-47.81 248.74,-34.52"/>
<polygon fill="blue" stroke="blue" stroke-width="2" points="250.38,-37.64 258.48,-30.8 247.89,-31.1 250.38,-37.64"/>
</g>
<!-- nh4_unreachable -->
<g id="node19" class="node">
<title>nh4_unreachable</title>
<ellipse fill="none" stroke="black" cx="1477.1" cy="-249" rx="52.2" ry="18"/>
<text text-anchor="middle" x="1477.1" y="-246.2" font-family="sans" font-size="11.00">nh4_unreachable</text>
</g>
<!-- nh4_unreachable&#45;&gt;ip_output -->
<g id="edge19" class="edge">
<title>nh4_unreachable&#45;&gt;ip_output</title>
<path fill="none" stroke="black" d="M1429.2,-241.91C1393.33,-237.69 1342.74,-234.32 1298.91,-241 1281.16,-243.7 1262.05,-249.35 1246.31,-254.79"/>
<polygon fill="black" stroke="black" points="1244.74,-251.64 1236.51,-258.3 1247.1,-258.23 1244.74,-251.64"/>
</g>
<!-- ip_output&#45;&gt;eth_output -->
<g id="edge39" class="edge">
<title>ip_output&#45;&gt;eth_output</title>
<path fill="none" stroke="black" d="M1235.57,-257.72C1252.84,-250.29 1277.09,-240.33 1298.91,-233 1398.88,-199.43 1519.57,-169.63 1581,-155.2"/>
<polygon fill="black" stroke="black" points="1582.12,-158.53 1591.06,-152.85 1580.52,-151.71 1582.12,-158.53"/>
</g>
<!-- ip_output&#45;&gt;loopback_output -->
<g id="edge41" class="edge">
<title>ip_output&#45;&gt;loopback_output</title>
<path fill="none" stroke="black" d="M1225.43,-283.92C1241.14,-302.07 1269.1,-331.48 1298.91,-349 1394.2,-405.01 1435.57,-378.22 1535.71,-425 1554.9,-433.96 1574.99,-446.47 1590.87,-457.19"/>
<polygon fill="black" stroke="black" points="1589,-460.16 1599.22,-462.93 1592.96,-454.39 1589,-460.16"/>
</g>
<!-- ip_hold -->
<g id="node28" class="node">
<title>ip_hold</title>
<ellipse fill="none" stroke="black" cx="1340.7" cy="-268" rx="27" ry="18"/>
<text text-anchor="middle" x="1340.7" y="-265.2" font-family="sans" font-size="11.00">ip_hold</text>
</g>
<!-- ip_output&#45;&gt;ip_hold -->
<g id="edge40" class="edge">
<title>ip_output&#45;&gt;ip_hold</title>
<path fill="none" stroke="black" d="M1240.93,-268C1259.33,-268 1283.41,-268 1303.19,-268"/>
<polygon fill="black" stroke="black" points="1303.38,-271.5 1313.38,-268 1303.38,-264.5 1303.38,-271.5"/>
</g>
<!-- ipip_output -->
<g id="node32" class="node">
<title>ipip_output</title>
<ellipse fill="none" stroke="black" cx="1340.7" cy="-322" rx="34.38" ry="18"/>
<text text-anchor="middle" x="1340.7" y="-319.2" font-family="sans" font-size="11.00">ipip_output</text>
</g>
<!-- ip_output&#45;&gt;ipip_output -->
<g id="edge42" class="edge">
<title>ip_output&#45;&gt;ipip_output</title>
<path fill="none" stroke="black" d="M1239.36,-273.82C1259.96,-281.14 1288.34,-293.11 1309.66,-303.43"/>
<polygon fill="black" stroke="black" points="1308.1,-306.57 1318.61,-307.89 1311.22,-300.3 1308.1,-306.57"/>
</g>
<!-- ip_output&#45;&gt;sr6_headend -->
<g id="edge43" class="edge">
<title>ip_output&#45;&gt;sr6_headend</title>
<path fill="none" stroke="black" d="M1223.87,-284.65C1246.21,-316.92 1295.5,-388.15 1322.01,-426.45"/>
<polygon fill="black" stroke="black" points="1319.35,-428.75 1327.92,-434.98 1325.11,-424.77 1319.35,-428.75"/>
</g>
<!-- arp_probe -->
<g id="node21" class="node">
<title>arp_probe</title>
<ellipse fill="none" stroke="black" cx="1085.8" cy="-100" rx="30.87" ry="18"/>
<text text-anchor="middle" x="1085.8" y="-97.2" font-family="sans" font-size="11.00">arp_probe</text>
</g>
<!-- arp_probe&#45;&gt;ip_output -->
<g id="edge20" class="edge">
<title>arp_probe&#45;&gt;ip_output</title>
<path fill="none" stroke="black" d="M1098.87,-116.41C1120.7,-146.1 1166.84,-208.84 1192.39,-243.58"/>
<polygon fill="black" stroke="black" points="1189.67,-245.78 1198.41,-251.77 1195.3,-241.64 1189.67,-245.78"/>
</g>
<!-- arp_output_reply -->
<g id="node22" class="node">
<title>arp_output_reply</title>
<ellipse fill="none" stroke="black" cx="1211.35" cy="-100" rx="51.62" ry="18"/>
<text text-anchor="middle" x="1211.35" y="-97.2" font-family="sans" font-size="11.00">arp_output_reply</text>
</g>
<!-- arp_probe&#45;&gt;arp_output_reply -->
<g id="edge21" class="edge">
<title>arp_probe&#45;&gt;arp_output_reply</title>
<path fill="none" stroke="black" d="M1117.02,-100C1126.87,-100 1138.17,-100 1149.44,-100"/>
<polygon fill="black" stroke="black" points="1149.74,-103.5 1159.74,-100 1149.74,-96.5 1149.74,-103.5"/>
</g>
<!-- arp_output_reply&#45;&gt;eth_output -->
<g id="edge26" class="edge">
<title>arp_output_reply&#45;&gt;eth_output</title>
<path fill="none" stroke="black" d="M1261.77,-103.91C1325.29,-109.15 1438.95,-119.3 1535.71,-132 1550.23,-133.91 1566.07,-136.39 1580.12,-138.73"/>
<polygon fill="black" stroke="black" points="1579.55,-142.18 1590,-140.4 1580.72,-135.28 1579.55,-142.18"/>
</g>
<!-- arp_input_request&#45;&gt;arp_probe -->
<g id="edge25" class="edge">
<title>arp_input_request&#45;&gt;arp_probe</title>
<path fill="none" stroke="black" d="M991.31,-60.19C1009.68,-68.01 1032.44,-77.7 1050.9,-85.57"/>
<polygon fill="black" stroke="black" points="1049.55,-88.79 1060.12,-89.49 1052.29,-82.35 1049.55,-88.79"/>
</g>
<!-- arp_input_reply&#45;&gt;arp_probe -->
<g id="edge24" class="edge">
<title>arp_input_reply&#45;&gt;arp_probe</title>
<path fill="none" stroke="black" d="M1004.49,-100C1017.52,-100 1031.58,-100 1044.24,-100"/>
<polygon fill="black" stroke="black" points="1044.49,-103.5 1054.49,-100 1044.49,-96.5 1044.49,-103.5"/>
</g>
<!-- icmp_input -->
<g id="node25" class="node">
<title>icmp_input</title>
<ellipse fill="none" stroke="black" cx="956.99" cy="-330" rx="33.8" ry="18"/>
<text text-anchor="middle" x="956.99" y="-327.2" font-family="sans" font-size="11.00">icmp_input</text>
</g>
<!-- icmp_input&#45;&gt;icmp_output -->
<g id="edge28" class="edge">
<title>icmp_input&#45;&gt;icmp_output</title>
<path fill="none" stroke="black" d="M990.65,-330C1004.98,-330 1022.07,-330 1037.73,-330"/>
<polygon fill="black" stroke="black" points="1037.77,-333.5 1047.77,-330 1037.77,-326.5 1037.77,-333.5"/>
</g>
<!-- icmp_output&#45;&gt;ip_output -->
<g id="edge30" class="edge">
<title>icmp_output&#45;&gt;ip_output</title>
<path fill="none" stroke="black" d="M1112.7,-317C1132.09,-307.27 1158.7,-293.92 1179.24,-283.61"/>
<polygon fill="black" stroke="black" points="1180.84,-286.73 1188.2,-279.11 1177.7,-280.47 1180.84,-286.73"/>
</g>
<!-- ip_forward&#45;&gt;ip_output -->
<g id="edge31" class="edge">
<title>ip_forward&#45;&gt;ip_output</title>
<path fill="none" stroke="black" d="M857.28,-189.91C912.57,-187.23 1030.43,-186.02 1123.79,-216 1145.62,-223.01 1167.73,-236.43 1184.15,-247.88"/>
<polygon fill="black" stroke="black" points="1182.48,-250.99 1192.64,-253.98 1186.56,-245.3 1182.48,-250.99"/>
</g>
<!-- ip_hold&#45;&gt;nh4_unreachable -->
<g id="edge32" class="edge">
<title>ip_hold&#45;&gt;nh4_unreachable</title>
<path fill="none" stroke="black" d="M1367.29,-264.38C1381.75,-262.34 1400.43,-259.7 1418.23,-257.18"/>
<polygon fill="black" stroke="black" points="1419.15,-260.59 1428.56,-255.72 1418.17,-253.65 1419.15,-260.59"/>
</g>
<!-- ip_input_local&#45;&gt;icmp_input -->
<g id="edge36" class="edge">
<title>ip_input_local&#45;&gt;icmp_input</title>
<path fill="none" stroke="black" d="M866.37,-327.24C881.16,-327.7 897.93,-328.21 912.93,-328.68"/>
<polygon fill="black" stroke="black" points="912.89,-332.18 922.99,-328.98 913.1,-325.18 912.89,-332.18"/>
</g>
<!-- ipip_input -->
<g id="node30" class="node">
<title>ipip_input</title>
<ellipse fill="none" stroke="black" cx="956.99" cy="-276" rx="29.7" ry="18"/>
<text text-anchor="middle" x="956.99" y="-273.2" font-family="sans" font-size="11.00">ipip_input</text>
</g>
<!-- ip_input_local&#45;&gt;ipip_input -->
<g id="edge37" class="edge">
<title>ip_input_local&#45;&gt;ipip_input</title>
<path fill="none" stroke="black" d="M856.43,-314.28C876.04,-306.74 901.56,-296.93 921.86,-289.12"/>
<polygon fill="black" stroke="black" points="923.27,-292.33 931.35,-285.47 920.76,-285.8 923.27,-292.33"/>
</g>
<!-- l4_input_local -->
<g id="node31" class="node">
<title>l4_input_local</title>
<ellipse fill="none" stroke="black" cx="956.99" cy="-384" rx="41.49" ry="18"/>
<text text-anchor="middle" x="956.99" y="-381.2" font-family="sans" font-size="11.00">l4_input_local</text>
</g>
<!-- ip_input_local&#45;&gt;l4_input_local -->
<g id="edge38" class="edge">
<title>ip_input_local&#45;&gt;l4_input_local</title>
<path fill="none" stroke="black" d="M854.47,-338.73C873.2,-347.08 897.88,-358.08 918.22,-367.16"/>
<polygon fill="black" stroke="black" points="916.96,-370.43 927.52,-371.3 919.81,-364.03 916.96,-370.43"/>
</g>
<!-- ipip_input&#45;&gt;ip_input -->
<g id="edge69" class="edge">
<title>ipip_input&#45;&gt;ip_input</title>
<path fill="none" stroke="black" d="M927.04,-273.94C878.07,-270.44 779.02,-263.38 725.61,-259.57"/>
<polygon fill="black" stroke="black" points="725.79,-256.08 715.56,-258.86 725.29,-263.06 725.79,-256.08"/>
</g>
<!-- l4_loopback_output -->
<g id="node44" class="node">
<title>l4_loopback_output</title>
<ellipse fill="none" stroke="black" cx="1477.1" cy="-452" rx="58.73" ry="18"/>
<text text-anchor="middle" x="1477.1" y="-449.2" font-family="sans" font-size="11.00">l4_loopback_output</text>
</g>
<!-- l4_input_local&#45;&gt;l4_loopback_output -->
<g id="edge71" class="edge">
<title>l4_input_local&#45;&gt;l4_loopback_output</title>
<path fill="none" stroke="black" d="M998.14,-385.41C1073.89,-388.62 1242.85,-398.36 1382.49,-425 1396.92,-427.76 1412.35,-431.75 1426.43,-435.83"/>
<polygon fill="black" stroke="black" points="1425.82,-439.3 1436.4,-438.79 1427.82,-432.59 1425.82,-439.3"/>
</g>
<!-- ipip_output&#45;&gt;ip_output -->
<g id="edge70" class="edge">
<title>ipip_output&#45;&gt;ip_output</title>
<path fill="none" stroke="black" d="M1308.75,-314.76C1288.01,-307.17 1260.89,-295.62 1240.71,-285.75"/>
<polygon fill="black" stroke="black" points="1242.2,-282.58 1231.69,-281.21 1239.05,-288.83 1242.2,-282.58"/>
</g>
<!-- sr6_headend&#45;&gt;ip6_output -->
<g id="edge79" class="edge">
<title>sr6_headend&#45;&gt;ip6_output</title>
<path fill="none" stroke="black" d="M1372.19,-462.8C1395.34,-473.98 1426.86,-491.18 1449.1,-504.8"/>
<polygon fill="black" stroke="black" points="1447.38,-507.86 1457.71,-510.2 1451.1,-501.92 1447.38,-507.86"/>
</g>
<!-- icmp6_input -->
<g id="node34" class="node">
<title>icmp6_input</title>
<ellipse fill="none" stroke="black" cx="1211.35" cy="-776" rx="37.4" ry="18"/>
<text text-anchor="middle" x="1211.35" y="-773.2" font-family="sans" font-size="11.00">icmp6_input</text>
</g>
<!-- icmp6_input&#45;&gt;control_output -->
<g id="edge48" class="edge">
<title>icmp6_input&#45;&gt;control_output</title>
<path fill="none" stroke="black" d="M1238.2,-788.78C1276.45,-806.84 1350.92,-838.79 1418.49,-849 1530.64,-865.95 1570.75,-875.81 1672.66,-826 1695.95,-814.62 1717.29,-794.21 1731.98,-777.87"/>
<polygon fill="black" stroke="black" points="1734.71,-780.06 1738.64,-770.22 1729.43,-775.47 1734.71,-780.06"/>
</g>
<!-- icmp6_input&#45;&gt;icmp6_output -->
<g id="edge44" class="edge">
<title>icmp6_input&#45;&gt;icmp6_output</title>
<path fill="none" stroke="black" d="M1227.21,-759.67C1249.52,-735.14 1291.81,-688.65 1317.7,-660.18"/>
<polygon fill="black" stroke="black" points="1320.4,-662.42 1324.54,-652.66 1315.22,-657.71 1320.4,-662.42"/>
</g>
<!-- ndp_ns_input -->
<g id="node36" class="node">
<title>ndp_ns_input</title>
<ellipse fill="none" stroke="black" cx="1477.1" cy="-822" rx="40.32" ry="18"/>
<text text-anchor="middle" x="1477.1" y="-819.2" font-family="sans" font-size="11.00">ndp_ns_input</text>
</g>
<!-- icmp6_input&#45;&gt;ndp_ns_input -->
<g id="edge45" class="edge">
<title>icmp6_input&#45;&gt;ndp_ns_input</title>
<path fill="none" stroke="black" d="M1246.83,-782.01C1293.56,-790.16 1377.17,-804.75 1429.47,-813.87"/>
<polygon fill="black" stroke="black" points="1429.04,-817.34 1439.49,-815.62 1430.24,-810.45 1429.04,-817.34"/>
</g>
<!-- ndp_na_input -->
<g id="node37" class="node">
<title>ndp_na_input</title>
<ellipse fill="none" stroke="black" cx="1622.19" cy="-776" rx="40.91" ry="18"/>
<text text-anchor="middle" x="1622.19" y="-773.2" font-family="sans" font-size="11.00">ndp_na_input</text>
</g>
<!-- icmp6_input&#45;&gt;ndp_na_input -->
<g id="edge46" class="edge">
<title>icmp6_input&#45;&gt;ndp_na_input</title>
<path fill="none" stroke="black" d="M1248.99,-776C1322.39,-776 1487.53,-776 1570.94,-776"/>
<polygon fill="black" stroke="black" points="1571.18,-779.5 1581.18,-776 1571.18,-772.5 1571.18,-779.5"/>
</g>
<!-- ndp_rs_input -->
<g id="node38" class="node">
<title>ndp_rs_input</title>
<ellipse fill="none" stroke="black" cx="1477.1" cy="-730" rx="39.15" ry="18"/>
<text text-anchor="middle" x="1477.1" y="-727.2" font-family="sans" font-size="11.00">ndp_rs_input</text>
</g>
<!-- icmp6_input&#45;&gt;ndp_rs_input -->
<g id="edge47" class="edge">
<title>icmp6_input&#45;&gt;ndp_rs_input</title>
<path fill="none" stroke="black" d="M1246.83,-769.99C1293.82,-761.79 1378.1,-747.09 1430.34,-737.98"/>
<polygon fill="black" stroke="black" points="1431.09,-741.4 1440.34,-736.24 1429.89,-734.51 1431.09,-741.4"/>
</g>
<!-- icmp6_output&#45;&gt;ip6_output -->
<g id="edge49" class="edge">
<title>icmp6_output&#45;&gt;ip6_output</title>
<path fill="none" stroke="black" d="M1360.95,-620.1C1384.4,-600.73 1424.1,-567.95 1450.21,-546.38"/>
<polygon fill="black" stroke="black" points="1452.68,-548.88 1458.17,-539.81 1448.23,-543.48 1452.68,-548.88"/>
</g>
<!-- ndp_ns_input&#45;&gt;control_output -->
<g id="edge66" class="edge">
<title>ndp_ns_input&#45;&gt;control_output</title>
<path fill="none" stroke="black" d="M1517.23,-823.39C1557.33,-823.63 1620.96,-820.67 1672.66,-803 1691.23,-796.65 1709.92,-785.22 1724.5,-774.89"/>
<polygon fill="black" stroke="black" points="1726.58,-777.7 1732.58,-768.98 1722.44,-772.05 1726.58,-777.7"/>
</g>
<!-- ndp_na_input&#45;&gt;control_output -->
<g id="edge64" class="edge">
<title>ndp_na_input&#45;&gt;control_output</title>
<path fill="none" stroke="black" d="M1660.15,-769.41C1673.2,-767.08 1688.12,-764.42 1702.08,-761.93"/>
<polygon fill="black" stroke="black" points="1702.81,-765.36 1712.04,-760.16 1701.58,-758.47 1702.81,-765.36"/>
</g>
<!-- ndp_rs_input&#45;&gt;control_output -->
<g id="edge68" class="edge">
<title>ndp_rs_input&#45;&gt;control_output</title>
<path fill="none" stroke="black" d="M1515.63,-733.15C1563.15,-737.14 1645.29,-744.03 1699.18,-748.55"/>
<polygon fill="black" stroke="black" points="1698.97,-752.05 1709.23,-749.4 1699.56,-745.07 1698.97,-752.05"/>
</g>
<!-- ip6_forward&#45;&gt;ip6_output -->
<g id="edge51" class="edge">
<title>ip6_forward&#45;&gt;ip6_output</title>
<path fill="none" stroke="black" d="M447.96,-410.21C544.81,-425.3 819.2,-468 823.93,-468 823.93,-468 823.93,-468 957.99,-468 1137.34,-468 1349.53,-502.16 1436.21,-517.59"/>
<polygon fill="black" stroke="black" points="1435.69,-521.06 1446.15,-519.38 1436.93,-514.17 1435.69,-521.06"/>
</g>
<!-- ip6_hold&#45;&gt;control_output -->
<g id="edge52" class="edge">
<title>ip6_hold&#45;&gt;control_output</title>
<path fill="none" stroke="black" d="M1639.26,-654.96C1660.92,-673.77 1699.77,-707.5 1725.75,-730.07"/>
<polygon fill="black" stroke="black" points="1723.53,-732.77 1733.37,-736.68 1728.12,-727.48 1723.53,-732.77"/>
</g>
<!-- ip6_input_local&#45;&gt;l4_input_local -->
<g id="edge57" class="edge">
<title>ip6_input_local&#45;&gt;l4_input_local</title>
<path fill="none" stroke="black" d="M453.96,-311.34C466.88,-313.95 481.33,-316.74 494.6,-319 644.26,-344.48 822.46,-367.53 906.92,-378.03"/>
<polygon fill="black" stroke="black" points="906.63,-381.52 916.99,-379.27 907.49,-374.57 906.63,-381.52"/>
</g>
<!-- ip6_input_local&#45;&gt;icmp6_input -->
<g id="edge56" class="edge">
<title>ip6_input_local&#45;&gt;icmp6_input</title>
<path fill="none" stroke="black" d="M426.15,-320.31C435.74,-335.16 449.26,-357.36 458.6,-378 479.63,-424.48 454.77,-455.12 494.6,-487 561.87,-540.84 601.37,-506 687.53,-506 687.53,-506 687.53,-506 957.99,-506 1089.82,-506 1172.59,-679.9 1200.14,-748.58"/>
<polygon fill="black" stroke="black" points="1197.03,-750.25 1203.94,-758.28 1203.55,-747.7 1197.03,-750.25"/>
</g>
<!-- sr6_local -->
<g id="node42" class="node">
<title>sr6_local</title>
<ellipse fill="none" stroke="black" cx="543.98" cy="-292" rx="27.86" ry="18"/>
<text text-anchor="middle" x="543.98" y="-289.2" font-family="sans" font-size="11.00">sr6_local</text>
</g>
<!-- ip6_input_local&#45;&gt;sr6_local -->
<g id="edge58" class="edge">
<title>ip6_input_local&#45;&gt;sr6_local</title>
<path fill="none" stroke="black" d="M452.05,-293.59C469.21,-291.37 489.48,-289.65 506.52,-288.97"/>
<polygon fill="black" stroke="black" points="506.76,-292.46 516.66,-288.68 506.57,-285.47 506.76,-292.46"/>
</g>
<!-- sr6_local_srh -->
<g id="node43" class="node">
<title>sr6_local_srh</title>
<ellipse fill="none" stroke="black" cx="543.98" cy="-238" rx="39.74" ry="18"/>
<text text-anchor="middle" x="543.98" y="-235.2" font-family="sans" font-size="11.00">sr6_local_srh</text>
</g>
<!-- ip6_input_local&#45;&gt;sr6_local_srh -->
<g id="edge59" class="edge">
<title>ip6_input_local&#45;&gt;sr6_local_srh</title>
<path fill="none" stroke="black" d="M435.47,-287.27C453.38,-276.6 479.71,-262.87 501.83,-252.48"/>
<polygon fill="black" stroke="black" points="503.39,-255.62 511.01,-248.25 500.46,-249.26 503.39,-255.62"/>
</g>
<!-- sr6_local&#45;&gt;ip_input -->
<g id="edge73" class="edge">
<title>sr6_local&#45;&gt;ip_input</title>
<path fill="none" stroke="black" d="M570.14,-285.82C593.04,-280.2 627.07,-271.84 652.61,-265.57"/>
<polygon fill="black" stroke="black" points="653.75,-268.9 662.62,-263.11 652.08,-262.1 653.75,-268.9"/>
</g>
<!-- sr6_local&#45;&gt;ip6_input -->
<g id="edge74" class="edge">
<title>sr6_local&#45;&gt;ip6_input</title>
<path fill="none" stroke="black" d="M517.99,-285.73C483.99,-278.11 421.33,-267.28 368.51,-276 352.5,-278.64 335.38,-284.09 321.14,-289.41"/>
<polygon fill="black" stroke="black" points="319.86,-286.15 311.8,-293.03 322.39,-292.68 319.86,-286.15"/>
</g>
<!-- sr6_local&#45;&gt;ip6_input_local -->
<g id="edge75" class="edge">
<title>sr6_local&#45;&gt;ip6_input_local</title>
<path fill="none" stroke="black" d="M518.79,-299.49C504.58,-301.81 486.04,-303.82 468.54,-305.05"/>
<polygon fill="black" stroke="black" points="468.15,-301.57 458.39,-305.68 468.59,-308.55 468.15,-301.57"/>
</g>
<!-- sr6_local_srh&#45;&gt;ip_input -->
<g id="edge76" class="edge">
<title>sr6_local_srh&#45;&gt;ip_input</title>
<path fill="none" stroke="black" d="M582.44,-242.99C603.89,-245.85 630.66,-249.42 651.82,-252.24"/>
<polygon fill="black" stroke="black" points="651.63,-255.75 662,-253.6 652.55,-248.81 651.63,-255.75"/>
</g>
<!-- sr6_local_srh&#45;&gt;ip6_input -->
<g id="edge77" class="edge">
<title>sr6_local_srh&#45;&gt;ip6_input</title>
<path fill="none" stroke="black" d="M504.93,-241.83C469.17,-246.06 414.42,-254.17 368.51,-268 351.8,-273.03 333.96,-280.66 319.43,-287.51"/>
<polygon fill="black" stroke="black" points="317.88,-284.37 310.39,-291.87 320.92,-290.68 317.88,-284.37"/>
</g>
<!-- sr6_local_srh&#45;&gt;ip6_input_local -->
<g id="edge78" class="edge">
<title>sr6_local_srh&#45;&gt;ip6_input_local</title>
<path fill="none" stroke="black" d="M522.52,-253.45C505.23,-263.79 479.86,-277.08 458.06,-287.41"/>
<polygon fill="black" stroke="black" points="456.56,-284.25 448.97,-291.64 459.51,-290.59 456.56,-284.25"/>
</g>
<!-- l4_loopback_output&#45;&gt;loopback_output -->
<g id="edge72" class="edge">
<title>l4_loopback_output&#45;&gt;loopback_output</title>
<path fill="none" stroke="black" d="M1527.34,-461.29C1540.23,-463.72 1554.18,-466.36 1567.29,-468.83"/>
<polygon fill="black" stroke="black" points="1566.65,-472.27 1577.12,-470.69 1567.95,-465.39 1566.65,-472.27"/>
</g>
</g>
</svg>
